if (_typeface_js && _typeface_js.loadFace) _typeface_js.loadFace({"glyphs":{"ợ":{"x_min":62.390625,"x_max":1007.171875,"ha":943,"o":"m 797 380 q 699 90 797 195 q 427 -14 602 -14 q 235 33 318 -14 q 107 171 151 81 q 62 380 62 261 q 159 669 62 566 q 432 773 256 773 q 575 749 508 773 q 691 679 643 726 q 792 873 792 709 l 997 873 l 1007 858 q 959 713 988 767 q 881 624 929 660 q 762 570 833 587 q 797 380 797 485 m 273 380 q 310 209 273 267 q 430 152 347 152 q 549 209 513 152 q 586 380 586 267 q 549 549 586 493 q 429 606 512 606 q 309 550 346 606 q 273 380 273 494 m 860 0 l 860 0 m 319 -190 q 432 -89 319 -89 q 544 -190 544 -89 q 516 -265 544 -238 q 432 -291 487 -291 q 319 -190 319 -291 "},"¦":{"x_min":308.578125,"x_max":457.109375,"ha":765,"o":"m 308 1051 l 457 1051 l 457 499 l 308 499 l 308 1051 m 308 238 l 457 238 l 457 -315 l 308 -315 l 308 238 "},"Ẩ":{"x_min":0,"x_max":958,"ha":958,"o":"m 731 0 l 659 236 l 298 236 l 226 0 l 0 0 l 349 996 l 606 996 l 958 0 l 731 0 m 609 413 q 497 775 509 733 q 479 842 484 817 q 351 413 456 755 l 609 413 m 868 1335 q 783 1241 868 1258 l 779 1200 l 693 1200 l 686 1278 q 746 1290 724 1280 q 768 1320 768 1301 q 756 1345 768 1335 q 714 1355 743 1355 q 665 1348 690 1355 l 665 1434 q 728 1439 680 1439 q 830 1414 791 1439 q 868 1335 868 1390 m 732 1071 l 623 1071 q 480 1183 547 1121 q 336 1071 402 1115 l 227 1071 l 227 1089 q 372 1279 302 1177 l 586 1279 q 668 1168 622 1226 q 732 1089 713 1110 l 732 1071 "},"ǻ":{"x_min":58.328125,"x_max":734.546875,"ha":839,"o":"m 590 0 l 550 102 l 544 102 q 437 11 492 36 q 293 -14 381 -14 q 121 48 183 -14 q 58 226 58 110 q 142 404 58 347 q 397 467 227 461 l 529 472 l 529 505 q 411 620 529 620 q 197 565 320 620 l 128 705 q 419 774 259 774 q 653 707 571 774 q 734 505 734 641 l 734 0 l 590 0 m 529 351 l 449 348 q 314 315 358 345 q 270 224 270 286 q 371 137 270 137 q 485 178 442 137 q 529 288 529 220 l 529 351 m 319 1189 l 319 1199 q 386 1269 350 1228 q 437 1331 422 1309 l 669 1331 l 669 1322 q 599 1270 655 1306 q 457 1189 543 1235 l 319 1189 m 597 975 q 549 857 597 901 q 425 812 501 812 q 303 855 349 812 q 257 973 257 899 q 302 1090 257 1047 q 425 1134 348 1134 q 548 1089 499 1134 q 597 975 597 1045 m 490 973 q 472 1021 490 1004 q 425 1039 453 1039 q 378 1021 396 1039 q 359 973 359 1004 q 376 925 359 943 q 425 908 392 908 q 472 925 453 908 q 490 973 490 943 "},"Ỷ":{"x_min":0.09375,"x_max":866.859375,"ha":867,"o":"m 433 583 l 640 992 l 866 992 l 537 386 l 537 0 l 329 0 l 329 379 l 0 992 l 227 992 l 433 583 m 603 1237 q 493 1104 603 1131 l 486 1056 l 368 1056 l 353 1155 q 422 1180 403 1163 q 440 1223 440 1198 q 426 1256 440 1245 q 388 1268 412 1268 q 294 1252 344 1268 l 294 1366 q 350 1377 315 1373 q 414 1382 386 1382 q 556 1344 509 1382 q 603 1237 603 1306 "},"Ő":{"x_min":80.703125,"x_max":1025.296875,"ha":1106,"o":"m 1025 496 q 903 118 1025 250 q 553 -14 781 -14 q 202 118 325 -14 q 80 498 80 250 q 203 876 80 745 q 554 1007 325 1007 q 904 875 783 1007 q 1025 496 1025 743 m 301 496 q 364 246 301 330 q 553 162 427 162 q 804 496 804 162 q 554 832 804 832 q 364 747 428 832 q 301 496 301 663 m 323 1071 l 323 1089 q 403 1206 365 1146 q 455 1293 441 1265 l 659 1293 l 659 1278 q 560 1175 637 1242 q 433 1071 483 1107 l 323 1071 m 592 1071 l 592 1089 q 725 1293 687 1219 l 929 1293 l 929 1278 q 844 1187 912 1249 q 702 1071 775 1125 l 592 1071 "},"Ổ":{"x_min":80.703125,"x_max":1025.296875,"ha":1106,"o":"m 1025 496 q 903 118 1025 250 q 553 -14 781 -14 q 202 118 325 -14 q 80 498 80 250 q 203 876 80 745 q 554 1007 325 1007 q 904 875 783 1007 q 1025 496 1025 743 m 301 496 q 364 246 301 330 q 553 162 427 162 q 804 496 804 162 q 554 832 804 832 q 364 747 428 832 q 301 496 301 663 m 935 1335 q 850 1241 935 1258 l 846 1200 l 760 1200 l 753 1278 q 813 1290 791 1280 q 835 1320 835 1301 q 823 1345 835 1335 q 781 1355 810 1355 q 732 1348 757 1355 l 732 1434 q 795 1439 747 1439 q 897 1414 858 1439 q 935 1335 935 1390 m 799 1071 l 690 1071 q 547 1183 614 1121 q 403 1071 469 1115 l 294 1071 l 294 1089 q 439 1279 369 1177 l 653 1279 q 735 1168 689 1226 q 799 1089 780 1110 l 799 1071 "},"Ừ":{"x_min":118.015625,"x_max":1243.296875,"ha":1229,"o":"m 931 992 l 931 864 q 1005 932 982 881 q 1029 1056 1029 983 l 1233 1056 l 1243 1041 q 1185 879 1221 936 q 1087 787 1149 822 q 931 739 1025 752 l 931 349 q 882 157 931 239 q 740 30 833 74 q 520 -14 647 -14 q 223 84 329 -14 q 118 352 118 182 l 118 992 l 327 992 l 327 368 q 375 212 327 262 q 526 162 423 162 q 675 214 629 162 q 722 369 722 266 l 722 992 l 931 992 m 1050 0 l 1050 0 m 493 1071 q 368 1167 450 1100 q 239 1278 285 1234 l 239 1293 l 471 1293 q 630 1089 513 1224 l 630 1071 l 493 1071 "},"Ž":{"x_min":33.21875,"x_max":770.78125,"ha":804,"o":"m 770 0 l 33 0 l 33 136 l 508 818 l 46 818 l 46 992 l 757 992 l 757 856 l 283 173 l 770 173 l 770 0 m 705 1293 l 705 1274 q 600 1161 648 1217 q 531 1071 552 1104 l 289 1071 q 233 1147 270 1102 q 116 1274 196 1191 l 116 1293 l 253 1293 q 409 1174 353 1230 q 567 1293 466 1232 l 705 1293 "},"Á":{"x_min":0,"x_max":958,"ha":958,"o":"m 731 0 l 659 236 l 298 236 l 226 0 l 0 0 l 349 996 l 606 996 l 958 0 l 731 0 m 609 413 q 497 775 509 733 q 479 842 484 817 q 351 413 456 755 l 609 413 m 367 1071 l 367 1089 q 526 1293 483 1224 l 758 1293 l 758 1278 q 638 1174 723 1243 q 504 1071 552 1104 l 367 1071 "},"ĥ":{"x_min":108.515625,"x_max":808.546875,"ha":913,"o":"m 808 0 l 601 0 l 601 443 q 479 607 601 607 q 354 548 392 607 q 315 357 315 489 l 315 0 l 108 0 l 108 1055 l 315 1055 l 315 840 q 310 722 315 815 l 305 661 l 316 661 q 536 773 385 773 q 739 701 670 773 q 808 494 808 629 l 808 0 m 613 1109 q 455 1227 507 1171 q 299 1109 402 1173 l 162 1109 l 162 1127 q 335 1331 290 1255 l 577 1331 q 650 1235 598 1295 q 751 1127 702 1174 l 751 1109 l 613 1109 "},"Î":{"x_min":-64.859375,"x_max":524.515625,"ha":460,"o":"m 124 0 l 124 992 l 335 992 l 335 0 l 124 0 m 386 1071 q 228 1189 280 1133 q 72 1071 175 1135 l -64 1071 l -64 1089 q 108 1293 63 1217 l 350 1293 q 423 1197 371 1257 q 524 1089 475 1136 l 524 1071 l 386 1071 "},"e":{"x_min":62.390625,"x_max":761.3125,"ha":821,"o":"m 422 625 q 319 583 356 625 q 276 465 282 542 l 567 465 q 527 583 565 542 q 422 625 488 625 m 451 -14 q 165 87 268 -14 q 62 373 62 188 q 157 668 62 564 q 421 773 253 773 q 671 681 582 773 q 761 427 761 589 l 761 327 l 271 327 q 324 189 275 239 q 461 139 373 139 q 590 154 529 139 q 718 199 652 168 l 718 39 q 602 0 664 12 q 451 -14 540 -14 "},"»":{"x_min":55.609375,"x_max":798.765625,"ha":855,"o":"m 798 371 l 547 64 l 398 144 l 587 380 l 398 616 l 547 697 l 798 388 l 798 371 m 455 371 l 204 64 l 55 144 l 244 380 l 55 616 l 204 697 l 455 388 l 455 371 "},"Ề":{"x_min":-34.984375,"x_max":695.9375,"ha":778,"o":"m 695 0 l 124 0 l 124 992 l 695 992 l 695 819 l 335 819 l 335 602 l 670 602 l 670 429 l 335 429 l 335 173 l 695 173 l 695 0 m 162 1089 q 308 1279 238 1177 l 522 1279 q 598 1174 555 1230 q 668 1089 641 1119 l 668 1071 l 558 1071 q 415 1183 492 1115 q 272 1071 343 1118 l 162 1071 l 162 1089 m 222 1203 l 119 1203 q -34 1342 8 1283 l -34 1357 l 129 1357 q 222 1220 165 1281 l 222 1203 "},"ļ":{"x_min":67.546875,"x_max":315.375,"ha":424,"o":"m 315 0 l 108 0 l 108 1055 l 315 1055 l 315 0 m 67 -288 q 90 -191 77 -255 q 109 -85 104 -128 l 300 -85 l 300 -98 q 188 -307 250 -212 l 67 -307 l 67 -288 "},"Ĕ":{"x_min":124.796875,"x_max":695.9375,"ha":778,"o":"m 695 0 l 124 0 l 124 992 l 695 992 l 695 819 l 335 819 l 335 602 l 670 602 l 670 429 l 335 429 l 335 173 l 695 173 l 695 0 m 672 1300 q 589 1133 664 1195 q 402 1071 515 1071 q 214 1132 284 1071 q 138 1300 144 1194 l 254 1300 q 272 1249 256 1268 q 317 1223 288 1231 q 404 1215 346 1215 q 554 1300 543 1215 l 672 1300 "},"ị":{"x_min":98.671875,"x_max":324.875,"ha":424,"o":"m 99 953 q 212 1055 99 1055 q 324 953 324 1055 q 296 879 324 905 q 212 852 268 852 q 99 953 99 852 m 315 0 l 108 0 l 108 758 l 315 758 l 315 0 m 98 -190 q 211 -89 98 -89 q 323 -190 323 -89 q 295 -265 323 -238 q 211 -291 266 -291 q 98 -190 98 -291 "}," ":{"x_min":0,"x_max":0,"ha":695},"ỹ":{"x_min":0,"x_max":790,"ha":790,"o":"m 0 758 l 226 758 l 369 331 q 394 199 387 275 l 398 199 q 427 331 406 269 l 568 758 l 790 758 l 469 -97 q 343 -275 425 -216 q 152 -334 261 -334 q 47 -322 99 -334 l 47 -158 q 128 -167 84 -167 q 224 -133 183 -167 q 288 -32 265 -100 l 301 5 l 0 758 m 287 913 q 247 894 266 913 q 219 840 228 876 l 118 840 q 174 994 125 938 q 302 1050 222 1050 q 357 1038 330 1050 q 410 1014 384 1027 q 461 989 436 1000 q 511 978 486 978 q 551 996 532 978 q 579 1051 570 1014 l 680 1051 q 624 896 673 952 q 496 841 574 841 q 441 852 468 841 q 388 877 414 863 q 337 901 362 890 q 287 913 312 913 "},"ò":{"x_min":62.390625,"x_max":797.609375,"ha":860,"o":"m 273 380 q 310 209 273 267 q 430 152 347 152 q 549 209 513 152 q 586 380 586 267 q 549 549 586 493 q 429 606 512 606 q 309 550 346 606 q 273 380 273 494 m 797 380 q 699 90 797 195 q 427 -14 602 -14 q 235 33 318 -14 q 107 171 151 81 q 62 380 62 261 q 159 669 62 566 q 432 773 256 773 q 624 725 541 773 q 752 588 708 677 q 797 380 797 500 m 415 842 q 290 938 372 871 q 161 1049 207 1005 l 161 1064 l 393 1064 q 552 860 435 995 l 552 842 l 415 842 "},"ţ":{"x_min":31.890625,"x_max":558.234375,"ha":603,"o":"m 427 150 q 558 174 482 150 l 558 20 q 368 -14 480 -14 q 187 48 244 -14 q 130 237 130 111 l 130 602 l 31 602 l 31 690 l 145 759 l 205 919 l 337 919 l 337 758 l 550 758 l 550 602 l 337 602 l 337 236 q 362 171 337 192 q 427 150 387 150 m 501 -170 q 450 -295 501 -256 q 291 -334 399 -334 q 192 -319 239 -334 l 192 -205 q 242 -215 211 -210 q 289 -220 273 -220 q 338 -177 338 -220 q 226 -104 338 -121 l 279 0 l 410 0 l 391 -42 q 471 -92 441 -58 q 501 -170 501 -126 "},"^":{"x_min":5.421875,"x_max":735.609375,"ha":739,"o":"m 5 353 l 302 997 l 400 997 l 735 353 l 573 353 l 355 788 l 165 353 l 5 353 "},"«":{"x_min":55.546875,"x_max":799.390625,"ha":855,"o":"m 55 388 l 307 697 l 455 616 l 266 380 l 455 144 l 307 64 l 55 371 l 55 388 m 399 388 l 650 697 l 799 616 l 610 380 l 799 144 l 650 64 l 399 371 l 399 388 "},"ử":{"x_min":104.453125,"x_max":1119.875,"ha":1055,"o":"m 645 0 l 617 96 l 605 96 q 512 15 573 44 q 373 -14 451 -14 q 172 57 240 -14 q 104 263 104 129 l 104 758 l 311 758 l 311 314 q 340 191 311 232 q 433 150 369 150 q 558 208 520 150 q 597 401 597 266 l 597 758 l 804 758 l 804 679 q 879 743 852 693 q 905 872 905 793 l 1109 872 l 1119 857 q 1061 694 1098 751 q 962 602 1024 637 q 804 554 900 568 l 804 0 l 645 0 m 913 0 l 913 0 m 628 1008 q 518 875 628 902 l 511 827 l 393 827 l 378 926 q 447 951 428 934 q 465 994 465 969 q 451 1027 465 1016 q 413 1039 437 1039 q 319 1023 369 1039 l 319 1137 q 375 1148 340 1144 q 439 1153 411 1153 q 581 1115 534 1153 q 628 1008 628 1077 "},"í":{"x_min":98.15625,"x_max":489.484375,"ha":424,"o":"m 315 0 l 108 0 l 108 758 l 315 758 l 315 0 m 98 842 l 98 860 q 257 1064 214 995 l 489 1064 l 489 1049 q 369 945 454 1014 q 235 842 283 875 l 98 842 "},"ˆ":{"x_min":126.140625,"x_max":715.515625,"ha":843,"o":"m 577 842 q 419 960 471 904 q 263 842 366 906 l 126 842 l 126 860 q 299 1064 254 988 l 541 1064 q 614 968 562 1028 q 715 860 666 907 l 715 842 l 577 842 "},"ū":{"x_min":104.453125,"x_max":804.484375,"ha":913,"o":"m 645 0 l 617 96 l 607 96 q 512 14 573 43 q 373 -14 451 -14 q 172 57 240 -14 q 104 263 104 129 l 104 758 l 311 758 l 311 314 q 340 191 311 232 q 433 150 369 150 q 558 208 520 150 q 597 401 597 266 l 597 758 l 804 758 l 804 0 l 645 0 m 223 985 l 683 985 l 683 842 l 223 842 l 223 985 "},"Ẅ":{"x_min":0,"x_max":1343,"ha":1343,"o":"m 1090 0 l 851 0 l 716 521 q 691 636 709 549 q 670 753 673 723 q 650 635 666 716 q 625 519 634 554 l 491 0 l 253 0 l 0 992 l 206 992 l 333 450 q 381 190 366 300 q 400 310 385 229 q 427 436 415 391 l 572 992 l 771 992 l 915 436 q 939 322 925 398 q 961 190 953 245 q 982 322 967 243 q 1009 450 997 401 l 1136 992 l 1343 992 l 1090 0 m 438 1182 q 463 1250 438 1226 q 532 1273 489 1273 q 602 1248 577 1273 q 628 1182 628 1223 q 602 1116 628 1141 q 532 1092 576 1092 q 463 1115 489 1092 q 438 1182 438 1139 m 711 1182 q 738 1251 711 1229 q 806 1273 766 1273 q 877 1249 850 1273 q 903 1182 903 1224 q 876 1116 903 1140 q 806 1092 850 1092 q 738 1114 766 1092 q 711 1182 711 1136 "},"ȷ":{"x_min":-88.84375,"x_max":315.375,"ha":424,"o":"m 47 -334 q -88 -317 -31 -334 l -88 -154 q 8 -167 -41 -167 q 84 -137 60 -167 q 108 -51 108 -108 l 108 758 l 315 758 l 315 -82 q 245 -268 315 -203 q 47 -334 175 -334 "},"ņ":{"x_min":108.515625,"x_max":808.546875,"ha":913,"o":"m 808 0 l 601 0 l 601 443 q 572 566 601 525 q 479 607 543 607 q 354 549 392 607 q 315 357 315 491 l 315 0 l 108 0 l 108 758 l 266 758 l 294 661 l 305 661 q 401 744 340 716 q 539 773 461 773 q 740 701 671 773 q 808 494 808 629 l 808 0 m 316 -288 q 339 -191 326 -255 q 358 -85 353 -128 l 549 -85 l 549 -98 q 437 -307 499 -212 l 316 -307 l 316 -288 "},"µ":{"x_min":108.515625,"x_max":808.484375,"ha":917,"o":"m 315 314 q 345 191 315 232 q 438 150 375 150 q 562 209 524 150 q 601 401 601 268 l 601 758 l 808 758 l 808 0 l 651 0 l 622 101 l 612 101 q 543 14 583 43 q 442 -14 502 -14 q 365 1 400 -14 q 308 47 330 17 l 311 -10 l 315 -117 l 315 -334 l 108 -334 l 108 758 l 315 758 l 315 314 "},"ỳ":{"x_min":0,"x_max":790,"ha":790,"o":"m 0 758 l 226 758 l 369 331 q 394 199 387 275 l 398 199 q 427 331 406 269 l 568 758 l 790 758 l 469 -97 q 343 -275 425 -216 q 152 -334 261 -334 q 47 -322 99 -334 l 47 -158 q 128 -167 84 -167 q 224 -133 183 -167 q 288 -32 265 -100 l 301 5 l 0 758 m 366 842 q 241 938 323 871 q 112 1049 158 1005 l 112 1064 l 344 1064 q 503 860 386 995 l 503 842 l 366 842 "},"č":{"x_min":62.390625,"x_max":715.515625,"ha":714,"o":"m 416 -14 q 62 375 62 -14 q 158 670 62 568 q 434 773 254 773 q 670 721 566 773 l 609 561 q 518 593 560 581 q 434 606 476 606 q 273 376 273 606 q 434 153 273 153 q 545 169 494 153 q 646 219 596 185 l 646 42 q 545 -1 596 10 q 416 -14 494 -14 m 715 1064 l 715 1045 q 610 932 658 988 q 541 842 562 875 l 299 842 q 243 918 280 873 q 126 1045 206 962 l 126 1064 l 263 1064 q 419 945 363 1001 q 577 1064 476 1003 l 715 1064 "},"’":{"x_min":16.953125,"x_max":284.859375,"ha":301,"o":"m 275 992 l 284 977 q 165 652 250 843 l 16 652 q 84 992 63 852 l 275 992 "},"-":{"x_min":41.375,"x_max":405.625,"ha":447,"o":"m 41 287 l 41 457 l 405 457 l 405 287 l 41 287 "},"Q":{"x_min":80.703125,"x_max":1025.296875,"ha":1106,"o":"m 1025 496 q 963 203 1025 321 q 781 30 901 85 l 1019 -236 l 750 -236 l 568 -14 l 553 -14 q 202 118 325 -14 q 80 498 80 250 q 203 876 80 745 q 554 1007 325 1007 q 904 875 783 1007 q 1025 496 1025 743 m 301 496 q 364 246 301 330 q 553 162 427 162 q 804 496 804 162 q 554 832 804 832 q 364 747 428 832 q 301 496 301 663 "},"M":{"x_min":124.796875,"x_max":1185.21875,"ha":1310,"o":"m 544 0 l 305 778 l 299 778 q 312 461 312 540 l 312 0 l 124 0 l 124 992 l 411 992 l 645 233 l 649 233 l 898 992 l 1185 992 l 1185 0 l 989 0 l 989 469 q 990 546 989 502 q 999 776 991 589 l 993 776 l 737 0 l 544 0 "},"œ":{"x_min":62.390625,"x_max":1298.3125,"ha":1358,"o":"m 980 -14 q 695 91 796 -14 q 430 -14 600 -14 q 236 33 320 -14 q 107 170 152 81 q 62 380 62 260 q 158 670 62 568 q 429 773 254 773 q 572 746 505 773 q 688 667 640 719 q 948 773 786 773 q 1206 681 1113 773 q 1298 427 1298 589 l 1298 327 l 792 327 l 792 321 q 847 187 797 235 q 988 139 898 139 q 1124 154 1061 139 q 1254 199 1187 168 l 1254 39 q 1135 0 1200 13 q 980 -14 1071 -14 m 273 380 q 310 209 273 267 q 430 152 347 152 q 549 209 513 152 q 585 380 585 267 q 549 549 585 493 q 429 606 512 606 q 309 550 346 606 q 273 380 273 494 m 952 625 q 846 586 888 625 q 798 465 804 547 l 1103 465 q 1062 583 1102 540 q 952 625 1023 625 "},"ě":{"x_min":62.390625,"x_max":761.3125,"ha":821,"o":"m 422 625 q 319 583 356 625 q 276 465 282 542 l 567 465 q 527 583 565 542 q 422 625 488 625 m 451 -14 q 165 87 268 -14 q 62 373 62 188 q 157 668 62 564 q 421 773 253 773 q 671 681 582 773 q 761 427 761 589 l 761 327 l 271 327 q 324 189 275 239 q 461 139 373 139 q 590 154 529 139 q 718 199 652 168 l 718 39 q 602 0 664 12 q 451 -14 540 -14 m 716 1064 l 716 1045 q 611 932 659 988 q 542 842 563 875 l 300 842 q 244 918 281 873 q 127 1045 207 962 l 127 1064 l 264 1064 q 420 945 364 1001 q 578 1064 477 1003 l 716 1064 "},"Ộ":{"x_min":80.703125,"x_max":1025.296875,"ha":1106,"o":"m 1025 496 q 903 118 1025 250 q 553 -14 781 -14 q 202 118 325 -14 q 80 498 80 250 q 203 876 80 745 q 554 1007 325 1007 q 904 875 783 1007 q 1025 496 1025 743 m 301 496 q 364 246 301 330 q 553 162 427 162 q 804 496 804 162 q 554 832 804 832 q 364 747 428 832 q 301 496 301 663 m 440 -190 q 553 -89 440 -89 q 665 -190 665 -89 q 637 -265 665 -238 q 553 -291 608 -291 q 440 -190 440 -291 m 708 1071 q 550 1189 602 1133 q 394 1071 497 1135 l 257 1071 l 257 1089 q 430 1293 385 1217 l 672 1293 q 745 1197 693 1257 q 846 1089 797 1136 l 846 1071 l 708 1071 "},"ũ":{"x_min":104.453125,"x_max":804.484375,"ha":913,"o":"m 645 0 l 617 96 l 607 96 q 512 14 573 43 q 373 -14 451 -14 q 172 57 240 -14 q 104 263 104 129 l 104 758 l 311 758 l 311 314 q 340 191 311 232 q 433 150 369 150 q 558 208 520 150 q 597 401 597 266 l 597 758 l 804 758 l 804 0 l 645 0 m 342 913 q 302 894 321 913 q 274 840 283 876 l 173 840 q 229 994 180 938 q 357 1050 277 1050 q 412 1038 385 1050 q 465 1014 439 1027 q 516 989 491 1000 q 566 978 541 978 q 606 996 587 978 q 634 1051 625 1014 l 735 1051 q 679 896 728 952 q 551 841 629 841 q 496 852 523 841 q 443 877 469 863 q 392 901 417 890 q 342 913 367 913 "},"Ậ":{"x_min":0,"x_max":958,"ha":958,"o":"m 731 0 l 659 236 l 298 236 l 226 0 l 0 0 l 349 996 l 606 996 l 958 0 l 731 0 m 609 413 q 497 775 509 733 q 479 842 484 817 q 351 413 456 755 l 609 413 m 637 1071 q 479 1189 531 1133 q 323 1071 426 1135 l 186 1071 l 186 1089 q 359 1293 314 1217 l 601 1293 q 674 1197 622 1257 q 775 1089 726 1136 l 775 1071 l 637 1071 m 366 -190 q 479 -89 366 -89 q 591 -190 591 -89 q 563 -265 591 -238 q 479 -291 534 -291 q 366 -190 366 -291 "},"ŭ":{"x_min":104.453125,"x_max":804.484375,"ha":913,"o":"m 645 0 l 617 96 l 607 96 q 512 14 573 43 q 373 -14 451 -14 q 172 57 240 -14 q 104 263 104 129 l 104 758 l 311 758 l 311 314 q 340 191 311 232 q 433 150 369 150 q 558 208 520 150 q 597 401 597 266 l 597 758 l 804 758 l 804 0 l 645 0 m 720 1071 q 637 904 712 966 q 450 842 563 842 q 262 903 332 842 q 186 1071 192 965 l 302 1071 q 320 1020 304 1039 q 365 994 336 1002 q 452 986 394 986 q 602 1071 591 986 l 720 1071 "},"―":{"x_min":55.609375,"x_max":1333.390625,"ha":1389,"o":"m 55 296 l 55 452 l 1333 452 l 1333 296 l 55 296 "},"{":{"x_min":21,"x_max":491.390625,"ha":547,"o":"m 194 183 q 150 273 194 242 q 21 304 105 304 l 21 466 q 150 496 106 466 q 194 582 194 526 l 194 587 l 194 803 q 260 949 194 907 q 491 992 325 992 l 491 839 q 398 813 424 837 q 373 743 373 789 l 373 540 q 214 390 369 413 l 214 381 q 373 238 373 358 l 373 231 l 373 28 q 398 -40 373 -17 q 491 -66 423 -64 l 491 -220 q 260 -177 325 -220 q 194 -30 194 -135 l 194 183 "},"¼":{"x_min":31.25,"x_max":1140.84375,"ha":1224,"o":"m 364 397 l 203 397 l 203 700 l 205 776 l 208 840 q 158 787 190 816 l 105 746 l 31 832 l 235 992 l 364 992 l 364 397 m 929 992 l 379 0 l 217 0 l 767 992 l 929 992 m 1140 103 l 1056 103 l 1056 0 l 894 0 l 894 103 l 635 103 l 635 207 l 896 599 l 1056 599 l 1056 217 l 1140 217 l 1140 103 m 894 217 l 894 328 q 898 453 894 386 q 874 398 892 435 q 846 346 856 362 l 760 217 l 894 217 "},"#":{"x_min":30.4375,"x_max":866.546875,"ha":897,"o":"m 677 572 l 645 415 l 820 415 l 820 275 l 619 275 l 566 0 l 417 0 l 470 275 l 339 275 l 287 0 l 141 0 l 191 275 l 30 275 l 30 415 l 218 415 l 250 572 l 79 572 l 79 714 l 275 714 l 327 990 l 475 990 l 423 714 l 557 714 l 610 990 l 756 990 l 703 714 l 866 714 l 866 572 l 677 572 m 365 415 l 498 415 l 530 572 l 397 572 l 365 415 "},"Ḿ":{"x_min":124.796875,"x_max":1185.21875,"ha":1310,"o":"m 544 0 l 305 778 l 299 778 q 312 461 312 540 l 312 0 l 124 0 l 124 992 l 411 992 l 645 233 l 649 233 l 898 992 l 1185 992 l 1185 0 l 989 0 l 989 469 q 990 546 989 502 q 999 776 991 589 l 993 776 l 737 0 l 544 0 m 531 1073 l 531 1091 q 690 1295 647 1226 l 922 1295 l 922 1280 q 802 1176 887 1245 q 668 1073 716 1106 l 531 1073 "},"Ĳ":{"x_min":124.84375,"x_max":876.046875,"ha":1000,"o":"m 124 0 l 124 992 l 335 992 l 335 0 l 124 0 m 562 -291 q 437 -276 490 -291 l 437 -101 q 536 -114 492 -114 q 635 -71 606 -114 q 665 63 665 -28 l 665 992 l 876 992 l 876 64 q 796 -200 876 -109 q 562 -291 717 -291 "},"Ê":{"x_min":119.140625,"x_max":708.515625,"ha":778,"o":"m 695 0 l 124 0 l 124 992 l 695 992 l 695 819 l 335 819 l 335 602 l 670 602 l 670 429 l 335 429 l 335 173 l 695 173 l 695 0 m 570 1071 q 412 1189 464 1133 q 256 1071 359 1135 l 119 1071 l 119 1089 q 292 1293 247 1217 l 534 1293 q 607 1197 555 1257 q 708 1089 659 1136 l 708 1071 l 570 1071 "},")":{"x_min":41.375,"x_max":415.078125,"ha":471,"o":"m 415 380 q 362 48 415 202 q 210 -220 309 -106 l 42 -220 q 184 59 134 -95 q 234 381 234 214 q 185 704 234 547 q 41 992 137 861 l 210 992 q 362 716 310 873 q 415 380 415 559 "},"ș":{"x_min":62.390625,"x_max":637.09375,"ha":690,"o":"m 637 224 q 556 47 637 108 q 313 -14 475 -14 q 172 -2 231 -14 q 63 30 114 8 l 63 201 q 193 155 121 173 q 320 137 265 137 q 432 202 432 137 q 418 242 432 226 q 366 276 403 257 q 269 322 329 296 q 140 390 181 358 q 81 461 99 421 q 62 561 62 502 q 140 717 62 662 q 362 773 218 773 q 628 713 499 773 l 566 564 q 460 604 509 588 q 359 619 410 619 q 267 570 267 619 q 297 521 267 542 q 426 461 326 501 q 556 394 515 425 q 617 322 597 362 q 637 224 637 281 m 199 -288 q 222 -191 209 -255 q 241 -85 236 -128 l 432 -85 l 432 -98 q 320 -307 382 -212 l 199 -307 l 199 -288 "},"Å":{"x_min":0,"x_max":958,"ha":958,"o":"m 731 0 l 659 236 l 298 236 l 226 0 l 0 0 l 349 996 l 606 996 l 958 0 l 731 0 m 609 413 q 497 775 509 733 q 479 842 484 817 q 351 413 456 755 l 609 413 m 650 1063 q 602 945 650 989 q 477 900 553 900 q 355 943 401 900 q 309 1061 309 987 q 355 1178 309 1134 q 477 1222 401 1222 q 601 1177 552 1222 q 650 1063 650 1132 m 543 1061 q 524 1109 543 1092 q 477 1126 506 1126 q 431 1109 449 1126 q 412 1061 412 1092 q 429 1013 412 1031 q 477 996 445 996 q 524 1013 506 996 q 543 1061 543 1031 "},"¸":{"x_min":-25.03125,"x_max":283.5625,"ha":285,"o":"m 283 -170 q 232 -295 283 -256 q 73 -334 181 -334 q -25 -319 21 -334 l -25 -205 q 24 -215 -6 -210 q 71 -220 55 -220 q 120 -177 120 -220 q 8 -104 120 -121 l 61 0 l 192 0 l 173 -42 q 253 -92 223 -58 q 283 -170 283 -126 "},"a":{"x_min":58.328125,"x_max":734.546875,"ha":839,"o":"m 590 0 l 550 102 l 544 102 q 437 11 492 36 q 293 -14 381 -14 q 121 48 183 -14 q 58 226 58 110 q 142 404 58 347 q 397 467 227 461 l 529 472 l 529 505 q 411 620 529 620 q 197 565 320 620 l 128 705 q 419 774 259 774 q 653 707 571 774 q 734 505 734 641 l 734 0 l 590 0 m 529 351 l 449 348 q 314 315 358 345 q 270 224 270 286 q 371 137 270 137 q 485 178 442 137 q 529 288 529 220 l 529 351 "},"Ę":{"x_min":124.796875,"x_max":695.9375,"ha":778,"o":"m 695 0 l 124 0 l 124 992 l 695 992 l 695 819 l 335 819 l 335 602 l 670 602 l 670 429 l 335 429 l 335 173 l 695 173 l 695 0 m 532 -154 q 548 -196 532 -182 q 587 -209 563 -209 q 664 -197 624 -209 l 664 -318 q 559 -334 609 -334 q 436 -290 482 -334 q 389 -177 389 -247 q 415 -92 389 -132 q 511 0 441 -52 l 633 0 q 559 -81 585 -44 q 532 -154 532 -118 "},"=":{"x_min":59.6875,"x_max":733.3125,"ha":793,"o":"m 59 546 l 59 695 l 733 695 l 733 546 l 59 546 m 59 284 l 59 432 l 733 432 l 733 284 l 59 284 "},"ạ":{"x_min":58.328125,"x_max":734.546875,"ha":839,"o":"m 590 0 l 550 102 l 544 102 q 437 11 492 36 q 293 -14 381 -14 q 121 48 183 -14 q 58 226 58 110 q 142 404 58 347 q 397 467 227 461 l 529 472 l 529 505 q 411 620 529 620 q 197 565 320 620 l 128 705 q 419 774 259 774 q 653 707 571 774 q 734 505 734 641 l 734 0 l 590 0 m 529 351 l 449 348 q 314 315 358 345 q 270 224 270 286 q 371 137 270 137 q 485 178 442 137 q 529 288 529 220 l 529 351 m 281 -190 q 394 -89 281 -89 q 506 -190 506 -89 q 478 -265 506 -238 q 394 -291 449 -291 q 281 -190 281 -291 "},"˚":{"x_min":230.734375,"x_max":571.203125,"ha":802,"o":"m 571 1002 q 523 884 571 929 q 398 840 474 840 q 276 883 322 840 q 230 1001 230 926 q 276 1118 230 1074 q 398 1162 322 1162 q 522 1117 473 1162 q 571 1002 571 1072 m 464 1001 q 445 1049 464 1031 q 398 1066 427 1066 q 352 1049 370 1066 q 333 1001 333 1031 q 350 953 333 970 q 398 935 366 935 q 445 953 427 935 q 464 1001 464 970 "},"ú":{"x_min":104.453125,"x_max":804.484375,"ha":913,"o":"m 645 0 l 617 96 l 607 96 q 512 14 573 43 q 373 -14 451 -14 q 172 57 240 -14 q 104 263 104 129 l 104 758 l 311 758 l 311 314 q 340 191 311 232 q 433 150 369 150 q 558 208 520 150 q 597 401 597 266 l 597 758 l 804 758 l 804 0 l 645 0 m 338 842 l 338 860 q 497 1064 454 995 l 729 1064 l 729 1049 q 609 945 694 1014 q 475 842 523 875 l 338 842 "},"¯":{"x_min":-4.0625,"x_max":699.0625,"ha":695,"o":"m 699 1055 l -4 1055 l -4 1191 l 699 1191 l 699 1055 "},"Z":{"x_min":33.21875,"x_max":770.78125,"ha":804,"o":"m 770 0 l 33 0 l 33 136 l 508 818 l 46 818 l 46 992 l 757 992 l 757 856 l 283 173 l 770 173 l 770 0 "}," ":{"x_min":0,"x_max":0,"ha":232},"u":{"x_min":104.453125,"x_max":804.484375,"ha":913,"o":"m 645 0 l 617 96 l 607 96 q 512 14 573 43 q 373 -14 451 -14 q 172 57 240 -14 q 104 263 104 129 l 104 758 l 311 758 l 311 314 q 340 191 311 232 q 433 150 369 150 q 558 208 520 150 q 597 401 597 266 l 597 758 l 804 758 l 804 0 l 645 0 "},"k":{"x_min":108.515625,"x_max":861,"ha":861,"o":"m 307 412 l 397 527 l 609 758 l 842 758 l 541 429 l 861 0 l 622 0 l 404 307 l 315 235 l 315 0 l 108 0 l 108 1055 l 315 1055 l 315 584 l 304 412 l 307 412 "},"Ù":{"x_min":118.015625,"x_max":931.984375,"ha":1050,"o":"m 931 992 l 931 349 q 882 157 931 239 q 740 30 833 74 q 520 -14 647 -14 q 223 84 329 -14 q 118 352 118 182 l 118 992 l 327 992 l 327 384 q 373 215 327 269 q 526 162 419 162 q 675 216 629 162 q 722 385 722 270 l 722 992 l 931 992 m 508 1071 q 383 1167 465 1100 q 254 1278 300 1234 l 254 1293 l 486 1293 q 645 1089 528 1224 l 645 1071 l 508 1071 "},"ẻ":{"x_min":62.390625,"x_max":761.3125,"ha":821,"o":"m 422 625 q 319 583 356 625 q 276 465 282 542 l 567 465 q 527 583 565 542 q 422 625 488 625 m 451 -14 q 165 87 268 -14 q 62 373 62 188 q 157 668 62 564 q 421 773 253 773 q 671 681 582 773 q 761 427 761 589 l 761 327 l 271 327 q 324 189 275 239 q 461 139 373 139 q 590 154 529 139 q 718 199 652 168 l 718 39 q 602 0 664 12 q 451 -14 540 -14 m 604 1008 q 494 875 604 902 l 487 827 l 369 827 l 354 926 q 423 951 404 934 q 441 994 441 969 q 427 1027 441 1016 q 389 1039 413 1039 q 295 1023 345 1039 l 295 1137 q 351 1148 316 1144 q 415 1153 387 1153 q 557 1115 510 1153 q 604 1008 604 1077 "},"ẵ":{"x_min":58.328125,"x_max":734.546875,"ha":839,"o":"m 590 0 l 550 102 l 544 102 q 437 11 492 36 q 293 -14 381 -14 q 121 48 183 -14 q 58 226 58 110 q 142 404 58 347 q 397 467 227 461 l 529 472 l 529 505 q 411 620 529 620 q 197 565 320 620 l 128 705 q 419 774 259 774 q 653 707 571 774 q 734 505 734 641 l 734 0 l 590 0 m 529 351 l 449 348 q 314 315 358 345 q 270 224 270 286 q 371 137 270 137 q 485 178 442 137 q 529 288 529 220 l 529 351 m 277 1043 q 317 979 281 1003 q 420 955 353 955 q 563 1043 553 955 l 664 1043 q 595 893 658 944 q 421 842 533 842 q 245 895 311 842 q 172 1043 180 949 l 277 1043 m 524 1076 q 474 1084 499 1076 q 424 1103 448 1093 q 377 1122 399 1113 q 335 1130 354 1130 q 292 1118 306 1130 q 270 1075 279 1106 l 193 1075 q 233 1183 199 1142 q 328 1225 266 1225 q 379 1216 353 1225 q 430 1196 406 1207 q 477 1177 454 1186 q 517 1168 499 1168 q 558 1181 545 1168 q 582 1226 572 1193 l 659 1226 q 616 1114 651 1152 q 524 1076 581 1076 "},"Ů":{"x_min":118.015625,"x_max":931.984375,"ha":1050,"o":"m 931 992 l 931 349 q 882 157 931 239 q 740 30 833 74 q 520 -14 647 -14 q 223 84 329 -14 q 118 352 118 182 l 118 992 l 327 992 l 327 384 q 373 215 327 269 q 526 162 419 162 q 675 216 629 162 q 722 385 722 270 l 722 992 l 931 992 m 696 1231 q 648 1113 696 1158 q 523 1069 599 1069 q 401 1112 447 1069 q 355 1230 355 1155 q 401 1347 355 1303 q 523 1391 447 1391 q 647 1346 598 1391 q 696 1231 696 1301 m 589 1230 q 570 1278 589 1260 q 523 1295 552 1295 q 477 1278 495 1295 q 458 1230 458 1260 q 475 1182 458 1199 q 523 1164 491 1164 q 570 1182 552 1164 q 589 1230 589 1199 "},"¢":{"x_min":97,"x_max":705.484375,"ha":793,"o":"m 381 119 q 97 502 97 159 q 167 776 97 679 q 381 893 238 872 l 381 1006 l 502 1006 l 502 899 q 705 848 615 892 l 644 689 q 553 721 595 709 q 469 733 511 733 q 347 676 387 733 q 308 504 308 620 q 469 282 308 282 q 569 292 525 282 q 682 333 614 303 l 682 161 q 502 114 596 120 l 502 -14 l 381 -14 l 381 119 "},"ữ":{"x_min":104.453125,"x_max":1119.875,"ha":1055,"o":"m 645 0 l 617 96 l 605 96 q 512 15 573 44 q 373 -14 451 -14 q 172 57 240 -14 q 104 263 104 129 l 104 758 l 311 758 l 311 314 q 340 191 311 232 q 433 150 369 150 q 558 208 520 150 q 597 401 597 266 l 597 758 l 804 758 l 804 679 q 879 743 852 693 q 905 872 905 793 l 1109 872 l 1119 857 q 1061 694 1098 751 q 962 602 1024 637 q 804 554 900 568 l 804 0 l 645 0 m 913 0 l 913 0 m 344 913 q 304 894 323 913 q 276 840 285 876 l 175 840 q 231 994 182 938 q 359 1050 279 1050 q 414 1038 387 1050 q 467 1014 441 1027 q 518 989 493 1000 q 568 978 543 978 q 608 996 589 978 q 636 1051 627 1014 l 737 1051 q 681 896 730 952 q 553 841 631 841 q 498 852 525 841 q 445 877 471 863 q 394 901 419 890 q 344 913 369 913 "},"Ş":{"x_min":63.75,"x_max":710.0625,"ha":765,"o":"m 710 275 q 613 63 710 140 q 344 -14 516 -14 q 63 45 185 -14 l 63 241 q 233 177 164 196 q 360 159 303 159 q 466 186 429 159 q 503 264 503 212 q 487 316 503 294 q 439 360 471 339 q 311 427 408 381 q 174 509 220 470 q 102 601 129 549 q 75 723 75 653 q 164 930 75 855 q 410 1006 253 1006 q 558 987 488 1006 q 705 936 628 969 l 637 772 q 506 818 558 805 q 404 831 454 831 q 312 803 344 831 q 280 730 280 775 q 293 682 280 702 q 334 641 306 661 q 467 572 362 622 q 658 438 606 505 q 710 275 710 372 m 523 -170 q 472 -295 523 -256 q 313 -334 421 -334 q 214 -319 261 -334 l 214 -205 q 264 -215 233 -210 q 311 -220 295 -220 q 360 -177 360 -220 q 248 -104 360 -121 l 301 0 l 432 0 l 413 -42 q 493 -92 463 -58 q 523 -170 523 -126 "},"é":{"x_min":62.390625,"x_max":761.3125,"ha":821,"o":"m 422 625 q 319 583 356 625 q 276 465 282 542 l 567 465 q 527 583 565 542 q 422 625 488 625 m 451 -14 q 165 87 268 -14 q 62 373 62 188 q 157 668 62 564 q 421 773 253 773 q 671 681 582 773 q 761 427 761 589 l 761 327 l 271 327 q 324 189 275 239 q 461 139 373 139 q 590 154 529 139 q 718 199 652 168 l 718 39 q 602 0 664 12 q 451 -14 540 -14 m 303 842 l 303 860 q 462 1064 419 995 l 694 1064 l 694 1049 q 574 945 659 1014 q 440 842 488 875 l 303 842 "},"B":{"x_min":124.796875,"x_max":859.75,"ha":933,"o":"m 124 992 l 433 992 q 739 931 644 992 q 834 740 834 871 q 792 594 834 651 q 682 526 751 537 l 682 519 q 818 440 776 498 q 859 287 859 383 q 761 75 859 151 q 495 0 663 0 l 124 0 l 124 992 m 335 599 l 457 599 q 580 625 542 599 q 619 713 619 651 q 577 794 619 770 q 445 819 535 819 l 335 819 l 335 599 m 335 432 l 335 173 l 471 173 q 600 206 558 173 q 641 308 641 240 q 465 432 641 432 l 335 432 "},"…":{"x_min":79.359375,"x_max":1107.734375,"ha":1188,"o":"m 79 97 q 109 183 79 154 q 198 212 140 212 q 285 182 255 212 q 316 97 316 152 q 285 12 316 43 q 198 -18 254 -18 q 110 12 141 -18 q 79 97 79 42 m 474 97 q 504 183 474 154 q 594 212 535 212 q 681 182 650 212 q 712 97 712 152 q 681 12 712 43 q 594 -18 650 -18 q 505 12 536 -18 q 474 97 474 42 m 870 97 q 900 183 870 154 q 989 212 931 212 q 1076 182 1046 212 q 1107 97 1107 152 q 1076 12 1107 43 q 989 -18 1045 -18 q 901 12 932 -18 q 870 97 870 42 "},"Ủ":{"x_min":118.015625,"x_max":931.984375,"ha":1050,"o":"m 931 992 l 931 349 q 882 157 931 239 q 740 30 833 74 q 520 -14 647 -14 q 223 84 329 -14 q 118 352 118 182 l 118 992 l 327 992 l 327 384 q 373 215 327 269 q 526 162 419 162 q 675 216 629 162 q 722 385 722 270 l 722 992 l 931 992 m 693 1237 q 583 1104 693 1131 l 576 1056 l 458 1056 l 443 1155 q 512 1180 493 1163 q 530 1223 530 1198 q 516 1256 530 1245 q 478 1268 502 1268 q 384 1252 434 1268 l 384 1366 q 440 1377 405 1373 q 504 1382 476 1382 q 646 1344 599 1382 q 693 1237 693 1306 "},"ē":{"x_min":62.390625,"x_max":761.3125,"ha":821,"o":"m 422 625 q 319 583 356 625 q 276 465 282 542 l 567 465 q 527 583 565 542 q 422 625 488 625 m 451 -14 q 165 87 268 -14 q 62 373 62 188 q 157 668 62 564 q 421 773 253 773 q 671 681 582 773 q 761 427 761 589 l 761 327 l 271 327 q 324 189 275 239 q 461 139 373 139 q 590 154 529 139 q 718 199 652 168 l 718 39 q 602 0 664 12 q 451 -14 540 -14 m 188 985 l 648 985 l 648 842 l 188 842 l 188 985 "},"H":{"x_min":124.796875,"x_max":937.515625,"ha":1063,"o":"m 937 0 l 727 0 l 727 428 l 335 428 l 335 0 l 124 0 l 124 992 l 335 992 l 335 603 l 727 603 l 727 992 l 937 992 l 937 0 "},"î":{"x_min":-82.859375,"x_max":506.515625,"ha":424,"o":"m 315 0 l 108 0 l 108 758 l 315 758 l 315 0 m 368 842 q 210 960 262 904 q 54 842 157 906 l -82 842 l -82 860 q 90 1064 45 988 l 332 1064 q 405 968 353 1028 q 506 860 457 907 l 506 842 l 368 842 "},"ư":{"x_min":104.453125,"x_max":1119.875,"ha":1055,"o":"m 645 0 l 617 96 l 605 96 q 512 15 573 44 q 373 -14 451 -14 q 172 57 240 -14 q 104 263 104 129 l 104 758 l 311 758 l 311 314 q 340 191 311 232 q 433 150 369 150 q 558 208 520 150 q 597 401 597 266 l 597 758 l 804 758 l 804 679 q 879 743 852 693 q 905 872 905 793 l 1109 872 l 1119 857 q 1061 694 1098 751 q 962 602 1024 637 q 804 554 900 568 l 804 0 l 645 0 m 913 0 l 913 0 "},"Ẹ":{"x_min":124.796875,"x_max":695.9375,"ha":778,"o":"m 695 0 l 124 0 l 124 992 l 695 992 l 695 819 l 335 819 l 335 602 l 670 602 l 670 429 l 335 429 l 335 173 l 695 173 l 695 0 m 295 -190 q 408 -89 295 -89 q 520 -190 520 -89 q 492 -265 520 -238 q 408 -291 463 -291 q 295 -190 295 -291 "},"‼":{"x_min":79.265625,"x_max":712.640625,"ha":791,"o":"m 678 329 l 512 329 l 477 992 l 712 992 l 678 329 m 475 97 q 505 183 475 154 q 594 212 536 212 q 681 182 650 212 q 712 97 712 152 q 681 12 712 43 q 594 -18 650 -18 q 506 12 537 -18 q 475 97 475 42 m 282 329 l 116 329 l 81 992 l 316 992 l 282 329 m 79 97 q 109 183 79 154 q 198 212 140 212 q 285 182 254 212 q 316 97 316 152 q 285 12 316 43 q 198 -18 254 -18 q 110 12 141 -18 q 79 97 79 42 "},"ǰ":{"x_min":-88.84375,"x_max":505.515625,"ha":424,"o":"m 47 -334 q -88 -317 -31 -334 l -88 -154 q 8 -167 -41 -167 q 84 -137 60 -167 q 108 -51 108 -108 l 108 758 l 315 758 l 315 -82 q 245 -268 315 -203 q 47 -334 175 -334 m 505 1064 l 505 1045 q 400 932 448 988 q 331 842 352 875 l 89 842 q 33 918 70 873 q -83 1045 -3 962 l -83 1064 l 53 1064 q 209 945 153 1001 q 367 1064 266 1003 l 505 1064 "},"¥":{"x_min":4.0625,"x_max":787.578125,"ha":793,"o":"m 396 583 l 575 992 l 787 992 l 527 485 l 660 485 l 660 364 l 493 364 l 493 271 l 660 271 l 660 150 l 493 150 l 493 0 l 298 0 l 298 150 l 130 150 l 130 271 l 298 271 l 298 364 l 130 364 l 130 485 l 259 485 l 4 992 l 218 992 l 396 583 "},"Ĥ":{"x_min":124.796875,"x_max":937.515625,"ha":1063,"o":"m 937 0 l 727 0 l 727 428 l 335 428 l 335 0 l 124 0 l 124 992 l 335 992 l 335 603 l 727 603 l 727 992 l 937 992 l 937 0 m 686 1071 q 528 1189 580 1133 q 372 1071 475 1135 l 235 1071 l 235 1089 q 408 1293 363 1217 l 650 1293 q 723 1197 671 1257 q 824 1089 775 1136 l 824 1071 l 686 1071 "},"U":{"x_min":118.015625,"x_max":931.984375,"ha":1050,"o":"m 931 992 l 931 349 q 882 157 931 239 q 740 30 833 74 q 520 -14 647 -14 q 223 84 329 -14 q 118 352 118 182 l 118 992 l 327 992 l 327 384 q 373 215 327 269 q 526 162 419 162 q 675 216 629 162 q 722 385 722 270 l 722 992 l 931 992 "},"Ñ":{"x_min":124.796875,"x_max":1004.21875,"ha":1129,"o":"m 1004 0 l 737 0 l 305 750 l 299 750 q 312 466 312 551 l 312 0 l 124 0 l 124 992 l 389 992 l 820 249 l 825 249 q 814 522 814 442 l 814 992 l 1004 992 l 1004 0 m 452 1142 q 412 1123 431 1142 q 384 1069 393 1105 l 283 1069 q 339 1223 290 1167 q 467 1279 387 1279 q 522 1267 495 1279 q 575 1243 549 1256 q 626 1218 601 1229 q 676 1207 651 1207 q 716 1225 697 1207 q 744 1280 735 1243 l 845 1280 q 789 1125 838 1181 q 661 1070 739 1070 q 606 1081 633 1070 q 553 1106 579 1092 q 502 1130 527 1119 q 452 1142 477 1142 "},"F":{"x_min":124.796875,"x_max":692.8125,"ha":762,"o":"m 331 0 l 124 0 l 124 992 l 692 992 l 692 819 l 331 819 l 331 564 l 667 564 l 667 392 l 331 392 l 331 0 "},"ả":{"x_min":58.328125,"x_max":734.546875,"ha":839,"o":"m 590 0 l 550 102 l 544 102 q 437 11 492 36 q 293 -14 381 -14 q 121 48 183 -14 q 58 226 58 110 q 142 404 58 347 q 397 467 227 461 l 529 472 l 529 505 q 411 620 529 620 q 197 565 320 620 l 128 705 q 419 774 259 774 q 653 707 571 774 q 734 505 734 641 l 734 0 l 590 0 m 529 351 l 449 348 q 314 315 358 345 q 270 224 270 286 q 371 137 270 137 q 485 178 442 137 q 529 288 529 220 l 529 351 m 593 1008 q 483 875 593 902 l 476 827 l 358 827 l 343 926 q 412 951 393 934 q 430 994 430 969 q 416 1027 430 1016 q 378 1039 402 1039 q 284 1023 334 1039 l 284 1137 q 340 1148 305 1144 q 404 1153 376 1153 q 546 1115 499 1153 q 593 1008 593 1077 "},"ĵ":{"x_min":-88.84375,"x_max":503.515625,"ha":424,"o":"m 47 -334 q -88 -317 -31 -334 l -88 -154 q 8 -167 -41 -167 q 84 -137 60 -167 q 108 -51 108 -108 l 108 758 l 315 758 l 315 -82 q 245 -268 315 -203 q 47 -334 175 -334 m 365 842 q 207 960 259 904 q 51 842 154 906 l -85 842 l -85 860 q 87 1064 42 988 l 329 1064 q 402 968 350 1028 q 503 860 454 907 l 503 842 l 365 842 "},"ā":{"x_min":58.328125,"x_max":734.546875,"ha":839,"o":"m 590 0 l 550 102 l 544 102 q 437 11 492 36 q 293 -14 381 -14 q 121 48 183 -14 q 58 226 58 110 q 142 404 58 347 q 397 467 227 461 l 529 472 l 529 505 q 411 620 529 620 q 197 565 320 620 l 128 705 q 419 774 259 774 q 653 707 571 774 q 734 505 734 641 l 734 0 l 590 0 m 529 351 l 449 348 q 314 315 358 345 q 270 224 270 286 q 371 137 270 137 q 485 178 442 137 q 529 288 529 220 l 529 351 m 198 985 l 658 985 l 658 842 l 198 842 l 198 985 "},"Ĩ":{"x_min":-50.625,"x_max":511.640625,"ha":460,"o":"m 124 0 l 124 992 l 335 992 l 335 0 l 124 0 m 118 1142 q 78 1123 97 1142 q 50 1069 59 1105 l -50 1069 q 5 1223 -43 1167 q 133 1279 53 1279 q 188 1267 161 1279 q 241 1243 215 1256 q 292 1218 267 1229 q 342 1207 317 1207 q 382 1225 363 1207 q 410 1280 401 1243 l 511 1280 q 455 1125 504 1181 q 327 1070 405 1070 q 272 1081 299 1070 q 219 1106 245 1092 q 168 1130 193 1119 q 118 1142 143 1142 "},"ă":{"x_min":58.328125,"x_max":734.546875,"ha":839,"o":"m 590 0 l 550 102 l 544 102 q 437 11 492 36 q 293 -14 381 -14 q 121 48 183 -14 q 58 226 58 110 q 142 404 58 347 q 397 467 227 461 l 529 472 l 529 505 q 411 620 529 620 q 197 565 320 620 l 128 705 q 419 774 259 774 q 653 707 571 774 q 734 505 734 641 l 734 0 l 590 0 m 529 351 l 449 348 q 314 315 358 345 q 270 224 270 286 q 371 137 270 137 q 485 178 442 137 q 529 288 529 220 l 529 351 m 695 1071 q 612 904 687 966 q 425 842 538 842 q 237 903 307 842 q 161 1071 167 965 l 277 1071 q 295 1020 279 1039 q 340 994 311 1002 q 427 986 369 986 q 577 1071 566 986 l 695 1071 "},"*":{"x_min":42.78125,"x_max":714.21875,"ha":757,"o":"m 466 1055 l 438 805 l 691 876 l 714 705 l 483 688 l 634 487 l 480 405 l 375 617 l 282 407 l 122 487 l 272 688 l 42 706 l 69 876 l 316 805 l 288 1055 l 466 1055 "},"†":{"x_min":83.421875,"x_max":633.578125,"ha":717,"o":"m 633 629 l 408 649 l 445 0 l 257 0 l 294 649 l 83 629 l 83 793 l 294 772 l 257 1055 l 445 1055 l 408 772 l 633 793 l 633 629 "},"ờ":{"x_min":62.390625,"x_max":1007.171875,"ha":943,"o":"m 797 380 q 699 90 797 195 q 427 -14 602 -14 q 235 33 318 -14 q 107 171 151 81 q 62 380 62 261 q 159 669 62 566 q 432 773 256 773 q 575 749 508 773 q 691 679 643 726 q 792 873 792 709 l 997 873 l 1007 858 q 959 713 988 767 q 881 624 929 660 q 762 570 833 587 q 797 380 797 485 m 273 380 q 310 209 273 267 q 430 152 347 152 q 549 209 513 152 q 586 380 586 267 q 549 549 586 493 q 429 606 512 606 q 309 550 346 606 q 273 380 273 494 m 860 0 l 860 0 m 417 842 q 292 938 374 871 q 163 1049 209 1005 l 163 1064 l 395 1064 q 554 860 437 995 l 554 842 l 417 842 "},"°":{"x_min":62.453125,"x_max":531.796875,"ha":595,"o":"m 62 771 q 93 887 62 833 q 179 974 124 942 q 297 1006 233 1006 q 414 974 359 1006 q 500 888 468 943 q 531 771 531 833 q 500 653 531 708 q 414 568 468 599 q 297 538 360 538 q 130 605 198 538 q 62 771 62 672 m 192 771 q 222 697 192 727 q 297 666 252 666 q 372 698 341 666 q 402 771 402 729 q 372 845 402 814 q 297 877 341 877 q 222 846 253 877 q 192 771 192 815 "},"å":{"x_min":58.328125,"x_max":734.546875,"ha":839,"o":"m 590 0 l 550 102 l 544 102 q 437 11 492 36 q 293 -14 381 -14 q 121 48 183 -14 q 58 226 58 110 q 142 404 58 347 q 397 467 227 461 l 529 472 l 529 505 q 411 620 529 620 q 197 565 320 620 l 128 705 q 419 774 259 774 q 653 707 571 774 q 734 505 734 641 l 734 0 l 590 0 m 529 351 l 449 348 q 314 315 358 345 q 270 224 270 286 q 371 137 270 137 q 485 178 442 137 q 529 288 529 220 l 529 351 m 599 1002 q 551 884 599 929 q 426 840 502 840 q 304 883 350 840 q 258 1001 258 926 q 304 1118 258 1074 q 426 1162 350 1162 q 550 1117 501 1162 q 599 1002 599 1072 m 492 1001 q 473 1049 492 1031 q 426 1066 455 1066 q 380 1049 398 1066 q 361 1001 361 1031 q 378 953 361 970 q 426 935 394 935 q 473 953 455 935 q 492 1001 492 970 "},"ồ":{"x_min":-21.984375,"x_max":797.609375,"ha":860,"o":"m 273 380 q 310 209 273 267 q 430 152 347 152 q 549 209 513 152 q 586 380 586 267 q 549 549 586 493 q 429 606 512 606 q 309 550 346 606 q 273 380 273 494 m 797 380 q 699 90 797 195 q 427 -14 602 -14 q 235 33 318 -14 q 107 171 151 81 q 62 380 62 261 q 159 669 62 566 q 432 773 256 773 q 624 725 541 773 q 752 588 708 677 q 797 380 797 500 m 175 860 q 321 1050 251 948 l 535 1050 q 611 945 568 1001 q 681 860 654 890 l 681 842 l 571 842 q 428 954 505 886 q 285 842 356 889 l 175 842 l 175 860 m 235 974 l 132 974 q -21 1113 21 1054 l -21 1128 l 142 1128 q 235 991 178 1052 l 235 974 "},"0":{"x_min":50.203125,"x_max":743.484375,"ha":793,"o":"m 743 495 q 658 110 743 235 q 396 -14 573 -14 q 137 114 224 -14 q 50 495 50 243 q 135 882 50 758 q 396 1007 219 1007 q 655 876 567 1007 q 743 495 743 746 m 258 495 q 289 233 258 312 q 396 154 321 154 q 502 234 469 154 q 534 495 534 315 q 501 757 534 677 q 396 837 468 837 q 290 757 322 837 q 258 495 258 677 "},"ō":{"x_min":62.390625,"x_max":797.609375,"ha":860,"o":"m 273 380 q 310 209 273 267 q 430 152 347 152 q 549 209 513 152 q 586 380 586 267 q 549 549 586 493 q 429 606 512 606 q 309 550 346 606 q 273 380 273 494 m 797 380 q 699 90 797 195 q 427 -14 602 -14 q 235 33 318 -14 q 107 171 151 81 q 62 380 62 261 q 159 669 62 566 q 432 773 256 773 q 624 725 541 773 q 752 588 708 677 q 797 380 797 500 m 199 985 l 659 985 l 659 842 l 199 842 l 199 985 "},"”":{"x_min":16.953125,"x_max":601.84375,"ha":618,"o":"m 284 977 q 165 652 250 843 l 16 652 q 84 992 63 852 l 275 992 l 284 977 m 601 977 q 482 652 567 843 l 333 652 q 401 992 380 852 l 591 992 l 601 977 "},"ŵ":{"x_min":13.5625,"x_max":1175.4375,"ha":1189,"o":"m 731 0 l 673 265 l 594 600 l 590 600 l 451 0 l 229 0 l 13 758 l 219 758 l 307 422 q 349 173 328 332 l 354 173 q 377 336 356 225 l 388 394 l 482 758 l 710 758 l 799 394 q 807 350 801 379 q 818 288 813 321 q 828 224 824 255 q 833 173 832 192 l 837 173 q 859 307 843 222 q 881 422 874 392 l 972 758 l 1175 758 l 957 0 l 731 0 m 751 842 q 593 960 645 904 q 437 842 540 906 l 300 842 l 300 860 q 473 1064 428 988 l 715 1064 q 788 968 736 1028 q 889 860 840 907 l 889 842 l 751 842 "},"Ķ":{"x_min":124.796875,"x_max":922,"ha":922,"o":"m 922 0 l 683 0 l 423 418 l 335 354 l 335 0 l 124 0 l 124 992 l 335 992 l 335 538 l 417 654 l 685 992 l 919 992 l 573 553 l 922 0 m 343 -288 q 366 -191 353 -255 q 385 -85 380 -128 l 576 -85 l 576 -98 q 464 -307 526 -212 l 343 -307 l 343 -288 "},"ö":{"x_min":62.390625,"x_max":797.609375,"ha":860,"o":"m 273 380 q 310 209 273 267 q 430 152 347 152 q 549 209 513 152 q 586 380 586 267 q 549 549 586 493 q 429 606 512 606 q 309 550 346 606 q 273 380 273 494 m 797 380 q 699 90 797 195 q 427 -14 602 -14 q 235 33 318 -14 q 107 171 151 81 q 62 380 62 261 q 159 669 62 566 q 432 773 256 773 q 624 725 541 773 q 752 588 708 677 q 797 380 797 500 m 197 953 q 222 1021 197 997 q 291 1044 248 1044 q 361 1019 336 1044 q 387 953 387 994 q 361 887 387 912 q 291 863 335 863 q 222 886 248 863 q 197 953 197 910 m 470 953 q 497 1022 470 1000 q 565 1044 525 1044 q 636 1020 609 1044 q 662 953 662 995 q 635 887 662 911 q 565 863 609 863 q 497 885 525 863 q 470 953 470 907 "},"ǽ":{"x_min":58.328125,"x_max":1214.3125,"ha":1274,"o":"m 901 -14 q 732 20 808 -14 q 607 125 656 54 q 473 16 540 46 q 299 -14 407 -14 q 124 50 190 -14 q 58 226 58 114 q 140 404 58 347 q 386 467 222 461 l 515 472 l 515 529 q 485 598 515 575 q 402 620 455 620 q 196 568 308 620 l 128 705 q 415 774 257 774 q 647 685 569 774 q 750 750 691 728 q 890 773 809 773 q 1127 679 1040 773 q 1214 427 1214 586 l 1214 327 l 723 327 q 776 189 727 239 q 913 139 824 139 q 1170 199 1046 139 l 1170 39 q 1054 0 1117 13 q 901 -14 992 -14 m 515 351 l 438 348 q 312 316 354 345 q 270 224 270 286 q 365 137 270 137 q 474 178 434 137 q 515 288 515 220 l 515 351 m 886 625 q 727 465 739 625 l 1019 465 q 982 583 1018 541 q 886 625 946 625 m 540 842 l 540 860 q 699 1064 656 995 l 931 1064 l 931 1049 q 811 945 896 1014 q 677 842 725 875 l 540 842 "},"Ļ":{"x_min":124.796875,"x_max":737.53125,"ha":785,"o":"m 124 0 l 124 992 l 335 992 l 335 173 l 737 173 l 737 0 l 124 0 m 287 -288 q 310 -191 297 -255 q 329 -85 324 -128 l 520 -85 l 520 -98 q 408 -307 470 -212 l 287 -307 l 287 -288 "},"Õ":{"x_min":80.703125,"x_max":1025.296875,"ha":1106,"o":"m 1025 496 q 903 118 1025 250 q 553 -14 781 -14 q 202 118 325 -14 q 80 498 80 250 q 203 876 80 745 q 554 1007 325 1007 q 904 875 783 1007 q 1025 496 1025 743 m 301 496 q 364 246 301 330 q 553 162 427 162 q 804 496 804 162 q 554 832 804 832 q 364 747 428 832 q 301 496 301 663 m 441 1142 q 401 1123 420 1142 q 373 1069 382 1105 l 272 1069 q 328 1223 279 1167 q 456 1279 376 1279 q 511 1267 484 1279 q 564 1243 538 1256 q 615 1218 590 1229 q 665 1207 640 1207 q 705 1225 686 1207 q 733 1280 724 1243 l 834 1280 q 778 1125 827 1181 q 650 1070 728 1070 q 595 1081 622 1070 q 542 1106 568 1092 q 491 1130 516 1119 q 441 1142 466 1142 "},"ć":{"x_min":62.390625,"x_max":691.484375,"ha":714,"o":"m 416 -14 q 62 375 62 -14 q 158 670 62 568 q 434 773 254 773 q 670 721 566 773 l 609 561 q 518 593 560 581 q 434 606 476 606 q 273 376 273 606 q 434 153 273 153 q 545 169 494 153 q 646 219 596 185 l 646 42 q 545 -1 596 10 q 416 -14 494 -14 m 300 842 l 300 860 q 459 1064 416 995 l 691 1064 l 691 1049 q 571 945 656 1014 q 437 842 485 875 l 300 842 "},"þ":{"x_min":108.515625,"x_max":816.59375,"ha":879,"o":"m 315 660 q 404 744 349 715 q 530 773 459 773 q 740 668 664 773 q 816 380 816 563 q 740 90 816 195 q 530 -14 665 -14 q 315 79 385 -14 l 305 79 l 310 36 l 315 -26 l 315 -334 l 108 -334 l 108 1055 l 315 1055 l 315 790 l 310 709 l 305 660 l 315 660 m 463 607 q 352 560 387 607 q 315 404 316 513 l 315 381 q 351 206 315 259 q 466 153 387 153 q 605 383 605 153 q 571 551 605 495 q 463 607 537 607 "},"]":{"x_min":34.59375,"x_max":362.984375,"ha":460,"o":"m 34 -76 l 185 -76 l 185 848 l 34 848 l 34 992 l 362 992 l 362 -220 l 34 -220 l 34 -76 "},"′":{"x_min":90.203125,"x_max":279.421875,"ha":370,"o":"m 279 992 l 251 634 l 118 634 l 90 992 l 279 992 "},"ẁ":{"x_min":13.5625,"x_max":1175.4375,"ha":1189,"o":"m 731 0 l 673 265 l 594 600 l 590 600 l 451 0 l 229 0 l 13 758 l 219 758 l 307 422 q 349 173 328 332 l 354 173 q 377 336 356 225 l 388 394 l 482 758 l 710 758 l 799 394 q 807 350 801 379 q 818 288 813 321 q 828 224 824 255 q 833 173 832 192 l 837 173 q 859 307 843 222 q 881 422 874 392 l 972 758 l 1175 758 l 957 0 l 731 0 m 571 842 q 446 938 528 871 q 317 1049 363 1005 l 317 1064 l 549 1064 q 708 860 591 995 l 708 842 l 571 842 "},"ệ":{"x_min":62.390625,"x_max":761.3125,"ha":821,"o":"m 422 625 q 319 583 356 625 q 276 465 282 542 l 567 465 q 527 583 565 542 q 422 625 488 625 m 451 -14 q 165 87 268 -14 q 62 373 62 188 q 157 668 62 564 q 421 773 253 773 q 671 681 582 773 q 761 427 761 589 l 761 327 l 271 327 q 324 189 275 239 q 461 139 373 139 q 590 154 529 139 q 718 199 652 168 l 718 39 q 602 0 664 12 q 451 -14 540 -14 m 568 842 q 410 960 462 904 q 254 842 357 906 l 117 842 l 117 860 q 290 1064 245 988 l 532 1064 q 605 968 553 1028 q 706 860 657 907 l 706 842 l 568 842 m 296 -189 q 409 -88 296 -88 q 521 -189 521 -88 q 493 -264 521 -237 q 409 -290 464 -290 q 296 -189 296 -290 "},"ĭ":{"x_min":-55.046875,"x_max":478.71875,"ha":424,"o":"m 315 0 l 108 0 l 108 758 l 315 758 l 315 0 m 478 1071 q 395 904 470 966 q 208 842 321 842 q 20 903 90 842 q -55 1071 -49 965 l 60 1071 q 78 1020 62 1039 q 123 994 94 1002 q 210 986 152 986 q 360 1071 349 986 l 478 1071 "},"8":{"x_min":48.84375,"x_max":744.84375,"ha":793,"o":"m 397 1004 q 627 939 539 1004 q 714 764 714 874 q 672 629 714 688 q 536 523 630 569 q 696 398 647 463 q 744 256 744 333 q 649 60 744 134 q 397 -14 553 -14 q 141 55 234 -14 q 48 251 48 124 q 93 401 48 335 q 238 517 139 467 q 116 632 153 571 q 79 765 79 693 q 167 938 79 872 q 397 1004 255 1004 m 242 263 q 283 172 242 205 q 394 139 324 139 q 511 173 472 139 q 550 262 550 207 q 511 347 550 307 q 387 431 473 386 q 242 263 242 365 m 396 850 q 309 823 342 850 q 276 749 276 795 q 302 676 276 708 q 397 610 328 644 q 490 674 464 641 q 516 749 516 706 q 483 823 516 796 q 396 850 449 850 "},"Ữ":{"x_min":118.015625,"x_max":1243.296875,"ha":1229,"o":"m 931 992 l 931 864 q 1005 932 982 881 q 1029 1056 1029 983 l 1233 1056 l 1243 1041 q 1185 879 1221 936 q 1087 787 1149 822 q 931 739 1025 752 l 931 349 q 882 157 931 239 q 740 30 833 74 q 520 -14 647 -14 q 223 84 329 -14 q 118 352 118 182 l 118 992 l 327 992 l 327 368 q 375 212 327 262 q 526 162 423 162 q 675 214 629 162 q 722 369 722 266 l 722 992 l 931 992 m 1050 0 l 1050 0 m 413 1142 q 373 1123 392 1142 q 345 1069 354 1105 l 244 1069 q 300 1223 251 1167 q 428 1279 348 1279 q 483 1267 456 1279 q 536 1243 510 1256 q 587 1218 562 1229 q 637 1207 612 1207 q 677 1225 658 1207 q 705 1280 696 1243 l 806 1280 q 750 1125 799 1181 q 622 1070 700 1070 q 567 1081 594 1070 q 514 1106 540 1092 q 463 1130 488 1119 q 413 1142 438 1142 "},"R":{"x_min":124.796875,"x_max":917,"ha":917,"o":"m 335 552 l 402 552 q 550 585 502 552 q 597 689 597 618 q 549 789 597 760 q 398 819 500 819 l 335 819 l 335 552 m 335 381 l 335 0 l 124 0 l 124 992 l 413 992 q 712 918 615 992 q 809 695 809 844 q 761 539 809 607 q 625 432 713 471 q 917 0 849 97 l 683 0 l 446 381 l 335 381 "},"ť":{"x_min":31.890625,"x_max":653.859375,"ha":603,"o":"m 427 150 q 558 174 482 150 l 558 20 q 368 -14 480 -14 q 187 48 244 -14 q 130 237 130 111 l 130 602 l 31 602 l 31 690 l 145 759 l 205 919 l 337 919 l 337 758 l 550 758 l 550 602 l 337 602 l 337 236 q 362 171 337 192 q 427 150 387 150 m 420 864 q 443 961 430 898 q 462 1069 457 1025 l 653 1069 l 653 1055 q 541 847 599 936 l 420 847 l 420 864 "},"Ľ":{"x_min":124.796875,"x_max":737.53125,"ha":785,"o":"m 124 0 l 124 992 l 335 992 l 335 173 l 737 173 l 737 0 l 124 0 m 490 787 q 513 884 500 821 q 532 992 527 948 l 723 992 l 723 978 q 611 770 669 859 l 490 770 l 490 787 "},"Ż":{"x_min":33.21875,"x_max":770.78125,"ha":804,"o":"m 770 0 l 33 0 l 33 136 l 508 818 l 46 818 l 46 992 l 757 992 l 757 856 l 283 173 l 770 173 l 770 0 m 288 1183 q 401 1284 288 1284 q 513 1183 513 1284 q 485 1108 513 1135 q 401 1082 457 1082 q 288 1183 288 1082 "},"o":{"x_min":62.390625,"x_max":797.609375,"ha":860,"o":"m 273 380 q 310 209 273 267 q 430 152 347 152 q 549 209 513 152 q 586 380 586 267 q 549 549 586 493 q 429 606 512 606 q 309 550 346 606 q 273 380 273 494 m 797 380 q 699 90 797 195 q 427 -14 602 -14 q 235 33 318 -14 q 107 171 151 81 q 62 380 62 261 q 159 669 62 566 q 432 773 256 773 q 624 725 541 773 q 752 588 708 677 q 797 380 797 500 "},"5":{"x_min":67.828125,"x_max":730.59375,"ha":793,"o":"m 416 634 q 645 553 560 634 q 730 331 730 472 q 628 75 730 165 q 335 -14 525 -14 q 67 39 169 -14 l 67 220 q 192 174 121 192 q 327 156 263 156 q 519 314 519 156 q 320 464 519 464 q 241 457 284 464 q 170 441 198 450 l 87 486 l 124 992 l 662 992 l 662 814 l 308 814 l 290 619 l 314 624 q 416 634 355 634 "},"ħ":{"x_min":2.71875,"x_max":808.546875,"ha":913,"o":"m 808 0 l 601 0 l 601 401 q 479 565 601 565 q 354 505 393 565 q 315 315 315 446 l 315 0 l 108 0 l 108 811 l 2 811 l 2 946 l 108 946 l 108 1055 l 315 1055 l 315 946 l 529 946 l 529 811 l 315 811 l 315 798 q 305 618 315 742 l 318 618 q 537 730 387 730 q 740 658 671 730 q 808 452 808 587 l 808 0 "},"õ":{"x_min":62.390625,"x_max":797.609375,"ha":860,"o":"m 273 380 q 310 209 273 267 q 430 152 347 152 q 549 209 513 152 q 586 380 586 267 q 549 549 586 493 q 429 606 512 606 q 309 550 346 606 q 273 380 273 494 m 797 380 q 699 90 797 195 q 427 -14 602 -14 q 235 33 318 -14 q 107 171 151 81 q 62 380 62 261 q 159 669 62 566 q 432 773 256 773 q 624 725 541 773 q 752 588 708 677 q 797 380 797 500 m 317 913 q 277 894 296 913 q 249 840 258 876 l 148 840 q 204 994 155 938 q 332 1050 252 1050 q 387 1038 360 1050 q 440 1014 414 1027 q 491 989 466 1000 q 541 978 516 978 q 581 996 562 978 q 609 1051 600 1014 l 710 1051 q 654 896 703 952 q 526 841 604 841 q 471 852 498 841 q 418 877 444 863 q 367 901 392 890 q 317 913 342 913 "},"ẫ":{"x_min":58.328125,"x_max":734.546875,"ha":839,"o":"m 590 0 l 550 102 l 544 102 q 437 11 492 36 q 293 -14 381 -14 q 121 48 183 -14 q 58 226 58 110 q 142 404 58 347 q 397 467 227 461 l 529 472 l 529 505 q 411 620 529 620 q 197 565 320 620 l 128 705 q 419 774 259 774 q 653 707 571 774 q 734 505 734 641 l 734 0 l 590 0 m 529 351 l 449 348 q 314 315 358 345 q 270 224 270 286 q 371 137 270 137 q 485 178 442 137 q 529 288 529 220 l 529 351 m 518 1063 q 468 1071 493 1063 q 418 1090 442 1080 q 371 1109 393 1100 q 329 1118 348 1118 q 287 1106 302 1118 q 264 1062 273 1095 l 187 1062 q 230 1181 193 1137 q 322 1226 266 1226 q 373 1217 347 1226 q 424 1197 400 1208 q 471 1178 448 1187 q 511 1169 493 1169 q 552 1181 539 1169 q 576 1227 566 1194 l 653 1227 q 608 1105 644 1148 q 518 1063 572 1063 m 672 842 l 576 842 q 419 945 480 890 q 262 842 363 895 l 166 842 l 166 860 q 326 1037 282 971 l 512 1037 q 588 945 545 990 q 672 860 632 900 l 672 842 "},",":{"x_min":42.734375,"x_max":311.296875,"ha":403,"o":"m 311 145 q 191 -179 276 8 l 42 -179 q 111 161 86 1 l 301 161 l 311 145 "},"d":{"x_min":62.390625,"x_max":771.15625,"ha":879,"o":"m 348 -14 q 138 89 215 -14 q 62 377 62 193 q 140 668 62 564 q 354 773 217 773 q 572 661 497 773 l 579 661 q 563 812 563 746 l 563 1055 l 771 1055 l 771 0 l 612 0 l 572 98 l 563 98 q 348 -14 493 -14 m 421 150 q 537 197 500 150 q 577 354 574 243 l 577 376 q 540 551 577 498 q 417 604 502 604 q 310 546 348 604 q 271 375 271 487 q 310 206 271 262 q 421 150 349 150 "},"\"":{"x_min":90.203125,"x_max":565.4375,"ha":656,"o":"m 279 992 l 251 634 l 118 634 l 90 992 l 279 992 m 565 992 l 537 634 l 404 634 l 376 992 l 565 992 "},"˙":{"x_min":99.71875,"x_max":324.890625,"ha":424,"o":"m 99 954 q 212 1055 99 1055 q 324 954 324 1055 q 296 879 324 906 q 212 853 268 853 q 99 954 99 853 "},"ê":{"x_min":62.390625,"x_max":761.3125,"ha":821,"o":"m 422 625 q 319 583 356 625 q 276 465 282 542 l 567 465 q 527 583 565 542 q 422 625 488 625 m 451 -14 q 165 87 268 -14 q 62 373 62 188 q 157 668 62 564 q 421 773 253 773 q 671 681 582 773 q 761 427 761 589 l 761 327 l 271 327 q 324 189 275 239 q 461 139 373 139 q 590 154 529 139 q 718 199 652 168 l 718 39 q 602 0 664 12 q 451 -14 540 -14 m 582 842 q 424 960 476 904 q 268 842 371 906 l 131 842 l 131 860 q 304 1064 259 988 l 546 1064 q 619 968 567 1028 q 720 860 671 907 l 720 842 l 582 842 "},"″":{"x_min":90.203125,"x_max":565.4375,"ha":656,"o":"m 279 992 l 251 634 l 118 634 l 90 992 l 279 992 m 565 992 l 537 634 l 404 634 l 376 992 l 565 992 "},"„":{"x_min":42.734375,"x_max":628.3125,"ha":720,"o":"m 311 145 q 191 -179 276 8 l 42 -179 q 111 161 86 1 l 301 161 l 311 145 m 628 145 q 508 -179 593 8 l 359 -179 q 428 161 403 1 l 618 161 l 628 145 "},"ľ":{"x_min":108.515625,"x_max":610.859375,"ha":424,"o":"m 315 0 l 108 0 l 108 1055 l 315 1055 l 315 0 m 377 850 q 400 947 387 884 q 419 1055 414 1011 l 610 1055 l 610 1041 q 498 833 556 922 l 377 833 l 377 850 "},"Â":{"x_min":0,"x_max":958,"ha":958,"o":"m 731 0 l 659 236 l 298 236 l 226 0 l 0 0 l 349 996 l 606 996 l 958 0 l 731 0 m 609 413 q 497 775 509 733 q 479 842 484 817 q 351 413 456 755 l 609 413 m 635 1071 q 477 1189 529 1133 q 321 1071 424 1135 l 184 1071 l 184 1089 q 357 1293 312 1217 l 599 1293 q 672 1197 620 1257 q 773 1089 724 1136 l 773 1071 l 635 1071 "},"Į":{"x_min":74.78125,"x_max":349.9375,"ha":460,"o":"m 124 0 l 124 992 l 335 992 l 335 0 l 124 0 m 217 -154 q 233 -196 217 -182 q 272 -209 248 -209 q 349 -197 309 -209 l 349 -318 q 244 -334 294 -334 q 121 -290 167 -334 q 74 -177 74 -247 q 100 -92 74 -132 q 196 0 126 -52 l 318 0 q 244 -81 270 -44 q 217 -154 217 -118 "},"ė":{"x_min":62.390625,"x_max":761.3125,"ha":821,"o":"m 422 625 q 319 583 356 625 q 276 465 282 542 l 567 465 q 527 583 565 542 q 422 625 488 625 m 451 -14 q 165 87 268 -14 q 62 373 62 188 q 157 668 62 564 q 421 773 253 773 q 671 681 582 773 q 761 427 761 589 l 761 327 l 271 327 q 324 189 275 239 q 461 139 373 139 q 590 154 529 139 q 718 199 652 168 l 718 39 q 602 0 664 12 q 451 -14 540 -14 m 315 954 q 428 1055 315 1055 q 540 954 540 1055 q 512 879 540 906 q 428 853 484 853 q 315 954 315 853 "},"ề":{"x_min":-21.984375,"x_max":761.3125,"ha":821,"o":"m 422 625 q 319 583 356 625 q 276 465 282 542 l 567 465 q 527 583 565 542 q 422 625 488 625 m 451 -14 q 165 87 268 -14 q 62 373 62 188 q 157 668 62 564 q 421 773 253 773 q 671 681 582 773 q 761 427 761 589 l 761 327 l 271 327 q 324 189 275 239 q 461 139 373 139 q 590 154 529 139 q 718 199 652 168 l 718 39 q 602 0 664 12 q 451 -14 540 -14 m 175 860 q 321 1050 251 948 l 535 1050 q 611 945 568 1001 q 681 860 654 890 l 681 842 l 571 842 q 428 954 505 886 q 285 842 356 889 l 175 842 l 175 860 m 235 974 l 132 974 q -21 1113 21 1054 l -21 1128 l 142 1128 q 235 991 178 1052 l 235 974 "},"Ţ":{"x_min":27.671875,"x_max":776.421875,"ha":804,"o":"m 507 0 l 296 0 l 296 817 l 27 817 l 27 992 l 776 992 l 776 817 l 507 817 l 507 0 m 562 -170 q 511 -295 562 -256 q 352 -334 460 -334 q 253 -319 300 -334 l 253 -205 q 303 -215 272 -210 q 350 -220 334 -220 q 399 -177 399 -220 q 287 -104 399 -121 l 340 0 l 471 0 l 452 -42 q 532 -92 502 -58 q 562 -170 562 -126 "},"Í":{"x_min":113.15625,"x_max":504.484375,"ha":460,"o":"m 124 0 l 124 992 l 335 992 l 335 0 l 124 0 m 113 1071 l 113 1089 q 272 1293 229 1224 l 504 1293 l 504 1278 q 384 1174 469 1243 q 250 1071 298 1104 l 113 1071 "},"´":{"x_min":225.15625,"x_max":616.484375,"ha":843,"o":"m 225 842 l 225 860 q 384 1064 341 995 l 616 1064 l 616 1049 q 496 945 581 1014 q 362 842 410 875 l 225 842 "},"Ơ":{"x_min":80.703125,"x_max":1188.078125,"ha":1146,"o":"m 1025 496 q 903 118 1025 250 q 553 -14 781 -14 q 202 118 325 -14 q 80 498 80 250 q 203 875 80 744 q 555 1007 326 1007 q 911 869 790 1007 q 974 1055 974 910 l 1178 1055 l 1188 1040 q 1115 851 1163 920 q 983 749 1067 783 q 1025 496 1025 642 m 301 496 q 364 246 301 330 q 553 162 427 162 q 804 496 804 162 q 554 832 804 832 q 364 747 428 832 q 301 496 301 663 m 1106 0 l 1106 0 "},"Ú":{"x_min":118.015625,"x_max":931.984375,"ha":1050,"o":"m 931 992 l 931 349 q 882 157 931 239 q 740 30 833 74 q 520 -14 647 -14 q 223 84 329 -14 q 118 352 118 182 l 118 992 l 327 992 l 327 384 q 373 215 327 269 q 526 162 419 162 q 675 216 629 162 q 722 385 722 270 l 722 992 l 931 992 m 408 1071 l 408 1089 q 567 1293 524 1224 l 799 1293 l 799 1278 q 679 1174 764 1243 q 545 1071 593 1104 l 408 1071 "}," ":{"x_min":0,"x_max":0,"ha":278},"Ŷ":{"x_min":0.09375,"x_max":866.859375,"ha":867,"o":"m 433 583 l 640 992 l 866 992 l 537 386 l 537 0 l 329 0 l 329 379 l 0 992 l 227 992 l 433 583 m 591 1071 q 433 1189 485 1133 q 277 1071 380 1135 l 140 1071 l 140 1089 q 313 1293 268 1217 l 555 1293 q 628 1197 576 1257 q 729 1089 680 1136 l 729 1071 l 591 1071 "},"ỏ":{"x_min":62.390625,"x_max":797.609375,"ha":860,"o":"m 273 380 q 310 209 273 267 q 430 152 347 152 q 549 209 513 152 q 586 380 586 267 q 549 549 586 493 q 429 606 512 606 q 309 550 346 606 q 273 380 273 494 m 797 380 q 699 90 797 195 q 427 -14 602 -14 q 235 33 318 -14 q 107 171 151 81 q 62 380 62 261 q 159 669 62 566 q 432 773 256 773 q 624 725 541 773 q 752 588 708 677 q 797 380 797 500 m 604 1008 q 494 875 604 902 l 487 827 l 369 827 l 354 926 q 423 951 404 934 q 441 994 441 969 q 427 1027 441 1016 q 389 1039 413 1039 q 295 1023 345 1039 l 295 1137 q 351 1148 316 1144 q 415 1153 387 1153 q 557 1115 510 1153 q 604 1008 604 1077 "},"Ự":{"x_min":118.015625,"x_max":1243.296875,"ha":1229,"o":"m 931 992 l 931 864 q 1005 932 982 881 q 1029 1056 1029 983 l 1233 1056 l 1243 1041 q 1185 879 1221 936 q 1087 787 1149 822 q 931 739 1025 752 l 931 349 q 882 157 931 239 q 740 30 833 74 q 520 -14 647 -14 q 223 84 329 -14 q 118 352 118 182 l 118 992 l 327 992 l 327 368 q 375 212 327 262 q 526 162 423 162 q 675 214 629 162 q 722 369 722 266 l 722 992 l 931 992 m 1050 0 l 1050 0 m 405 -190 q 518 -89 405 -89 q 630 -190 630 -89 q 602 -265 630 -238 q 518 -291 573 -291 q 405 -190 405 -291 "},"ŝ":{"x_min":62.390625,"x_max":652.515625,"ha":690,"o":"m 637 224 q 556 47 637 108 q 313 -14 475 -14 q 172 -2 231 -14 q 63 30 114 8 l 63 201 q 193 155 121 173 q 320 137 265 137 q 432 202 432 137 q 418 242 432 226 q 366 276 403 257 q 269 322 329 296 q 140 390 181 358 q 81 461 99 421 q 62 561 62 502 q 140 717 62 662 q 362 773 218 773 q 628 713 499 773 l 566 564 q 460 604 509 588 q 359 619 410 619 q 267 570 267 619 q 297 521 267 542 q 426 461 326 501 q 556 394 515 425 q 617 322 597 362 q 637 224 637 281 m 514 842 q 356 960 408 904 q 200 842 303 906 l 63 842 l 63 860 q 236 1064 191 988 l 478 1064 q 551 968 499 1028 q 652 860 603 907 l 652 842 l 514 842 "},"Ý":{"x_min":0.09375,"x_max":866.859375,"ha":867,"o":"m 433 583 l 640 992 l 866 992 l 537 386 l 537 0 l 329 0 l 329 379 l 0 992 l 227 992 l 433 583 m 312 1071 l 312 1089 q 471 1293 428 1224 l 703 1293 l 703 1278 q 583 1174 668 1243 q 449 1071 497 1104 l 312 1071 "},"Ĉ":{"x_min":80.703125,"x_max":836.171875,"ha":885,"o":"m 545 831 q 362 741 427 831 q 297 492 297 652 q 545 160 297 160 q 798 213 650 160 l 798 36 q 526 -14 676 -14 q 195 117 309 -14 q 80 494 80 248 q 136 765 80 649 q 298 943 193 881 q 545 1006 404 1006 q 836 936 690 1006 l 768 765 q 656 811 712 791 q 545 831 600 831 m 692 1071 q 534 1189 586 1133 q 378 1071 481 1135 l 241 1071 l 241 1089 q 414 1293 369 1217 l 656 1293 q 729 1197 677 1257 q 830 1089 781 1136 l 830 1071 l 692 1071 "}," ":{"x_min":0,"x_max":0,"ha":1389},"ą":{"x_min":58.328125,"x_max":745.9375,"ha":839,"o":"m 590 0 l 550 102 l 544 102 q 437 11 492 36 q 293 -14 381 -14 q 121 48 183 -14 q 58 226 58 110 q 142 404 58 347 q 397 467 227 461 l 529 472 l 529 505 q 411 620 529 620 q 197 565 320 620 l 128 705 q 419 774 259 774 q 653 707 571 774 q 734 505 734 641 l 734 0 l 590 0 m 529 351 l 449 348 q 314 315 358 345 q 270 224 270 286 q 371 137 270 137 q 485 178 442 137 q 529 288 529 220 l 529 351 m 613 -154 q 629 -196 613 -182 q 668 -209 644 -209 q 745 -197 705 -209 l 745 -318 q 640 -334 690 -334 q 517 -290 563 -334 q 470 -177 470 -247 q 496 -92 470 -132 q 592 0 522 -52 l 714 0 q 640 -81 666 -44 q 613 -154 613 -118 "},"Ờ":{"x_min":80.703125,"x_max":1188.078125,"ha":1146,"o":"m 1025 496 q 903 118 1025 250 q 553 -14 781 -14 q 202 118 325 -14 q 80 498 80 250 q 203 875 80 744 q 555 1007 326 1007 q 911 869 790 1007 q 974 1055 974 910 l 1178 1055 l 1188 1040 q 1115 851 1163 920 q 983 749 1067 783 q 1025 496 1025 642 m 301 496 q 364 246 301 330 q 553 162 427 162 q 804 496 804 162 q 554 832 804 832 q 364 747 428 832 q 301 496 301 663 m 1106 0 l 1106 0 m 547 1071 q 422 1167 504 1100 q 293 1278 339 1234 l 293 1293 l 525 1293 q 684 1089 567 1224 l 684 1071 l 547 1071 "},"​":{"x_min":0,"x_max":0,"ha":0},"Ö":{"x_min":80.703125,"x_max":1025.296875,"ha":1106,"o":"m 1025 496 q 903 118 1025 250 q 553 -14 781 -14 q 202 118 325 -14 q 80 498 80 250 q 203 876 80 745 q 554 1007 325 1007 q 904 875 783 1007 q 1025 496 1025 743 m 301 496 q 364 246 301 330 q 553 162 427 162 q 804 496 804 162 q 554 832 804 832 q 364 747 428 832 q 301 496 301 663 m 321 1182 q 346 1250 321 1226 q 415 1273 372 1273 q 485 1248 460 1273 q 511 1182 511 1223 q 485 1116 511 1141 q 415 1092 459 1092 q 346 1115 372 1092 q 321 1182 321 1139 m 594 1182 q 621 1251 594 1229 q 689 1273 649 1273 q 760 1249 733 1273 q 786 1182 786 1224 q 759 1116 786 1140 q 689 1092 733 1092 q 621 1114 649 1092 q 594 1182 594 1136 "},"z":{"x_min":37.296875,"x_max":636.625,"ha":678,"o":"m 636 0 l 37 0 l 37 122 l 389 599 l 58 599 l 58 758 l 624 758 l 624 623 l 282 158 l 636 158 l 636 0 "},"ặ":{"x_min":58.328125,"x_max":734.546875,"ha":839,"o":"m 590 0 l 550 102 l 544 102 q 437 11 492 36 q 293 -14 381 -14 q 121 48 183 -14 q 58 226 58 110 q 142 404 58 347 q 397 467 227 461 l 529 472 l 529 505 q 411 620 529 620 q 197 565 320 620 l 128 705 q 419 774 259 774 q 653 707 571 774 q 734 505 734 641 l 734 0 l 590 0 m 529 351 l 449 348 q 314 315 358 345 q 270 224 270 286 q 371 137 270 137 q 485 178 442 137 q 529 288 529 220 l 529 351 m 283 -190 q 396 -89 283 -89 q 508 -190 508 -89 q 480 -265 508 -238 q 396 -291 451 -291 q 283 -190 283 -291 m 684 1071 q 601 904 676 966 q 414 842 527 842 q 226 903 296 842 q 150 1071 156 965 l 266 1071 q 284 1020 268 1039 q 329 994 300 1002 q 416 986 358 986 q 566 1071 555 986 l 684 1071 "},"Ř":{"x_min":124.796875,"x_max":917,"ha":917,"o":"m 335 552 l 402 552 q 550 585 502 552 q 597 689 597 618 q 549 789 597 760 q 398 819 500 819 l 335 819 l 335 552 m 335 381 l 335 0 l 124 0 l 124 992 l 413 992 q 712 918 615 992 q 809 695 809 844 q 761 539 809 607 q 625 432 713 471 q 917 0 849 97 l 683 0 l 446 381 l 335 381 m 750 1293 l 750 1274 q 645 1161 693 1217 q 576 1071 597 1104 l 334 1071 q 278 1147 315 1102 q 161 1274 241 1191 l 161 1293 l 298 1293 q 454 1174 398 1230 q 612 1293 511 1232 l 750 1293 "},"Ắ":{"x_min":0,"x_max":958,"ha":958,"o":"m 731 0 l 659 236 l 298 236 l 226 0 l 0 0 l 349 996 l 606 996 l 958 0 l 731 0 m 609 413 q 497 775 509 733 q 479 842 484 817 q 351 413 456 755 l 609 413 m 412 1265 q 491 1402 459 1336 l 641 1402 l 641 1387 q 501 1247 579 1313 l 412 1247 l 412 1265 m 726 1300 q 652 1131 718 1192 q 478 1071 586 1071 q 303 1129 366 1071 q 234 1300 240 1187 l 336 1300 q 380 1213 341 1241 q 479 1184 419 1184 q 577 1216 539 1184 q 622 1300 616 1248 l 726 1300 "},"ã":{"x_min":58.328125,"x_max":734.546875,"ha":839,"o":"m 590 0 l 550 102 l 544 102 q 437 11 492 36 q 293 -14 381 -14 q 121 48 183 -14 q 58 226 58 110 q 142 404 58 347 q 397 467 227 461 l 529 472 l 529 505 q 411 620 529 620 q 197 565 320 620 l 128 705 q 419 774 259 774 q 653 707 571 774 q 734 505 734 641 l 734 0 l 590 0 m 529 351 l 449 348 q 314 315 358 345 q 270 224 270 286 q 371 137 270 137 q 485 178 442 137 q 529 288 529 220 l 529 351 m 316 913 q 276 894 295 913 q 248 840 257 876 l 147 840 q 203 994 154 938 q 331 1050 251 1050 q 386 1038 359 1050 q 439 1014 413 1027 q 490 989 465 1000 q 540 978 515 978 q 580 996 561 978 q 608 1051 599 1014 l 709 1051 q 653 896 702 952 q 525 841 603 841 q 470 852 497 841 q 417 877 443 863 q 366 901 391 890 q 316 913 341 913 "},"Ň":{"x_min":124.796875,"x_max":1004.21875,"ha":1129,"o":"m 1004 0 l 737 0 l 305 750 l 299 750 q 312 466 312 551 l 312 0 l 124 0 l 124 992 l 389 992 l 820 249 l 825 249 q 814 522 814 442 l 814 992 l 1004 992 l 1004 0 m 876 1293 l 876 1274 q 771 1161 819 1217 q 702 1071 723 1104 l 460 1071 q 404 1147 441 1102 q 287 1274 367 1191 l 287 1293 l 424 1293 q 580 1174 524 1230 q 738 1293 637 1232 l 876 1293 "},"æ":{"x_min":58.328125,"x_max":1214.3125,"ha":1274,"o":"m 901 -14 q 732 20 808 -14 q 607 125 656 54 q 473 16 540 46 q 299 -14 407 -14 q 124 50 190 -14 q 58 226 58 114 q 140 404 58 347 q 386 467 222 461 l 515 472 l 515 529 q 485 598 515 575 q 402 620 455 620 q 196 568 308 620 l 128 705 q 415 774 257 774 q 647 685 569 774 q 750 750 691 728 q 890 773 809 773 q 1127 679 1040 773 q 1214 427 1214 586 l 1214 327 l 723 327 q 776 189 727 239 q 913 139 824 139 q 1170 199 1046 139 l 1170 39 q 1054 0 1117 13 q 901 -14 992 -14 m 515 351 l 438 348 q 312 316 354 345 q 270 224 270 286 q 365 137 270 137 q 474 178 434 137 q 515 288 515 220 l 515 351 m 886 625 q 727 465 739 625 l 1019 465 q 982 583 1018 541 q 886 625 946 625 "},"ừ":{"x_min":104.453125,"x_max":1119.875,"ha":1055,"o":"m 645 0 l 617 96 l 605 96 q 512 15 573 44 q 373 -14 451 -14 q 172 57 240 -14 q 104 263 104 129 l 104 758 l 311 758 l 311 314 q 340 191 311 232 q 433 150 369 150 q 558 208 520 150 q 597 401 597 266 l 597 758 l 804 758 l 804 679 q 879 743 852 693 q 905 872 905 793 l 1109 872 l 1119 857 q 1061 694 1098 751 q 962 602 1024 637 q 804 554 900 568 l 804 0 l 645 0 m 913 0 l 913 0 m 416 842 q 291 938 373 871 q 162 1049 208 1005 l 162 1064 l 394 1064 q 553 860 436 995 l 553 842 l 416 842 "},"Ợ":{"x_min":80.703125,"x_max":1188.078125,"ha":1146,"o":"m 1025 496 q 903 118 1025 250 q 553 -14 781 -14 q 202 118 325 -14 q 80 498 80 250 q 203 875 80 744 q 555 1007 326 1007 q 911 869 790 1007 q 974 1055 974 910 l 1178 1055 l 1188 1040 q 1115 851 1163 920 q 983 749 1067 783 q 1025 496 1025 642 m 301 496 q 364 246 301 330 q 553 162 427 162 q 804 496 804 162 q 554 832 804 832 q 364 747 428 832 q 301 496 301 663 m 1106 0 l 1106 0 m 441 -190 q 554 -89 441 -89 q 666 -190 666 -89 q 638 -265 666 -238 q 554 -291 609 -291 q 441 -190 441 -291 "},"ĩ":{"x_min":-68.625,"x_max":493.640625,"ha":424,"o":"m 315 0 l 108 0 l 108 758 l 315 758 l 315 0 m 100 913 q 60 894 79 913 q 32 840 41 876 l -68 840 q -12 994 -61 938 q 115 1050 35 1050 q 170 1038 143 1050 q 223 1014 197 1027 q 274 989 249 1000 q 324 978 299 978 q 364 996 345 978 q 392 1051 383 1014 l 493 1051 q 437 896 486 952 q 309 841 387 841 q 254 852 281 841 q 201 877 227 863 q 150 901 175 890 q 100 913 125 913 "},"É":{"x_min":124.796875,"x_max":695.9375,"ha":778,"o":"m 695 0 l 124 0 l 124 992 l 695 992 l 695 819 l 335 819 l 335 602 l 670 602 l 670 429 l 335 429 l 335 173 l 695 173 l 695 0 m 287 1071 l 287 1089 q 446 1293 403 1224 l 678 1293 l 678 1278 q 558 1174 643 1243 q 424 1071 472 1104 l 287 1071 "},"ŀ":{"x_min":108.515625,"x_max":622.890625,"ha":595,"o":"m 315 0 l 108 0 l 108 1055 l 315 1055 l 315 0 m 397 471 q 510 572 397 572 q 622 471 622 572 q 594 396 622 423 q 510 370 566 370 q 397 471 397 370 "},"~":{"x_min":59.6875,"x_max":733.3125,"ha":793,"o":"m 218 455 q 138 432 181 455 q 59 372 96 409 l 59 529 q 233 604 129 604 q 326 593 282 604 q 421 560 370 582 q 575 522 508 522 q 653 544 611 522 q 733 605 696 566 l 733 448 q 559 374 664 374 q 474 382 514 374 q 372 417 433 391 q 218 455 283 455 "},"Ċ":{"x_min":80.703125,"x_max":836.171875,"ha":885,"o":"m 545 831 q 362 741 427 831 q 297 492 297 652 q 545 160 297 160 q 798 213 650 160 l 798 36 q 526 -14 676 -14 q 195 117 309 -14 q 80 494 80 248 q 136 765 80 649 q 298 943 193 881 q 545 1006 404 1006 q 836 936 690 1006 l 768 765 q 656 811 712 791 q 545 831 600 831 m 420 1183 q 533 1284 420 1284 q 645 1183 645 1284 q 617 1108 645 1135 q 533 1082 589 1082 q 420 1183 420 1082 "},"³":{"x_min":40,"x_max":470.421875,"ha":526,"o":"m 451 846 q 336 712 451 749 l 336 703 q 435 652 399 690 q 470 562 470 615 q 410 433 470 480 q 225 386 351 386 q 40 433 128 386 l 40 562 q 223 501 140 501 q 320 573 320 501 q 290 627 320 609 q 208 645 260 645 l 132 645 l 132 754 l 194 754 q 278 771 250 754 q 305 827 305 789 q 288 870 305 853 q 237 887 271 887 q 176 874 205 887 q 109 834 148 861 l 41 930 q 134 982 83 961 q 255 1004 185 1004 q 396 960 341 1004 q 451 846 451 917 "},"¡":{"x_min":79,"x_max":316.375,"ha":397,"o":"m 113 410 l 279 410 l 313 -250 l 79 -250 l 113 410 m 316 642 q 285 556 316 585 q 197 527 255 527 q 109 557 140 527 q 79 642 79 587 q 110 727 79 697 q 197 758 142 758 q 285 728 253 758 q 316 642 316 698 "},"ẅ":{"x_min":13.5625,"x_max":1175.4375,"ha":1189,"o":"m 731 0 l 673 265 l 594 600 l 590 600 l 451 0 l 229 0 l 13 758 l 219 758 l 307 422 q 349 173 328 332 l 354 173 q 377 336 356 225 l 388 394 l 482 758 l 710 758 l 799 394 q 807 350 801 379 q 818 288 813 321 q 828 224 824 255 q 833 173 832 192 l 837 173 q 859 307 843 222 q 881 422 874 392 l 972 758 l 1175 758 l 957 0 l 731 0 m 361 953 q 386 1021 361 997 q 455 1044 412 1044 q 525 1019 500 1044 q 551 953 551 994 q 525 887 551 912 q 455 863 499 863 q 386 886 412 863 q 361 953 361 910 m 634 953 q 661 1022 634 1000 q 729 1044 689 1044 q 800 1020 773 1044 q 826 953 826 995 q 799 887 826 911 q 729 863 773 863 q 661 885 689 863 q 634 953 634 907 "},"ậ":{"x_min":58.328125,"x_max":734.546875,"ha":839,"o":"m 590 0 l 550 102 l 544 102 q 437 11 492 36 q 293 -14 381 -14 q 121 48 183 -14 q 58 226 58 110 q 142 404 58 347 q 397 467 227 461 l 529 472 l 529 505 q 411 620 529 620 q 197 565 320 620 l 128 705 q 419 774 259 774 q 653 707 571 774 q 734 505 734 641 l 734 0 l 590 0 m 529 351 l 449 348 q 314 315 358 345 q 270 224 270 286 q 371 137 270 137 q 485 178 442 137 q 529 288 529 220 l 529 351 m 574 841 q 416 959 468 903 q 260 841 363 905 l 123 841 l 123 859 q 296 1063 251 987 l 538 1063 q 611 967 559 1027 q 712 859 663 906 l 712 841 l 574 841 m 290 -190 q 403 -89 290 -89 q 515 -190 515 -89 q 487 -265 515 -238 q 403 -291 458 -291 q 290 -190 290 -291 "},"[":{"x_min":97.03125,"x_max":425.421875,"ha":460,"o":"m 425 -220 l 97 -220 l 97 992 l 425 992 l 425 848 l 273 848 l 273 -76 l 425 -76 l 425 -220 "},"Ử":{"x_min":118.015625,"x_max":1243.296875,"ha":1229,"o":"m 931 992 l 931 864 q 1005 932 982 881 q 1029 1056 1029 983 l 1233 1056 l 1243 1041 q 1185 879 1221 936 q 1087 787 1149 822 q 931 739 1025 752 l 931 349 q 882 157 931 239 q 740 30 833 74 q 520 -14 647 -14 q 223 84 329 -14 q 118 352 118 182 l 118 992 l 327 992 l 327 368 q 375 212 327 262 q 526 162 423 162 q 675 214 629 162 q 722 369 722 266 l 722 992 l 931 992 m 1050 0 l 1050 0 m 697 1237 q 587 1104 697 1131 l 580 1056 l 462 1056 l 447 1155 q 516 1180 497 1163 q 534 1223 534 1198 q 520 1256 534 1245 q 482 1268 506 1268 q 388 1252 438 1268 l 388 1366 q 444 1377 409 1373 q 508 1382 480 1382 q 650 1344 603 1382 q 697 1237 697 1306 "},"%":{"x_min":42.71875,"x_max":1208.28125,"ha":1251,"o":"m 213 694 q 228 565 213 608 q 278 523 244 523 q 343 694 343 523 q 278 864 343 864 q 228 822 244 864 q 213 694 213 780 m 514 695 q 453 461 514 539 q 276 383 393 383 q 103 463 164 383 q 42 695 42 543 q 276 1006 42 1006 q 452 925 391 1006 q 514 695 514 845 m 980 992 l 430 0 l 267 0 l 817 992 l 980 992 m 907 298 q 923 170 907 212 q 972 127 938 127 q 1037 298 1037 127 q 972 468 1037 468 q 923 426 938 468 q 907 298 907 384 m 1208 300 q 1147 66 1208 144 q 970 -12 1087 -12 q 797 68 859 -12 q 736 300 736 148 q 970 610 736 610 q 1146 529 1085 610 q 1208 300 1208 449 "},"P":{"x_min":124.796875,"x_max":809.609375,"ha":872,"o":"m 335 525 l 404 525 q 549 563 501 525 q 597 675 597 601 q 557 784 597 749 q 430 819 516 819 l 335 819 l 335 525 m 809 682 q 709 437 809 522 q 425 353 609 353 l 335 353 l 335 0 l 124 0 l 124 992 l 441 992 q 715 914 621 992 q 809 682 809 836 "},"_":{"x_min":-2.71875,"x_max":573.71875,"ha":571,"o":"m 573 -220 l -2 -220 l -2 -125 l 573 -125 l 573 -220 "},"Ŕ":{"x_min":124.796875,"x_max":917,"ha":917,"o":"m 335 552 l 402 552 q 550 585 502 552 q 597 689 597 618 q 549 789 597 760 q 398 819 500 819 l 335 819 l 335 552 m 335 381 l 335 0 l 124 0 l 124 992 l 413 992 q 712 918 615 992 q 809 695 809 844 q 761 539 809 607 q 625 432 713 471 q 917 0 849 97 l 683 0 l 446 381 l 335 381 m 323 1071 l 323 1089 q 482 1293 439 1224 l 714 1293 l 714 1278 q 594 1174 679 1243 q 460 1071 508 1104 l 323 1071 "},"ñ":{"x_min":108.515625,"x_max":808.546875,"ha":913,"o":"m 808 0 l 601 0 l 601 443 q 572 566 601 525 q 479 607 543 607 q 354 549 392 607 q 315 357 315 491 l 315 0 l 108 0 l 108 758 l 266 758 l 294 661 l 305 661 q 401 744 340 716 q 539 773 461 773 q 740 701 671 773 q 808 494 808 629 l 808 0 m 344 913 q 304 894 323 913 q 276 840 285 876 l 175 840 q 231 994 182 938 q 359 1050 279 1050 q 414 1038 387 1050 q 467 1014 441 1027 q 518 989 493 1000 q 568 978 543 978 q 608 996 589 978 q 636 1051 627 1014 l 737 1051 q 681 896 730 952 q 553 841 631 841 q 498 852 525 841 q 445 877 471 863 q 394 901 419 890 q 344 913 369 913 "},"‚":{"x_min":42.734375,"x_max":311.296875,"ha":404,"o":"m 311 145 q 191 -179 276 8 l 42 -179 q 111 161 86 1 l 301 161 l 311 145 "},"Æ":{"x_min":0,"x_max":1240.9375,"ha":1323,"o":"m 1240 0 l 648 0 l 648 236 l 315 236 l 213 0 l 0 0 l 444 992 l 1240 992 l 1240 819 l 858 819 l 858 602 l 1215 602 l 1215 429 l 858 429 l 858 173 l 1240 173 l 1240 0 m 392 413 l 648 413 l 648 812 l 562 812 l 392 413 "},"ğ":{"x_min":4.0625,"x_max":768.71875,"ha":785,"o":"m 768 759 l 768 653 l 650 623 q 682 508 682 572 q 597 318 682 386 q 360 250 512 250 l 323 252 l 293 255 q 261 201 261 230 q 375 156 261 156 l 504 156 q 694 102 628 156 q 759 -54 759 49 q 648 -260 759 -187 q 330 -334 538 -334 q 87 -278 171 -334 q 4 -123 4 -223 q 46 -9 4 -55 q 172 56 89 36 q 116 100 140 70 q 92 166 92 131 q 118 238 92 209 q 190 295 143 267 q 95 378 130 321 q 61 512 61 435 q 141 705 61 637 q 372 773 222 773 q 448 767 404 773 q 504 759 491 761 l 768 759 m 183 -107 q 224 -174 183 -150 q 339 -199 265 -199 q 513 -168 450 -199 q 576 -85 576 -138 q 539 -26 576 -42 q 424 -10 502 -10 l 316 -10 q 221 -36 259 -10 q 183 -107 183 -63 m 258 510 q 286 412 258 448 q 372 376 314 376 q 458 412 430 376 q 485 510 485 448 q 372 647 485 647 q 258 510 258 647 m 667 1071 q 584 904 659 966 q 397 842 510 842 q 209 903 279 842 q 133 1071 139 965 l 249 1071 q 267 1020 251 1039 q 312 994 283 1002 q 399 986 341 986 q 549 1071 538 986 l 667 1071 "},"Ở":{"x_min":80.703125,"x_max":1188.078125,"ha":1146,"o":"m 1025 496 q 903 118 1025 250 q 553 -14 781 -14 q 202 118 325 -14 q 80 498 80 250 q 203 875 80 744 q 555 1007 326 1007 q 911 869 790 1007 q 974 1055 974 910 l 1178 1055 l 1188 1040 q 1115 851 1163 920 q 983 749 1067 783 q 1025 496 1025 642 m 301 496 q 364 246 301 330 q 553 162 427 162 q 804 496 804 162 q 554 832 804 832 q 364 747 428 832 q 301 496 301 663 m 1106 0 l 1106 0 m 742 1237 q 632 1104 742 1131 l 625 1056 l 507 1056 l 492 1155 q 561 1180 542 1163 q 579 1223 579 1198 q 565 1256 579 1245 q 527 1268 551 1268 q 433 1252 483 1268 l 433 1366 q 489 1377 454 1373 q 553 1382 525 1382 q 695 1344 648 1382 q 742 1237 742 1306 "},"Ū":{"x_min":118.015625,"x_max":931.984375,"ha":1050,"o":"m 931 992 l 931 349 q 882 157 931 239 q 740 30 833 74 q 520 -14 647 -14 q 223 84 329 -14 q 118 352 118 182 l 118 992 l 327 992 l 327 384 q 373 215 327 269 q 526 162 419 162 q 675 216 629 162 q 722 385 722 270 l 722 992 l 931 992 m 295 1214 l 755 1214 l 755 1071 l 295 1071 l 295 1214 "},"ª":{"x_min":31.890625,"x_max":472.21875,"ha":532,"o":"m 380 518 l 359 592 q 288 531 330 553 q 196 510 246 510 q 74 549 116 510 q 31 661 31 589 q 87 772 31 735 q 269 815 143 809 l 336 817 q 250 897 336 897 q 103 855 195 897 l 58 947 q 157 986 103 969 q 278 1003 211 1003 q 421 954 371 1003 q 472 817 472 906 l 472 518 l 380 518 m 170 662 q 186 624 170 636 q 223 612 202 612 q 306 640 276 612 q 336 712 336 668 l 336 737 l 269 733 q 170 662 170 726 "},"Œ":{"x_min":80.703125,"x_max":1269.9375,"ha":1352,"o":"m 1269 0 l 677 0 q 603 -10 651 -6 q 525 -14 555 -14 q 194 119 308 -14 q 80 498 80 253 q 195 875 80 744 q 526 1007 310 1007 q 612 1002 567 1007 q 681 992 657 997 l 1269 992 l 1269 819 l 887 819 l 887 602 l 1244 602 l 1244 429 l 887 429 l 887 173 l 1269 173 l 1269 0 m 526 832 q 355 746 413 832 q 297 496 297 661 q 355 246 297 331 q 525 162 413 162 q 610 169 569 162 q 677 188 651 176 l 677 804 q 608 824 653 817 q 526 832 563 832 "},"Ạ":{"x_min":0,"x_max":958,"ha":958,"o":"m 731 0 l 659 236 l 298 236 l 226 0 l 0 0 l 349 996 l 606 996 l 958 0 l 731 0 m 609 413 q 497 775 509 733 q 479 842 484 817 q 351 413 456 755 l 609 413 m 366 -190 q 479 -89 366 -89 q 591 -190 591 -89 q 563 -265 591 -238 q 479 -291 534 -291 q 366 -190 366 -291 "},"Ą":{"x_min":0,"x_max":958,"ha":958,"o":"m 731 0 l 659 236 l 298 236 l 226 0 l 0 0 l 349 996 l 606 996 l 958 0 l 731 0 m 609 413 q 497 775 509 733 q 479 842 484 817 q 351 413 456 755 l 609 413 m 753 -154 q 769 -196 753 -182 q 808 -209 784 -209 q 885 -197 845 -209 l 885 -318 q 780 -334 830 -334 q 657 -290 703 -334 q 610 -177 610 -247 q 636 -92 610 -132 q 732 0 662 -52 l 854 0 q 780 -81 806 -44 q 753 -154 753 -118 "},"T":{"x_min":27.671875,"x_max":776.421875,"ha":804,"o":"m 507 0 l 296 0 l 296 817 l 27 817 l 27 992 l 776 992 l 776 817 l 507 817 l 507 0 "},"š":{"x_min":62.390625,"x_max":659.515625,"ha":690,"o":"m 637 224 q 556 47 637 108 q 313 -14 475 -14 q 172 -2 231 -14 q 63 30 114 8 l 63 201 q 193 155 121 173 q 320 137 265 137 q 432 202 432 137 q 418 242 432 226 q 366 276 403 257 q 269 322 329 296 q 140 390 181 358 q 81 461 99 421 q 62 561 62 502 q 140 717 62 662 q 362 773 218 773 q 628 713 499 773 l 566 564 q 460 604 509 588 q 359 619 410 619 q 267 570 267 619 q 297 521 267 542 q 426 461 326 501 q 556 394 515 425 q 617 322 597 362 q 637 224 637 281 m 659 1064 l 659 1045 q 554 932 602 988 q 485 842 506 875 l 243 842 q 187 918 224 873 q 70 1045 150 962 l 70 1064 l 207 1064 q 363 945 307 1001 q 521 1064 420 1003 l 659 1064 "},"ỷ":{"x_min":0,"x_max":790,"ha":790,"o":"m 0 758 l 226 758 l 369 331 q 394 199 387 275 l 398 199 q 427 331 406 269 l 568 758 l 790 758 l 469 -97 q 343 -275 425 -216 q 152 -334 261 -334 q 47 -322 99 -334 l 47 -158 q 128 -167 84 -167 q 224 -133 183 -167 q 288 -32 265 -100 l 301 5 l 0 758 m 565 1008 q 455 875 565 902 l 448 827 l 330 827 l 315 926 q 384 951 365 934 q 402 994 402 969 q 388 1027 402 1016 q 350 1039 374 1039 q 256 1023 306 1039 l 256 1137 q 312 1148 277 1144 q 376 1153 348 1153 q 518 1115 471 1153 q 565 1008 565 1077 "},"Þ":{"x_min":124.796875,"x_max":809.609375,"ha":872,"o":"m 809 522 q 713 283 809 367 q 438 199 616 199 l 335 199 l 335 0 l 124 0 l 124 992 l 335 992 l 335 837 l 455 837 q 718 756 627 837 q 809 522 809 675 m 335 368 l 402 368 q 549 404 501 368 q 597 522 597 439 q 554 630 597 595 q 419 666 511 666 l 335 666 l 335 368 "},"j":{"x_min":-88.84375,"x_max":324.875,"ha":424,"o":"m 47 -334 q -88 -317 -31 -334 l -88 -154 q 8 -167 -41 -167 q 84 -137 60 -167 q 108 -51 108 -108 l 108 758 l 315 758 l 315 -82 q 245 -268 315 -203 q 47 -334 175 -334 m 99 953 q 212 1055 99 1055 q 324 953 324 1055 q 296 879 324 905 q 212 852 268 852 q 99 953 99 852 "},"1":{"x_min":82.140625,"x_max":573.859375,"ha":793,"o":"m 573 0 l 364 0 l 364 574 l 366 668 l 369 771 q 297 703 317 719 l 183 611 l 82 737 l 401 992 l 573 992 l 573 0 "},"›":{"x_min":55.609375,"x_max":455.765625,"ha":511,"o":"m 455 371 l 204 64 l 55 144 l 244 380 l 55 616 l 204 697 l 455 388 l 455 371 "},"<":{"x_min":59.703125,"x_max":733.296875,"ha":793,"o":"m 733 137 l 59 434 l 59 531 l 733 868 l 733 705 l 269 490 l 733 299 l 733 137 "},"t":{"x_min":31.890625,"x_max":558.234375,"ha":603,"o":"m 427 150 q 558 174 482 150 l 558 20 q 368 -14 480 -14 q 187 48 244 -14 q 130 237 130 111 l 130 602 l 31 602 l 31 690 l 145 759 l 205 919 l 337 919 l 337 758 l 550 758 l 550 602 l 337 602 l 337 236 q 362 171 337 192 q 427 150 387 150 "},"¬":{"x_min":59.6875,"x_max":733.3125,"ha":793,"o":"m 733 168 l 584 168 l 584 415 l 59 415 l 59 564 l 733 564 l 733 168 "},"ù":{"x_min":104.453125,"x_max":804.484375,"ha":913,"o":"m 645 0 l 617 96 l 607 96 q 512 14 573 43 q 373 -14 451 -14 q 172 57 240 -14 q 104 263 104 129 l 104 758 l 311 758 l 311 314 q 340 191 311 232 q 433 150 369 150 q 558 208 520 150 q 597 401 597 266 l 597 758 l 804 758 l 804 0 l 645 0 m 420 842 q 295 938 377 871 q 166 1049 212 1005 l 166 1064 l 398 1064 q 557 860 440 995 l 557 842 l 420 842 "},"ĉ":{"x_min":62.390625,"x_max":703.515625,"ha":714,"o":"m 416 -14 q 62 375 62 -14 q 158 670 62 568 q 434 773 254 773 q 670 721 566 773 l 609 561 q 518 593 560 581 q 434 606 476 606 q 273 376 273 606 q 434 153 273 153 q 545 169 494 153 q 646 219 596 185 l 646 42 q 545 -1 596 10 q 416 -14 494 -14 m 565 842 q 407 960 459 904 q 251 842 354 906 l 114 842 l 114 860 q 287 1064 242 988 l 529 1064 q 602 968 550 1028 q 703 860 654 907 l 703 842 l 565 842 "},"ï":{"x_min":-19.78125,"x_max":445.15625,"ha":424,"o":"m 315 0 l 108 0 l 108 758 l 315 758 l 315 0 m -19 953 q 5 1021 -19 997 q 74 1044 31 1044 q 144 1019 119 1044 q 170 953 170 994 q 144 887 170 912 q 74 863 118 863 q 5 886 31 863 q -19 953 -19 910 m 253 953 q 280 1022 253 1000 q 348 1044 308 1044 q 419 1020 392 1044 q 445 953 445 995 q 418 887 445 911 q 348 863 392 863 q 280 885 308 863 q 253 953 253 907 "},"ī":{"x_min":-16.0625,"x_max":443.765625,"ha":424,"o":"m 315 0 l 108 0 l 108 758 l 315 758 l 315 0 m -16 985 l 443 985 l 443 842 l -16 842 l -16 985 "},"Ò":{"x_min":80.703125,"x_max":1025.296875,"ha":1106,"o":"m 1025 496 q 903 118 1025 250 q 553 -14 781 -14 q 202 118 325 -14 q 80 498 80 250 q 203 876 80 745 q 554 1007 325 1007 q 904 875 783 1007 q 1025 496 1025 743 m 301 496 q 364 246 301 330 q 553 162 427 162 q 804 496 804 162 q 554 832 804 832 q 364 747 428 832 q 301 496 301 663 m 558 1071 q 433 1167 515 1100 q 304 1278 350 1234 l 304 1293 l 536 1293 q 695 1089 578 1224 l 695 1071 l 558 1071 "},"ầ":{"x_min":-30.984375,"x_max":734.546875,"ha":839,"o":"m 590 0 l 550 102 l 544 102 q 437 11 492 36 q 293 -14 381 -14 q 121 48 183 -14 q 58 226 58 110 q 142 404 58 347 q 397 467 227 461 l 529 472 l 529 505 q 411 620 529 620 q 197 565 320 620 l 128 705 q 419 774 259 774 q 653 707 571 774 q 734 505 734 641 l 734 0 l 590 0 m 529 351 l 449 348 q 314 315 358 345 q 270 224 270 286 q 371 137 270 137 q 485 178 442 137 q 529 288 529 220 l 529 351 m 166 860 q 312 1050 242 948 l 526 1050 q 602 945 559 1001 q 672 860 645 890 l 672 842 l 562 842 q 419 954 496 886 q 276 842 347 889 l 166 842 l 166 860 m 226 974 l 123 974 q -30 1113 12 1054 l -30 1128 l 133 1128 q 226 991 169 1052 l 226 974 "},"Ď":{"x_min":124.796875,"x_max":947.296875,"ha":1028,"o":"m 947 505 q 807 130 947 260 q 405 0 668 0 l 124 0 l 124 992 l 436 992 q 813 863 678 992 q 947 505 947 735 m 728 500 q 446 819 728 819 l 335 819 l 335 173 l 425 173 q 728 500 728 173 m 786 1293 l 786 1274 q 681 1161 729 1217 q 612 1071 633 1104 l 370 1071 q 314 1147 351 1102 q 197 1274 277 1191 l 197 1293 l 334 1293 q 490 1174 434 1230 q 648 1293 547 1232 l 786 1293 "},"&":{"x_min":55.609375,"x_max":1042,"ha":1042,"o":"m 1042 0 l 786 0 l 708 76 q 415 -14 578 -14 q 152 62 249 -14 q 55 267 55 138 q 96 426 55 360 q 237 548 137 491 q 163 660 186 607 q 140 776 140 713 q 219 942 140 879 q 430 1006 298 1006 q 632 947 556 1006 q 708 790 708 888 q 661 642 708 709 q 510 515 614 576 l 702 327 q 786 532 751 406 l 1001 532 q 934 353 977 440 q 837 198 892 266 l 1042 0 m 273 287 q 317 194 273 228 q 429 159 360 159 q 583 201 514 159 l 358 425 q 296 362 318 395 q 273 287 273 330 m 516 768 q 492 825 516 804 q 429 845 468 845 q 357 824 383 845 q 331 762 331 802 q 396 631 331 702 q 485 695 454 663 q 516 768 516 726 "},"Ồ":{"x_min":80.703125,"x_max":1025.296875,"ha":1106,"o":"m 1025 496 q 903 118 1025 250 q 553 -14 781 -14 q 202 118 325 -14 q 80 498 80 250 q 203 876 80 745 q 554 1007 325 1007 q 904 875 783 1007 q 1025 496 1025 743 m 301 496 q 364 246 301 330 q 553 162 427 162 q 804 496 804 162 q 554 832 804 832 q 364 747 428 832 q 301 496 301 663 m 297 1089 q 443 1279 373 1177 l 657 1279 q 733 1174 690 1230 q 803 1089 776 1119 l 803 1071 l 693 1071 q 550 1183 627 1115 q 407 1071 478 1118 l 297 1071 l 297 1089 m 357 1203 l 254 1203 q 100 1342 143 1283 l 100 1357 l 264 1357 q 357 1220 300 1281 l 357 1203 "},"˝":{"x_min":105.859375,"x_max":711.265625,"ha":817,"o":"m 105 842 l 105 860 q 185 977 147 917 q 237 1064 223 1036 l 441 1064 l 441 1049 q 342 946 419 1013 q 215 842 265 878 l 105 842 m 374 842 l 374 860 q 507 1064 469 990 l 711 1064 l 711 1049 q 626 958 694 1020 q 484 842 557 896 l 374 842 "},"I":{"x_min":124.84375,"x_max":335.09375,"ha":460,"o":"m 124 0 l 124 992 l 335 992 l 335 0 l 124 0 "},"G":{"x_min":80.703125,"x_max":894.734375,"ha":1006,"o":"m 501 557 l 894 557 l 894 42 q 714 -1 799 11 q 541 -14 630 -14 q 199 117 317 -14 q 80 497 80 249 q 218 871 80 737 q 598 1006 355 1006 q 893 944 751 1006 l 823 776 q 597 831 714 831 q 379 739 461 831 q 297 492 297 647 q 363 246 297 331 q 555 160 429 160 q 689 174 621 160 l 689 382 l 501 382 l 501 557 "},"`":{"x_min":225.15625,"x_max":616.484375,"ha":843,"o":"m 479 842 q 354 938 436 871 q 225 1049 271 1005 l 225 1064 l 457 1064 q 616 860 499 995 l 616 842 l 479 842 "},"·":{"x_min":79.359375,"x_max":316.734375,"ha":396,"o":"m 79 490 q 109 576 79 547 q 198 606 140 606 q 285 576 255 606 q 316 490 316 546 q 285 405 316 435 q 198 375 253 375 q 110 405 141 375 q 79 490 79 435 "},"ỗ":{"x_min":62.390625,"x_max":797.609375,"ha":860,"o":"m 273 380 q 310 209 273 267 q 430 152 347 152 q 549 209 513 152 q 586 380 586 267 q 549 549 586 493 q 429 606 512 606 q 309 550 346 606 q 273 380 273 494 m 797 380 q 699 90 797 195 q 427 -14 602 -14 q 235 33 318 -14 q 107 171 151 81 q 62 380 62 261 q 159 669 62 566 q 432 773 256 773 q 624 725 541 773 q 752 588 708 677 q 797 380 797 500 m 529 1063 q 479 1071 504 1063 q 429 1090 453 1080 q 382 1109 404 1100 q 340 1118 359 1118 q 298 1106 313 1118 q 275 1062 284 1095 l 198 1062 q 241 1181 204 1137 q 333 1226 277 1226 q 384 1217 358 1226 q 435 1197 411 1208 q 482 1178 459 1187 q 522 1169 504 1169 q 563 1181 550 1169 q 587 1227 577 1194 l 664 1227 q 619 1105 655 1148 q 529 1063 583 1063 m 683 842 l 587 842 q 430 945 491 890 q 273 842 374 895 l 177 842 l 177 860 q 337 1037 293 971 l 523 1037 q 599 945 556 990 q 683 860 643 900 l 683 842 "},"Ễ":{"x_min":124.796875,"x_max":695.9375,"ha":778,"o":"m 695 0 l 124 0 l 124 992 l 695 992 l 695 819 l 335 819 l 335 602 l 670 602 l 670 429 l 335 429 l 335 173 l 695 173 l 695 0 m 512 1292 q 462 1300 487 1292 q 412 1319 436 1309 q 365 1338 387 1329 q 323 1347 342 1347 q 281 1335 296 1347 q 258 1291 267 1324 l 181 1291 q 224 1410 187 1366 q 316 1455 260 1455 q 367 1446 341 1455 q 418 1426 394 1437 q 465 1407 442 1416 q 505 1398 487 1398 q 546 1410 533 1398 q 570 1456 560 1423 l 647 1456 q 602 1334 638 1377 q 512 1292 566 1292 m 666 1071 l 570 1071 q 413 1174 474 1119 q 256 1071 357 1124 l 160 1071 l 160 1089 q 320 1266 276 1200 l 506 1266 q 582 1174 539 1219 q 666 1089 626 1129 l 666 1071 "},"ằ":{"x_min":58.328125,"x_max":734.546875,"ha":839,"o":"m 590 0 l 550 102 l 544 102 q 437 11 492 36 q 293 -14 381 -14 q 121 48 183 -14 q 58 226 58 110 q 142 404 58 347 q 397 467 227 461 l 529 472 l 529 505 q 411 620 529 620 q 197 565 320 620 l 128 705 q 419 774 259 774 q 653 707 571 774 q 734 505 734 641 l 734 0 l 590 0 m 529 351 l 449 348 q 314 315 358 345 q 270 224 270 286 q 371 137 270 137 q 485 178 442 137 q 529 288 529 220 l 529 351 m 484 1018 l 395 1018 q 255 1158 324 1076 l 255 1173 l 405 1173 q 484 1036 437 1107 l 484 1018 m 275 1071 q 319 988 280 1020 q 418 955 357 955 q 517 985 480 955 q 561 1071 555 1014 l 662 1071 q 593 899 656 957 q 419 842 530 842 q 244 902 310 842 q 170 1071 178 963 l 275 1071 "},"ŏ":{"x_min":62.390625,"x_max":797.609375,"ha":860,"o":"m 273 380 q 310 209 273 267 q 430 152 347 152 q 549 209 513 152 q 586 380 586 267 q 549 549 586 493 q 429 606 512 606 q 309 550 346 606 q 273 380 273 494 m 797 380 q 699 90 797 195 q 427 -14 602 -14 q 235 33 318 -14 q 107 171 151 81 q 62 380 62 261 q 159 669 62 566 q 432 773 256 773 q 624 725 541 773 q 752 588 708 677 q 797 380 797 500 m 695 1071 q 612 904 687 966 q 425 842 538 842 q 237 903 307 842 q 161 1071 167 965 l 277 1071 q 295 1020 279 1039 q 340 994 311 1002 q 427 986 369 986 q 577 1071 566 986 l 695 1071 "},"¿":{"x_min":41.390625,"x_max":667.0625,"ha":663,"o":"m 483 411 l 483 360 q 453 246 483 294 q 350 145 423 198 q 256 63 276 93 q 237 -9 237 33 q 266 -73 237 -47 q 356 -98 296 -98 q 471 -78 410 -98 q 597 -30 532 -58 l 667 -180 q 516 -241 600 -218 q 361 -265 432 -265 q 126 -199 211 -265 q 41 -19 41 -134 q 74 107 41 53 q 204 232 107 160 q 286 304 268 279 q 304 371 304 329 l 304 411 l 483 411 m 505 642 q 474 556 505 585 q 386 527 444 527 q 298 557 329 527 q 268 642 268 587 q 299 727 268 697 q 386 758 331 758 q 474 728 443 758 q 505 642 505 698 "},"Ả":{"x_min":0,"x_max":958,"ha":958,"o":"m 731 0 l 659 236 l 298 236 l 226 0 l 0 0 l 349 996 l 606 996 l 958 0 l 731 0 m 609 413 q 497 775 509 733 q 479 842 484 817 q 351 413 456 755 l 609 413 m 653 1237 q 543 1104 653 1131 l 536 1056 l 418 1056 l 403 1155 q 472 1180 453 1163 q 490 1223 490 1198 q 476 1256 490 1245 q 438 1268 462 1268 q 344 1252 394 1268 l 344 1366 q 400 1377 365 1373 q 464 1382 436 1382 q 606 1344 559 1382 q 653 1237 653 1306 "},"ý":{"x_min":0,"x_max":790,"ha":790,"o":"m 0 758 l 226 758 l 369 331 q 394 199 387 275 l 398 199 q 427 331 406 269 l 568 758 l 790 758 l 469 -97 q 343 -275 425 -216 q 152 -334 261 -334 q 47 -322 99 -334 l 47 -158 q 128 -167 84 -167 q 224 -133 183 -167 q 288 -32 265 -100 l 301 5 l 0 758 m 266 842 l 266 860 q 425 1064 382 995 l 657 1064 l 657 1049 q 537 945 622 1014 q 403 842 451 875 l 266 842 "},"Ứ":{"x_min":118.015625,"x_max":1243.296875,"ha":1229,"o":"m 931 992 l 931 864 q 1005 932 982 881 q 1029 1056 1029 983 l 1233 1056 l 1243 1041 q 1185 879 1221 936 q 1087 787 1149 822 q 931 739 1025 752 l 931 349 q 882 157 931 239 q 740 30 833 74 q 520 -14 647 -14 q 223 84 329 -14 q 118 352 118 182 l 118 992 l 327 992 l 327 368 q 375 212 327 262 q 526 162 423 162 q 675 214 629 162 q 722 369 722 266 l 722 992 l 931 992 m 1050 0 l 1050 0 m 414 1071 l 414 1089 q 573 1293 530 1224 l 805 1293 l 805 1278 q 685 1174 770 1243 q 551 1071 599 1104 l 414 1071 "},"ſ":{"x_min":108.515625,"x_max":563.875,"ha":532,"o":"m 401 898 q 315 805 315 898 l 315 0 l 108 0 l 108 814 q 172 1003 108 943 q 375 1063 236 1063 q 563 1031 482 1063 l 515 879 q 401 898 453 898 "},"º":{"x_min":38.640625,"x_max":499.671875,"ha":539,"o":"m 499 756 q 437 575 499 640 q 267 510 375 510 q 101 576 164 510 q 38 756 38 643 q 99 937 38 871 q 270 1003 160 1003 q 436 936 373 1003 q 499 756 499 869 m 176 756 q 198 654 176 689 q 269 620 220 620 q 339 654 317 620 q 360 756 360 689 q 339 858 360 824 q 269 891 317 891 q 198 858 220 891 q 176 756 176 824 "},"ź":{"x_min":37.296875,"x_max":636.625,"ha":678,"o":"m 636 0 l 37 0 l 37 122 l 389 599 l 58 599 l 58 758 l 624 758 l 624 623 l 282 158 l 636 158 l 636 0 m 239 842 l 239 860 q 398 1064 355 995 l 630 1064 l 630 1049 q 510 945 595 1014 q 376 842 424 875 l 239 842 "},"ű":{"x_min":104.453125,"x_max":839.265625,"ha":913,"o":"m 645 0 l 617 96 l 607 96 q 512 14 573 43 q 373 -14 451 -14 q 172 57 240 -14 q 104 263 104 129 l 104 758 l 311 758 l 311 314 q 340 191 311 232 q 433 150 369 150 q 558 208 520 150 q 597 401 597 266 l 597 758 l 804 758 l 804 0 l 645 0 m 233 842 l 233 860 q 313 977 275 917 q 365 1064 351 1036 l 569 1064 l 569 1049 q 470 946 547 1013 q 343 842 393 878 l 233 842 m 502 842 l 502 860 q 635 1064 597 990 l 839 1064 l 839 1049 q 754 958 822 1020 q 612 842 685 896 l 502 842 "},"Ư":{"x_min":118.015625,"x_max":1243.296875,"ha":1229,"o":"m 931 992 l 931 864 q 1005 932 982 881 q 1029 1056 1029 983 l 1233 1056 l 1243 1041 q 1185 879 1221 936 q 1087 787 1149 822 q 931 739 1025 752 l 931 349 q 882 157 931 239 q 740 30 833 74 q 520 -14 647 -14 q 223 84 329 -14 q 118 352 118 182 l 118 992 l 327 992 l 327 368 q 375 212 327 262 q 526 162 423 162 q 675 214 629 162 q 722 369 722 266 l 722 992 l 931 992 m 1050 0 l 1050 0 "},"Ǽ":{"x_min":0,"x_max":1240.9375,"ha":1323,"o":"m 1240 0 l 648 0 l 648 236 l 315 236 l 213 0 l 0 0 l 444 992 l 1240 992 l 1240 819 l 858 819 l 858 602 l 1215 602 l 1215 429 l 858 429 l 858 173 l 1240 173 l 1240 0 m 392 413 l 648 413 l 648 812 l 562 812 l 392 413 m 681 1071 l 681 1089 q 840 1293 797 1224 l 1072 1293 l 1072 1278 q 952 1174 1037 1243 q 818 1071 866 1104 l 681 1071 "},"ń":{"x_min":108.515625,"x_max":808.546875,"ha":913,"o":"m 808 0 l 601 0 l 601 443 q 572 566 601 525 q 479 607 543 607 q 354 549 392 607 q 315 357 315 491 l 315 0 l 108 0 l 108 758 l 266 758 l 294 661 l 305 661 q 401 744 340 716 q 539 773 461 773 q 740 701 671 773 q 808 494 808 629 l 808 0 m 340 842 l 340 860 q 499 1064 456 995 l 731 1064 l 731 1049 q 611 945 696 1014 q 477 842 525 875 l 340 842 "},"Ș":{"x_min":63.75,"x_max":710.0625,"ha":765,"o":"m 710 275 q 613 63 710 140 q 344 -14 516 -14 q 63 45 185 -14 l 63 241 q 233 177 164 196 q 360 159 303 159 q 466 186 429 159 q 503 264 503 212 q 487 316 503 294 q 439 360 471 339 q 311 427 408 381 q 174 509 220 470 q 102 601 129 549 q 75 723 75 653 q 164 930 75 855 q 410 1006 253 1006 q 558 987 488 1006 q 705 936 628 969 l 637 772 q 506 818 558 805 q 404 831 454 831 q 312 803 344 831 q 280 730 280 775 q 293 682 280 702 q 334 641 306 661 q 467 572 362 622 q 658 438 606 505 q 710 275 710 372 m 234 -288 q 257 -191 244 -255 q 276 -85 271 -128 l 467 -85 l 467 -98 q 355 -307 417 -212 l 234 -307 l 234 -288 "},";":{"x_min":42.734375,"x_max":316.734375,"ha":403,"o":"m 301 161 l 311 145 q 191 -179 276 8 l 42 -179 q 111 161 86 1 l 301 161 m 79 657 q 109 743 79 714 q 198 773 140 773 q 285 743 255 773 q 316 657 316 713 q 285 572 316 602 q 198 542 253 542 q 110 572 141 542 q 79 657 79 602 "}," ":{"x_min":0,"x_max":0,"ha":347},"Ġ":{"x_min":80.703125,"x_max":894.734375,"ha":1006,"o":"m 501 557 l 894 557 l 894 42 q 714 -1 799 11 q 541 -14 630 -14 q 199 117 317 -14 q 80 497 80 249 q 218 871 80 737 q 598 1006 355 1006 q 893 944 751 1006 l 823 776 q 597 831 714 831 q 379 739 461 831 q 297 492 297 647 q 363 246 297 331 q 555 160 429 160 q 689 174 621 160 l 689 382 l 501 382 l 501 557 m 444 1183 q 557 1284 444 1284 q 669 1183 669 1284 q 641 1108 669 1135 q 557 1082 613 1082 q 444 1183 444 1082 "},"6":{"x_min":48.84375,"x_max":748.90625,"ha":793,"o":"m 48 420 q 173 859 48 715 q 546 1003 297 1003 q 679 992 630 1003 l 679 825 q 559 838 618 838 q 383 806 451 838 q 281 709 315 773 q 241 528 247 646 l 250 528 q 465 644 317 644 q 673 560 598 644 q 748 329 748 477 q 659 78 748 171 q 411 -14 569 -14 q 219 36 301 -14 q 93 185 137 87 q 48 420 48 283 m 407 153 q 510 198 474 153 q 546 327 546 243 q 512 441 546 399 q 411 483 478 483 q 302 441 347 483 q 257 345 257 400 q 299 209 257 264 q 407 153 341 153 "},"n":{"x_min":108.515625,"x_max":808.546875,"ha":913,"o":"m 808 0 l 601 0 l 601 443 q 572 566 601 525 q 479 607 543 607 q 354 549 392 607 q 315 357 315 491 l 315 0 l 108 0 l 108 758 l 266 758 l 294 661 l 305 661 q 401 744 340 716 q 539 773 461 773 q 740 701 671 773 q 808 494 808 629 l 808 0 "},"﻿":{"x_min":0,"x_max":0,"ha":0},"ụ":{"x_min":104.453125,"x_max":804.484375,"ha":913,"o":"m 645 0 l 617 96 l 607 96 q 512 14 573 43 q 373 -14 451 -14 q 172 57 240 -14 q 104 263 104 129 l 104 758 l 311 758 l 311 314 q 340 191 311 232 q 433 150 369 150 q 558 208 520 150 q 597 401 597 266 l 597 758 l 804 758 l 804 0 l 645 0 m 341 -190 q 454 -89 341 -89 q 566 -190 566 -89 q 538 -265 566 -238 q 454 -291 509 -291 q 341 -190 341 -291 "},"ģ":{"x_min":4.0625,"x_max":768.71875,"ha":785,"o":"m 768 759 l 768 653 l 650 623 q 682 508 682 572 q 597 318 682 386 q 360 250 512 250 l 323 252 l 293 255 q 261 201 261 230 q 375 156 261 156 l 504 156 q 694 102 628 156 q 759 -54 759 49 q 648 -260 759 -187 q 330 -334 538 -334 q 87 -278 171 -334 q 4 -123 4 -223 q 46 -9 4 -55 q 172 56 89 36 q 116 100 140 70 q 92 166 92 131 q 118 238 92 209 q 190 295 143 267 q 95 378 130 321 q 61 512 61 435 q 141 705 61 637 q 372 773 222 773 q 448 767 404 773 q 504 759 491 761 l 768 759 m 183 -107 q 224 -174 183 -150 q 339 -199 265 -199 q 513 -168 450 -199 q 576 -85 576 -138 q 539 -26 576 -42 q 424 -10 502 -10 l 316 -10 q 221 -36 259 -10 q 183 -107 183 -63 m 258 510 q 286 412 258 448 q 372 376 314 376 q 458 412 430 376 q 485 510 485 448 q 372 647 485 647 q 258 510 258 647 m 521 1045 q 497 948 511 1012 q 479 842 484 885 l 287 842 l 287 856 q 400 1064 340 971 l 521 1064 l 521 1045 "},"Ẵ":{"x_min":0,"x_max":958,"ha":958,"o":"m 731 0 l 659 236 l 298 236 l 226 0 l 0 0 l 349 996 l 606 996 l 958 0 l 731 0 m 609 413 q 497 775 509 733 q 479 842 484 817 q 351 413 456 755 l 609 413 m 338 1272 q 378 1208 342 1232 q 481 1184 414 1184 q 624 1272 614 1184 l 725 1272 q 656 1122 719 1173 q 482 1071 594 1071 q 306 1124 372 1071 q 233 1272 241 1178 l 338 1272 m 585 1305 q 535 1313 560 1305 q 485 1332 509 1322 q 438 1351 460 1342 q 396 1359 415 1359 q 353 1347 367 1359 q 331 1304 340 1335 l 254 1304 q 294 1412 260 1371 q 389 1454 327 1454 q 440 1445 414 1454 q 491 1425 467 1436 q 538 1406 515 1415 q 578 1397 560 1397 q 619 1410 606 1397 q 643 1455 633 1422 l 720 1455 q 677 1343 712 1381 q 585 1305 642 1305 "},"¤":{"x_min":76.703125,"x_max":716.9375,"ha":793,"o":"m 127 490 q 164 623 127 559 l 76 709 l 176 809 l 262 723 q 396 759 324 759 q 529 722 467 759 l 615 809 l 716 712 l 629 625 q 665 490 665 564 q 629 355 665 417 l 714 270 l 615 172 l 529 257 q 396 222 464 222 q 261 257 318 222 l 176 173 l 78 272 l 164 356 q 127 490 127 419 m 267 490 q 304 400 267 438 q 396 363 341 363 q 488 400 451 363 q 526 490 526 437 q 488 581 526 544 q 396 619 449 619 q 305 581 343 619 q 267 490 267 543 "},"Ĝ":{"x_min":80.703125,"x_max":894.734375,"ha":1006,"o":"m 501 557 l 894 557 l 894 42 q 714 -1 799 11 q 541 -14 630 -14 q 199 117 317 -14 q 80 497 80 249 q 218 871 80 737 q 598 1006 355 1006 q 893 944 751 1006 l 823 776 q 597 831 714 831 q 379 739 461 831 q 297 492 297 647 q 363 246 297 331 q 555 160 429 160 q 689 174 621 160 l 689 382 l 501 382 l 501 557 m 702 1071 q 544 1189 596 1133 q 388 1071 491 1135 l 251 1071 l 251 1089 q 424 1293 379 1217 l 666 1293 q 739 1197 687 1257 q 840 1089 791 1136 l 840 1071 l 702 1071 "},"p":{"x_min":108.515625,"x_max":816.609375,"ha":879,"o":"m 524 -14 q 315 83 391 -14 l 304 83 q 315 -26 315 -11 l 315 -334 l 108 -334 l 108 758 l 276 758 l 305 660 l 315 660 q 530 773 387 773 q 740 669 664 773 q 816 380 816 565 q 781 169 816 258 q 679 32 745 79 q 524 -14 613 -14 m 463 607 q 352 560 387 607 q 315 404 316 513 l 315 381 q 351 206 315 259 q 466 153 387 153 q 605 383 605 153 q 571 551 605 495 q 463 607 537 607 "},"‡":{"x_min":83.421875,"x_max":646.578125,"ha":730,"o":"m 422 377 l 646 399 l 646 234 l 422 255 l 459 0 l 270 0 l 308 255 l 83 234 l 83 399 l 308 377 l 276 532 l 308 676 l 83 656 l 83 820 l 308 799 l 270 1055 l 459 1055 l 422 799 l 646 820 l 646 656 l 422 676 l 454 532 l 422 377 "},"ň":{"x_min":108.515625,"x_max":808.546875,"ha":913,"o":"m 808 0 l 601 0 l 601 443 q 572 566 601 525 q 479 607 543 607 q 354 549 392 607 q 315 357 315 491 l 315 0 l 108 0 l 108 758 l 266 758 l 294 661 l 305 661 q 401 744 340 716 q 539 773 461 773 q 740 701 671 773 q 808 494 808 629 l 808 0 m 768 1064 l 768 1045 q 663 932 711 988 q 594 842 615 875 l 352 842 q 296 918 333 873 q 179 1045 259 962 l 179 1064 l 316 1064 q 472 945 416 1001 q 630 1064 529 1003 l 768 1064 "},"ę":{"x_min":62.390625,"x_max":761.3125,"ha":821,"o":"m 422 625 q 319 583 356 625 q 276 465 282 542 l 567 465 q 527 583 565 542 q 422 625 488 625 m 451 -14 q 165 87 268 -14 q 62 373 62 188 q 157 668 62 564 q 421 773 253 773 q 671 681 582 773 q 761 427 761 589 l 761 327 l 271 327 q 324 189 275 239 q 461 139 373 139 q 590 154 529 139 q 718 199 652 168 l 718 39 q 602 0 664 12 q 451 -14 540 -14 m 539 -140 q 555 -182 539 -168 q 594 -195 570 -195 q 671 -183 631 -195 l 671 -304 q 566 -320 616 -320 q 443 -276 489 -320 q 396 -163 396 -233 q 422 -78 396 -118 q 518 14 448 -38 l 640 14 q 566 -67 592 -30 q 539 -140 539 -104 "},"ố":{"x_min":62.390625,"x_max":874.65625,"ha":860,"o":"m 273 380 q 310 209 273 267 q 430 152 347 152 q 549 209 513 152 q 586 380 586 267 q 549 549 586 493 q 429 606 512 606 q 309 550 346 606 q 273 380 273 494 m 797 380 q 699 90 797 195 q 427 -14 602 -14 q 235 33 318 -14 q 107 171 151 81 q 62 380 62 261 q 159 669 62 566 q 432 773 256 773 q 624 725 541 773 q 752 588 708 677 q 797 380 797 500 m 677 842 l 568 842 q 425 954 492 892 q 281 842 347 886 l 172 842 l 172 860 q 317 1050 247 948 l 531 1050 q 613 939 567 997 q 677 860 658 881 l 677 842 m 617 991 q 711 1128 675 1053 l 874 1128 l 874 1113 q 720 974 829 1053 l 617 974 l 617 991 "},"Ặ":{"x_min":0,"x_max":958.328125,"ha":958,"o":"m 731 0 l 659 236 l 298 236 l 226 0 l 0 0 l 349 995 l 607 995 l 958 0 l 731 0 m 609 412 q 497 775 510 733 q 479 841 484 817 q 351 412 457 754 l 609 412 m 746 1300 q 663 1133 737 1195 q 476 1070 588 1070 q 287 1132 358 1070 q 212 1300 217 1194 l 327 1300 q 346 1249 330 1268 q 390 1223 362 1231 q 477 1215 419 1215 q 628 1300 617 1215 l 746 1300 m 366 -190 q 479 -88 366 -88 q 592 -190 592 -88 q 563 -265 592 -238 q 479 -291 535 -291 q 366 -190 366 -291 "},"S":{"x_min":63.75,"x_max":710.0625,"ha":765,"o":"m 710 275 q 613 63 710 140 q 344 -14 516 -14 q 63 45 185 -14 l 63 241 q 233 177 164 196 q 360 159 303 159 q 466 186 429 159 q 503 264 503 212 q 487 316 503 294 q 439 360 471 339 q 311 427 408 381 q 174 509 220 470 q 102 601 129 549 q 75 723 75 653 q 164 930 75 855 q 410 1006 253 1006 q 558 987 488 1006 q 705 936 628 969 l 637 772 q 506 818 558 805 q 404 831 454 831 q 312 803 344 831 q 280 730 280 775 q 293 682 280 702 q 334 641 306 661 q 467 572 362 622 q 658 438 606 505 q 710 275 710 372 "},"ễ":{"x_min":62.390625,"x_max":761.3125,"ha":821,"o":"m 422 625 q 319 583 356 625 q 276 465 282 542 l 567 465 q 527 583 565 542 q 422 625 488 625 m 451 -14 q 165 87 268 -14 q 62 373 62 188 q 157 668 62 564 q 421 773 253 773 q 671 681 582 773 q 761 427 761 589 l 761 327 l 271 327 q 324 189 275 239 q 461 139 373 139 q 590 154 529 139 q 718 199 652 168 l 718 39 q 602 0 664 12 q 451 -14 540 -14 m 522 1063 q 472 1071 497 1063 q 422 1090 446 1080 q 375 1109 397 1100 q 333 1118 352 1118 q 291 1106 306 1118 q 268 1062 277 1095 l 191 1062 q 234 1181 197 1137 q 326 1226 270 1226 q 377 1217 351 1226 q 428 1197 404 1208 q 475 1178 452 1187 q 515 1169 497 1169 q 556 1181 543 1169 q 580 1227 570 1194 l 657 1227 q 612 1105 648 1148 q 522 1063 576 1063 m 676 842 l 580 842 q 423 945 484 890 q 266 842 367 895 l 170 842 l 170 860 q 330 1037 286 971 l 516 1037 q 592 945 549 990 q 676 860 636 900 l 676 842 "},"/":{"x_min":9.5,"x_max":567.21875,"ha":574,"o":"m 567 992 l 197 0 l 9 0 l 379 992 l 567 992 "},"į":{"x_min":28.78125,"x_max":324.875,"ha":424,"o":"m 99 953 q 212 1055 99 1055 q 324 953 324 1055 q 296 879 324 905 q 212 852 268 852 q 99 953 99 852 m 315 0 l 108 0 l 108 758 l 315 758 l 315 0 m 171 -154 q 187 -196 171 -182 q 226 -209 202 -209 q 303 -197 263 -209 l 303 -318 q 198 -334 248 -334 q 75 -290 121 -334 q 28 -177 28 -247 q 54 -92 28 -132 q 150 0 80 -52 l 272 0 q 198 -81 224 -44 q 171 -154 171 -118 "},"Ế":{"x_min":124.796875,"x_max":860.65625,"ha":778,"o":"m 695 0 l 124 0 l 124 992 l 695 992 l 695 819 l 335 819 l 335 602 l 670 602 l 670 429 l 335 429 l 335 173 l 695 173 l 695 0 m 663 1071 l 554 1071 q 411 1183 478 1121 q 267 1071 333 1115 l 158 1071 l 158 1089 q 303 1279 233 1177 l 517 1279 q 599 1168 553 1226 q 663 1089 644 1110 l 663 1071 m 603 1220 q 697 1357 661 1282 l 860 1357 l 860 1342 q 706 1203 815 1282 l 603 1203 l 603 1220 "},"Ọ":{"x_min":80.703125,"x_max":1025.296875,"ha":1106,"o":"m 1025 496 q 903 118 1025 250 q 553 -14 781 -14 q 202 118 325 -14 q 80 498 80 250 q 203 876 80 745 q 554 1007 325 1007 q 904 875 783 1007 q 1025 496 1025 743 m 301 496 q 364 246 301 330 q 553 162 427 162 q 804 496 804 162 q 554 832 804 832 q 364 747 428 832 q 301 496 301 663 m 440 -190 q 553 -89 440 -89 q 665 -190 665 -89 q 637 -265 665 -238 q 553 -291 608 -291 q 440 -190 440 -291 "},"ắ":{"x_min":58.328125,"x_max":734.546875,"ha":839,"o":"m 590 0 l 550 102 l 544 102 q 437 11 492 36 q 293 -14 381 -14 q 121 48 183 -14 q 58 226 58 110 q 142 404 58 347 q 397 467 227 461 l 529 472 l 529 505 q 411 620 529 620 q 197 565 320 620 l 128 705 q 419 774 259 774 q 653 707 571 774 q 734 505 734 641 l 734 0 l 590 0 m 529 351 l 449 348 q 314 315 358 345 q 270 224 270 286 q 371 137 270 137 q 485 178 442 137 q 529 288 529 220 l 529 351 m 350 1036 q 429 1173 397 1107 l 579 1173 l 579 1158 q 439 1018 517 1084 l 350 1018 l 350 1036 m 664 1071 q 590 902 656 963 q 416 842 524 842 q 241 900 304 842 q 172 1071 178 958 l 274 1071 q 318 984 279 1012 q 417 955 357 955 q 515 987 477 955 q 560 1071 554 1019 l 664 1071 "},"Ŧ":{"x_min":27.671875,"x_max":776.421875,"ha":804,"o":"m 507 0 l 296 0 l 296 404 l 128 404 l 128 577 l 296 577 l 296 817 l 27 817 l 27 992 l 776 992 l 776 817 l 507 817 l 507 577 l 674 577 l 674 404 l 507 404 l 507 0 "},"y":{"x_min":0,"x_max":790,"ha":790,"o":"m 0 758 l 226 758 l 369 331 q 394 199 387 275 l 398 199 q 427 331 406 269 l 568 758 l 790 758 l 469 -97 q 343 -275 425 -216 q 152 -334 261 -334 q 47 -322 99 -334 l 47 -158 q 128 -167 84 -167 q 224 -133 183 -167 q 288 -32 265 -100 l 301 5 l 0 758 "},"‗":{"x_min":-2.71875,"x_max":573.71875,"ha":571,"o":"m 573 -314 l -2 -314 l -2 -219 l 573 -219 l 573 -314 m 573 -125 l -2 -125 l -2 -30 l 573 -30 l 573 -125 "},"ǿ":{"x_min":62.390625,"x_max":797.609375,"ha":860,"o":"m 797 380 q 699 90 797 195 q 427 -14 602 -14 q 269 16 342 -14 l 223 -51 l 119 19 l 165 87 q 62 380 62 193 q 159 669 62 566 q 432 773 256 773 q 600 737 521 773 l 637 793 l 740 720 l 701 663 q 797 380 797 557 m 273 380 q 286 267 273 316 l 501 590 q 429 606 472 606 q 309 550 346 606 q 273 380 273 494 m 586 380 q 577 476 586 435 l 368 162 q 430 152 394 152 q 549 209 513 152 q 586 380 586 267 m 308 842 l 308 860 q 467 1064 424 995 l 699 1064 l 699 1049 q 579 945 664 1014 q 445 842 493 875 l 308 842 "},"g":{"x_min":4.0625,"x_max":768.71875,"ha":785,"o":"m 768 759 l 768 653 l 650 623 q 682 508 682 572 q 597 318 682 386 q 360 250 512 250 l 323 252 l 293 255 q 261 201 261 230 q 375 156 261 156 l 504 156 q 694 102 628 156 q 759 -54 759 49 q 648 -260 759 -187 q 330 -334 538 -334 q 87 -278 171 -334 q 4 -123 4 -223 q 46 -9 4 -55 q 172 56 89 36 q 116 100 140 70 q 92 166 92 131 q 118 238 92 209 q 190 295 143 267 q 95 378 130 321 q 61 512 61 435 q 141 705 61 637 q 372 773 222 773 q 448 767 404 773 q 504 759 491 761 l 768 759 m 183 -107 q 224 -174 183 -150 q 339 -199 265 -199 q 513 -168 450 -199 q 576 -85 576 -138 q 539 -26 576 -42 q 424 -10 502 -10 l 316 -10 q 221 -36 259 -10 q 183 -107 183 -63 m 258 510 q 286 412 258 448 q 372 376 314 376 q 458 412 430 376 q 485 510 485 448 q 372 647 485 647 q 258 510 258 647 "},"ĸ":{"x_min":108.515625,"x_max":861,"ha":861,"o":"m 314 394 l 409 509 l 622 758 l 842 758 l 544 410 l 861 0 l 624 0 l 412 288 l 315 227 l 315 0 l 108 0 l 108 758 l 315 758 l 315 559 l 313 450 l 311 394 l 314 394 "},"²":{"x_min":31.859375,"x_max":475.859375,"ha":526,"o":"m 475 397 l 37 397 l 37 510 l 189 659 q 277 757 258 727 q 296 822 296 788 q 280 861 296 847 q 237 875 264 875 q 115 815 182 875 l 31 918 q 259 1006 131 1006 q 406 960 352 1006 q 459 836 459 915 q 427 727 459 778 q 308 597 395 676 l 237 532 l 475 532 l 475 397 "},"–":{"x_min":55.609375,"x_max":639.390625,"ha":695,"o":"m 55 296 l 55 452 l 639 452 l 639 296 l 55 296 "},"ë":{"x_min":62.390625,"x_max":761.3125,"ha":821,"o":"m 422 625 q 319 583 356 625 q 276 465 282 542 l 567 465 q 527 583 565 542 q 422 625 488 625 m 451 -14 q 165 87 268 -14 q 62 373 62 188 q 157 668 62 564 q 421 773 253 773 q 671 681 582 773 q 761 427 761 589 l 761 327 l 271 327 q 324 189 275 239 q 461 139 373 139 q 590 154 529 139 q 718 199 652 168 l 718 39 q 602 0 664 12 q 451 -14 540 -14 m 201 953 q 226 1021 201 997 q 295 1044 252 1044 q 365 1019 340 1044 q 391 953 391 994 q 365 887 391 912 q 295 863 339 863 q 226 886 252 863 q 201 953 201 910 m 474 953 q 501 1022 474 1000 q 569 1044 529 1044 q 640 1020 613 1044 q 666 953 666 995 q 639 887 666 911 q 569 863 613 863 q 501 885 529 863 q 474 953 474 907 "},"ƒ":{"x_min":133.671875,"x_max":726.4375,"ha":793,"o":"m 505 -82 q 441 -268 505 -202 q 258 -334 377 -334 q 133 -317 185 -334 l 133 -154 q 213 -167 173 -167 q 298 -51 298 -167 l 298 545 l 184 545 l 184 645 l 298 701 l 298 756 q 357 944 298 884 q 548 1005 417 1005 q 726 973 650 1005 l 677 821 q 579 840 622 840 q 505 748 505 840 l 505 701 l 659 701 l 659 545 l 505 545 l 505 -82 "},"J":{"x_min":-103.09375,"x_max":335.046875,"ha":460,"o":"m 21 -291 q -103 -276 -50 -291 l -103 -101 q -4 -114 -48 -114 q 94 -71 65 -114 q 124 63 124 -28 l 124 992 l 335 992 l 335 64 q 255 -200 335 -109 q 21 -291 176 -291 "},"Ã":{"x_min":0,"x_max":958,"ha":958,"o":"m 731 0 l 659 236 l 298 236 l 226 0 l 0 0 l 349 996 l 606 996 l 958 0 l 731 0 m 609 413 q 497 775 509 733 q 479 842 484 817 q 351 413 456 755 l 609 413 m 367 1142 q 327 1123 346 1142 q 299 1069 308 1105 l 198 1069 q 254 1223 205 1167 q 382 1279 302 1279 q 437 1267 410 1279 q 490 1243 464 1256 q 541 1218 516 1229 q 591 1207 566 1207 q 631 1225 612 1207 q 659 1280 650 1243 l 760 1280 q 704 1125 753 1181 q 576 1070 654 1070 q 521 1081 548 1070 q 468 1106 494 1092 q 417 1130 442 1119 q 367 1142 392 1142 "},"ŷ":{"x_min":0,"x_max":790,"ha":790,"o":"m 0 758 l 226 758 l 369 331 q 394 199 387 275 l 398 199 q 427 331 406 269 l 568 758 l 790 758 l 469 -97 q 343 -275 425 -216 q 152 -334 261 -334 q 47 -322 99 -334 l 47 -158 q 128 -167 84 -167 q 224 -133 183 -167 q 288 -32 265 -100 l 301 5 l 0 758 m 553 842 q 395 960 447 904 q 239 842 342 906 l 102 842 l 102 860 q 275 1064 230 988 l 517 1064 q 590 968 538 1028 q 691 860 642 907 l 691 842 l 553 842 "},"ŕ":{"x_min":108.515625,"x_max":620.484375,"ha":631,"o":"m 531 773 q 601 766 574 773 l 586 572 q 525 579 561 579 q 370 528 426 579 q 315 386 315 477 l 315 0 l 108 0 l 108 758 l 265 758 l 295 631 l 305 631 q 401 734 341 695 q 531 773 461 773 m 229 842 l 229 860 q 388 1064 345 995 l 620 1064 l 620 1049 q 500 945 585 1014 q 366 842 414 875 l 229 842 "},"©":{"x_min":67.84375,"x_max":1088.15625,"ha":1156,"o":"m 607 685 q 505 635 541 685 q 469 495 469 584 q 607 305 469 305 q 690 315 645 305 q 774 345 735 325 l 774 215 q 603 177 692 177 q 388 261 464 177 q 312 497 312 346 q 387 729 312 646 q 597 813 462 813 q 804 760 698 813 l 754 646 q 607 685 677 685 m 67 495 q 135 750 67 631 q 322 937 203 868 q 578 1006 440 1006 q 832 938 713 1006 q 1019 751 951 870 q 1088 495 1088 632 q 1022 244 1088 361 q 837 56 956 127 q 578 -14 719 -14 q 318 56 437 -14 q 133 243 200 126 q 67 495 67 361 m 164 495 q 219 288 164 384 q 371 136 275 192 q 577 81 468 81 q 785 137 689 81 q 936 289 881 192 q 991 495 991 385 q 936 703 991 606 q 784 854 880 799 q 577 909 687 909 q 370 854 466 909 q 219 702 274 798 q 164 495 164 605 "},"˘":{"x_min":153.953125,"x_max":687.71875,"ha":843,"o":"m 687 1071 q 604 904 679 966 q 417 842 530 842 q 229 903 299 842 q 153 1071 159 965 l 269 1071 q 287 1020 271 1039 q 332 994 303 1002 q 419 986 361 986 q 569 1071 558 986 l 687 1071 "},"Ă":{"x_min":0,"x_max":958,"ha":958,"o":"m 731 0 l 659 236 l 298 236 l 226 0 l 0 0 l 349 996 l 606 996 l 958 0 l 731 0 m 609 413 q 497 775 509 733 q 479 842 484 817 q 351 413 456 755 l 609 413 m 745 1300 q 662 1133 737 1195 q 475 1071 588 1071 q 287 1132 357 1071 q 211 1300 217 1194 l 327 1300 q 345 1249 329 1268 q 390 1223 361 1231 q 477 1215 419 1215 q 627 1300 616 1215 l 745 1300 "},"D":{"x_min":124.796875,"x_max":947.296875,"ha":1028,"o":"m 947 505 q 807 130 947 260 q 405 0 668 0 l 124 0 l 124 992 l 436 992 q 813 863 678 992 q 947 505 947 735 m 728 500 q 446 819 728 819 l 335 819 l 335 173 l 425 173 q 728 500 728 173 "},"ł":{"x_min":-0.140625,"x_max":458.34375,"ha":458,"o":"m 331 630 l 378 660 l 458 526 l 331 450 l 331 0 l 124 0 l 124 323 l 76 294 l 0 427 l 124 503 l 124 1055 l 331 1055 l 331 630 "},"ÿ":{"x_min":0,"x_max":790,"ha":790,"o":"m 0 758 l 226 758 l 369 331 q 394 199 387 275 l 398 199 q 427 331 406 269 l 568 758 l 790 758 l 469 -97 q 343 -275 425 -216 q 152 -334 261 -334 q 47 -322 99 -334 l 47 -158 q 128 -167 84 -167 q 224 -133 183 -167 q 288 -32 265 -100 l 301 5 l 0 758 m 165 953 q 190 1021 165 997 q 259 1044 216 1044 q 329 1019 304 1044 q 355 953 355 994 q 329 887 355 912 q 259 863 303 863 q 190 886 216 863 q 165 953 165 910 m 438 953 q 465 1022 438 1000 q 533 1044 493 1044 q 604 1020 577 1044 q 630 953 630 995 q 603 887 630 911 q 533 863 577 863 q 465 885 493 863 q 438 953 438 907 "},"ĺ":{"x_min":108.515625,"x_max":512.484375,"ha":424,"o":"m 315 0 l 108 0 l 108 1055 l 315 1055 l 315 0 m 121 1110 l 121 1128 q 280 1332 237 1263 l 512 1332 l 512 1317 q 392 1213 477 1282 q 258 1110 306 1143 l 121 1110 "},"Ł":{"x_min":1.359375,"x_max":737.53125,"ha":785,"o":"m 124 0 l 124 333 l 78 306 l 1 438 l 124 514 l 124 992 l 335 992 l 335 641 l 432 701 l 511 568 l 335 461 l 335 173 l 737 173 l 737 0 l 124 0 "}," ":{"x_min":0,"x_max":0,"ha":396},"$":{"x_min":59.703125,"x_max":740.765625,"ha":793,"o":"m 740 310 q 662 137 740 202 q 444 58 584 71 l 444 -80 l 351 -80 l 351 56 q 61 114 185 59 l 61 293 q 203 241 120 264 q 351 215 286 219 l 351 425 l 305 443 q 115 558 171 496 q 59 711 59 620 q 136 873 59 809 q 351 950 213 936 l 351 1054 l 444 1054 l 444 953 q 725 890 599 946 l 661 731 q 444 784 555 775 l 444 584 q 632 496 576 533 q 714 414 688 459 q 740 310 740 369 m 536 300 q 513 348 536 328 q 444 388 490 367 l 444 220 q 536 300 536 235 m 263 711 q 284 662 263 681 q 351 622 305 643 l 351 782 q 263 711 263 769 "},"w":{"x_min":13.5625,"x_max":1175.4375,"ha":1189,"o":"m 731 0 l 673 265 l 594 600 l 590 600 l 451 0 l 229 0 l 13 758 l 219 758 l 307 422 q 349 173 328 332 l 354 173 q 377 336 356 225 l 388 394 l 482 758 l 710 758 l 799 394 q 807 350 801 379 q 818 288 813 321 q 828 224 824 255 q 833 173 832 192 l 837 173 q 859 307 843 222 q 881 422 874 392 l 972 758 l 1175 758 l 957 0 l 731 0 "},"\\":{"x_min":8.140625,"x_max":565.859375,"ha":574,"o":"m 196 992 l 565 0 l 377 0 l 8 992 l 196 992 "},"Ì":{"x_min":-38.84375,"x_max":352.484375,"ha":460,"o":"m 124 0 l 124 992 l 335 992 l 335 0 l 124 0 m 215 1071 q 90 1167 172 1100 q -38 1278 7 1234 l -38 1293 l 193 1293 q 352 1089 235 1224 l 352 1071 l 215 1071 "},"Ç":{"x_min":80.703125,"x_max":836.171875,"ha":885,"o":"m 545 831 q 362 741 427 831 q 297 492 297 652 q 545 160 297 160 q 798 213 650 160 l 798 36 q 526 -14 676 -14 q 195 117 309 -14 q 80 494 80 248 q 136 765 80 649 q 298 943 193 881 q 545 1006 404 1006 q 836 936 690 1006 l 768 765 q 656 811 712 791 q 545 831 600 831 m 650 -170 q 599 -295 650 -256 q 440 -334 548 -334 q 341 -319 388 -334 l 341 -205 q 391 -215 360 -210 q 438 -220 422 -220 q 487 -177 487 -220 q 375 -104 487 -121 l 428 0 l 559 0 l 540 -42 q 620 -92 590 -58 q 650 -170 650 -126 "},"Ŝ":{"x_min":63.75,"x_max":710.0625,"ha":765,"o":"m 710 275 q 613 63 710 140 q 344 -14 516 -14 q 63 45 185 -14 l 63 241 q 233 177 164 196 q 360 159 303 159 q 466 186 429 159 q 503 264 503 212 q 487 316 503 294 q 439 360 471 339 q 311 427 408 381 q 174 509 220 470 q 102 601 129 549 q 75 723 75 653 q 164 930 75 855 q 410 1006 253 1006 q 558 987 488 1006 q 705 936 628 969 l 637 772 q 506 818 558 805 q 404 831 454 831 q 312 803 344 831 q 280 730 280 775 q 293 682 280 702 q 334 641 306 661 q 467 572 362 622 q 658 438 606 505 q 710 275 710 372 m 562 1071 q 404 1189 456 1133 q 248 1071 351 1135 l 111 1071 l 111 1089 q 284 1293 239 1217 l 526 1293 q 599 1197 547 1257 q 700 1089 651 1136 l 700 1071 l 562 1071 "},"C":{"x_min":80.703125,"x_max":836.171875,"ha":885,"o":"m 545 831 q 362 741 427 831 q 297 492 297 652 q 545 160 297 160 q 798 213 650 160 l 798 36 q 526 -14 676 -14 q 195 117 309 -14 q 80 494 80 248 q 136 765 80 649 q 298 943 193 881 q 545 1006 404 1006 q 836 936 690 1006 l 768 765 q 656 811 712 791 q 545 831 600 831 "},"Ḁ":{"x_min":0,"x_max":958,"ha":958,"o":"m 731 0 l 659 236 l 298 236 l 226 0 l 0 0 l 349 996 l 606 996 l 958 0 l 731 0 m 609 413 q 497 775 509 733 q 479 842 484 817 q 351 413 456 755 l 609 413 m 651 -244 q 603 -362 651 -317 q 479 -407 555 -407 q 357 -363 403 -407 q 311 -245 311 -320 q 357 -128 311 -172 q 479 -85 403 -85 q 603 -129 554 -85 q 651 -244 651 -174 m 544 -245 q 526 -197 544 -215 q 479 -180 508 -180 q 433 -197 451 -180 q 414 -245 414 -215 q 431 -293 414 -276 q 479 -311 447 -311 q 526 -293 508 -311 q 544 -245 544 -276 "},"Ē":{"x_min":124.796875,"x_max":695.9375,"ha":778,"o":"m 695 0 l 124 0 l 124 992 l 695 992 l 695 819 l 335 819 l 335 602 l 670 602 l 670 429 l 335 429 l 335 173 l 695 173 l 695 0 m 185 1214 l 645 1214 l 645 1071 l 185 1071 l 185 1214 "},"!":{"x_min":79.265625,"x_max":316.640625,"ha":397,"o":"m 282 329 l 116 329 l 81 992 l 316 992 l 282 329 m 79 97 q 109 183 79 154 q 198 212 140 212 q 285 182 254 212 q 316 97 316 152 q 285 12 316 43 q 198 -18 254 -18 q 110 12 141 -18 q 79 97 79 42 "},"ç":{"x_min":62.390625,"x_max":670.59375,"ha":714,"o":"m 416 -14 q 62 375 62 -14 q 158 670 62 568 q 434 773 254 773 q 670 721 566 773 l 609 561 q 518 593 560 581 q 434 606 476 606 q 273 376 273 606 q 434 153 273 153 q 545 169 494 153 q 646 219 596 185 l 646 42 q 545 -1 596 10 q 416 -14 494 -14 m 545 -170 q 494 -295 545 -256 q 335 -334 443 -334 q 236 -319 283 -334 l 236 -205 q 286 -215 255 -210 q 333 -220 317 -220 q 382 -177 382 -220 q 270 -104 382 -121 l 323 0 l 454 0 l 435 -42 q 515 -92 485 -58 q 545 -170 545 -126 "},"Ĵ":{"x_min":-103.09375,"x_max":526.515625,"ha":460,"o":"m 21 -291 q -103 -276 -50 -291 l -103 -101 q -4 -114 -48 -114 q 94 -71 65 -114 q 124 63 124 -28 l 124 992 l 335 992 l 335 64 q 255 -200 335 -109 q 21 -291 176 -291 m 388 1071 q 230 1189 282 1133 q 74 1071 177 1135 l -62 1071 l -62 1089 q 110 1293 65 1217 l 352 1293 q 425 1197 373 1257 q 526 1089 477 1136 l 526 1071 l 388 1071 "},"Ẻ":{"x_min":124.796875,"x_max":695.9375,"ha":778,"o":"m 695 0 l 124 0 l 124 992 l 695 992 l 695 819 l 335 819 l 335 602 l 670 602 l 670 429 l 335 429 l 335 173 l 695 173 l 695 0 m 589 1237 q 479 1104 589 1131 l 472 1056 l 354 1056 l 339 1155 q 408 1180 389 1163 q 426 1223 426 1198 q 412 1256 426 1245 q 374 1268 398 1268 q 280 1252 330 1268 l 280 1366 q 336 1377 301 1373 q 400 1382 372 1382 q 542 1344 495 1382 q 589 1237 589 1306 "},"È":{"x_min":124.796875,"x_max":695.9375,"ha":778,"o":"m 695 0 l 124 0 l 124 992 l 695 992 l 695 819 l 335 819 l 335 602 l 670 602 l 670 429 l 335 429 l 335 173 l 695 173 l 695 0 m 429 1071 q 304 1167 386 1100 q 175 1278 221 1234 l 175 1293 l 407 1293 q 566 1089 449 1224 l 566 1071 l 429 1071 "},"X":{"x_min":0,"x_max":926,"ha":926,"o":"m 926 0 l 685 0 l 455 375 l 225 0 l 0 0 l 328 511 l 21 992 l 252 992 l 466 635 l 675 992 l 902 992 l 591 500 l 926 0 "},"ô":{"x_min":62.390625,"x_max":797.609375,"ha":860,"o":"m 273 380 q 310 209 273 267 q 430 152 347 152 q 549 209 513 152 q 586 380 586 267 q 549 549 586 493 q 429 606 512 606 q 309 550 346 606 q 273 380 273 494 m 797 380 q 699 90 797 195 q 427 -14 602 -14 q 235 33 318 -14 q 107 171 151 81 q 62 380 62 261 q 159 669 62 566 q 432 773 256 773 q 624 725 541 773 q 752 588 708 677 q 797 380 797 500 m 585 842 q 427 960 479 904 q 271 842 374 906 l 134 842 l 134 860 q 307 1064 262 988 l 549 1064 q 622 968 570 1028 q 723 860 674 907 l 723 842 l 585 842 "},"Ė":{"x_min":124.796875,"x_max":695.9375,"ha":778,"o":"m 695 0 l 124 0 l 124 992 l 695 992 l 695 819 l 335 819 l 335 602 l 670 602 l 670 429 l 335 429 l 335 173 l 695 173 l 695 0 m 305 1164 q 418 1265 305 1265 q 530 1164 530 1265 q 502 1089 530 1116 q 418 1063 474 1063 q 305 1164 305 1063 "},"Ā":{"x_min":0,"x_max":958,"ha":958,"o":"m 731 0 l 659 236 l 298 236 l 226 0 l 0 0 l 349 996 l 606 996 l 958 0 l 731 0 m 609 413 q 497 775 509 733 q 479 842 484 817 q 351 413 456 755 l 609 413 m 251 1214 l 711 1214 l 711 1071 l 251 1071 l 251 1214 "},"ċ":{"x_min":62.390625,"x_max":670.59375,"ha":714,"o":"m 416 -14 q 62 375 62 -14 q 158 670 62 568 q 434 773 254 773 q 670 721 566 773 l 609 561 q 518 593 560 581 q 434 606 476 606 q 273 376 273 606 q 434 153 273 153 q 545 169 494 153 q 646 219 596 185 l 646 42 q 545 -1 596 10 q 416 -14 494 -14 m 313 954 q 426 1055 313 1055 q 538 954 538 1055 q 510 879 538 906 q 426 853 482 853 q 313 954 313 853 "},"đ":{"x_min":62.390625,"x_max":875.90625,"ha":901,"o":"m 341 -14 q 136 83 211 -14 q 62 356 62 181 q 129 638 62 547 q 348 730 196 730 q 478 701 421 730 q 572 618 536 673 l 578 618 q 563 776 563 707 l 563 811 l 349 811 l 349 946 l 563 946 l 563 1055 l 770 1055 l 770 946 l 875 946 l 875 811 l 770 811 l 770 0 l 602 0 l 559 97 l 551 97 q 341 -14 480 -14 m 429 150 q 539 192 503 150 q 577 335 574 234 l 577 354 q 543 518 577 474 q 418 561 509 561 q 315 515 343 561 q 287 353 287 468 q 321 201 287 252 q 429 150 355 150 "},"ấ":{"x_min":58.328125,"x_max":866.65625,"ha":839,"o":"m 590 0 l 550 102 l 544 102 q 437 11 492 36 q 293 -14 381 -14 q 121 48 183 -14 q 58 226 58 110 q 142 404 58 347 q 397 467 227 461 l 529 472 l 529 505 q 411 620 529 620 q 197 565 320 620 l 128 705 q 419 774 259 774 q 653 707 571 774 q 734 505 734 641 l 734 0 l 590 0 m 529 351 l 449 348 q 314 315 358 345 q 270 224 270 286 q 371 137 270 137 q 485 178 442 137 q 529 288 529 220 l 529 351 m 669 842 l 560 842 q 417 954 484 892 q 273 842 339 886 l 164 842 l 164 860 q 309 1050 239 948 l 523 1050 q 605 939 559 997 q 669 860 650 881 l 669 842 m 609 991 q 703 1128 667 1053 l 866 1128 l 866 1113 q 712 974 821 1053 l 609 974 l 609 991 "},"Ẃ":{"x_min":0,"x_max":1343,"ha":1343,"o":"m 1090 0 l 851 0 l 716 521 q 691 636 709 549 q 670 753 673 723 q 650 635 666 716 q 625 519 634 554 l 491 0 l 253 0 l 0 992 l 206 992 l 333 450 q 381 190 366 300 q 400 310 385 229 q 427 436 415 391 l 572 992 l 771 992 l 915 436 q 939 322 925 398 q 961 190 953 245 q 982 322 967 243 q 1009 450 997 401 l 1136 992 l 1343 992 l 1090 0 m 525 1071 l 525 1089 q 684 1293 641 1224 l 916 1293 l 916 1278 q 796 1174 881 1243 q 662 1071 710 1104 l 525 1071 "},"Ŀ":{"x_min":124.796875,"x_max":737.53125,"ha":785,"o":"m 124 0 l 124 992 l 335 992 l 335 173 l 737 173 l 737 0 l 124 0 m 478 509 q 591 610 478 610 q 703 509 703 610 q 675 434 703 461 q 591 408 647 408 q 478 509 478 408 "},"ț":{"x_min":31.890625,"x_max":558.234375,"ha":603,"o":"m 427 150 q 558 174 482 150 l 558 20 q 368 -14 480 -14 q 187 48 244 -14 q 130 237 130 111 l 130 602 l 31 602 l 31 690 l 145 759 l 205 919 l 337 919 l 337 758 l 550 758 l 550 602 l 337 602 l 337 236 q 362 171 337 192 q 427 150 387 150 m 203 -288 q 226 -191 213 -255 q 245 -85 240 -128 l 436 -85 l 436 -98 q 324 -307 386 -212 l 203 -307 l 203 -288 "},"ŋ":{"x_min":108.515625,"x_max":808.546875,"ha":913,"o":"m 562 -334 q 437 -317 489 -334 l 437 -154 q 518 -167 477 -167 q 601 -51 601 -167 l 601 458 q 479 607 601 607 q 354 549 392 607 q 315 357 315 491 l 315 0 l 108 0 l 108 758 l 266 758 l 294 661 l 307 661 q 400 744 341 715 q 539 773 460 773 q 740 701 671 773 q 808 494 808 629 l 808 -82 q 744 -268 808 -203 q 562 -334 681 -334 "},"}":{"x_min":55.609375,"x_max":526,"ha":547,"o":"m 352 -30 q 324 -145 352 -106 q 232 -202 297 -184 q 55 -220 168 -220 l 55 -66 q 148 -42 122 -65 q 173 28 173 -19 l 173 231 l 173 239 q 213 334 173 297 q 331 381 253 370 l 331 390 q 173 540 177 413 l 173 743 q 148 814 173 791 q 55 839 123 837 l 55 992 q 233 974 168 992 q 325 917 297 956 q 352 803 352 877 l 352 587 l 352 580 q 394 495 352 523 q 526 466 435 466 l 526 304 q 396 276 441 304 q 352 183 352 248 l 352 -30 "},"â":{"x_min":58.328125,"x_max":734.546875,"ha":839,"o":"m 590 0 l 550 102 l 544 102 q 437 11 492 36 q 293 -14 381 -14 q 121 48 183 -14 q 58 226 58 110 q 142 404 58 347 q 397 467 227 461 l 529 472 l 529 505 q 411 620 529 620 q 197 565 320 620 l 128 705 q 419 774 259 774 q 653 707 571 774 q 734 505 734 641 l 734 0 l 590 0 m 529 351 l 449 348 q 314 315 358 345 q 270 224 270 286 q 371 137 270 137 q 485 178 442 137 q 529 288 529 220 l 529 351 m 571 841 q 413 959 465 903 q 257 841 360 905 l 120 841 l 120 859 q 293 1063 248 987 l 535 1063 q 608 967 556 1027 q 709 859 660 906 l 709 841 l 571 841 "},"ø":{"x_min":62.390625,"x_max":797.609375,"ha":860,"o":"m 797 380 q 699 90 797 195 q 427 -14 602 -14 q 269 16 342 -14 l 223 -51 l 119 19 l 165 87 q 62 380 62 193 q 159 669 62 566 q 432 773 256 773 q 600 737 521 773 l 637 793 l 740 720 l 701 663 q 797 380 797 557 m 273 380 q 286 267 273 316 l 501 590 q 429 606 472 606 q 309 550 346 606 q 273 380 273 494 m 586 380 q 577 476 586 435 l 368 162 q 430 152 394 152 q 549 209 513 152 q 586 380 586 267 "},"‰":{"x_min":42.734375,"x_max":1736.265625,"ha":1779,"o":"m 213 694 q 228 565 213 608 q 278 523 244 523 q 343 694 343 523 q 278 864 343 864 q 228 822 244 864 q 213 694 213 780 m 514 695 q 453 461 514 539 q 276 383 393 383 q 103 463 164 383 q 42 695 42 543 q 276 1006 42 1006 q 452 925 391 1006 q 514 695 514 845 m 980 992 l 430 0 l 267 0 l 817 992 l 980 992 m 907 298 q 923 170 907 212 q 972 127 938 127 q 1037 298 1037 127 q 972 468 1037 468 q 923 426 938 468 q 907 298 907 384 m 1208 300 q 1147 66 1208 144 q 970 -12 1087 -12 q 797 68 858 -12 q 736 300 736 148 q 970 610 736 610 q 1146 529 1085 610 q 1208 300 1208 449 m 1436 298 q 1451 170 1436 212 q 1500 127 1466 127 q 1565 298 1565 127 q 1500 468 1565 468 q 1451 426 1466 468 q 1436 298 1436 384 m 1736 300 q 1676 66 1736 145 q 1498 -12 1616 -12 q 1326 68 1387 -12 q 1265 300 1265 148 q 1498 610 1265 610 q 1674 529 1613 610 q 1736 300 1736 449 m 1251 0 l 1251 0 "},"Ä":{"x_min":0,"x_max":958,"ha":958,"o":"m 731 0 l 659 236 l 298 236 l 226 0 l 0 0 l 349 996 l 606 996 l 958 0 l 731 0 m 609 413 q 497 775 509 733 q 479 842 484 817 q 351 413 456 755 l 609 413 m 247 1182 q 272 1250 247 1226 q 341 1273 298 1273 q 411 1248 386 1273 q 437 1182 437 1223 q 411 1116 437 1141 q 341 1092 385 1092 q 272 1115 298 1092 q 247 1182 247 1139 m 520 1182 q 547 1251 520 1229 q 615 1273 575 1273 q 686 1249 659 1273 q 712 1182 712 1224 q 685 1116 712 1140 q 615 1092 659 1092 q 547 1114 575 1092 q 520 1182 520 1136 "},"Ỵ":{"x_min":0.09375,"x_max":866.859375,"ha":867,"o":"m 433 583 l 640 992 l 866 992 l 537 386 l 537 0 l 329 0 l 329 379 l 0 992 l 227 992 l 433 583 m 319 -190 q 432 -89 319 -89 q 544 -190 544 -89 q 516 -265 544 -238 q 432 -291 487 -291 q 319 -190 319 -291 "},"ř":{"x_min":56.140625,"x_max":645.515625,"ha":631,"o":"m 531 773 q 601 766 574 773 l 586 572 q 525 579 561 579 q 370 528 426 579 q 315 386 315 477 l 315 0 l 108 0 l 108 758 l 265 758 l 295 631 l 305 631 q 401 734 341 695 q 531 773 461 773 m 645 1064 l 645 1045 q 540 932 588 988 q 471 842 492 875 l 229 842 q 173 918 210 873 q 56 1045 136 962 l 56 1064 l 193 1064 q 349 945 293 1001 q 507 1064 406 1003 l 645 1064 "},"—":{"x_min":55.609375,"x_max":1333.390625,"ha":1389,"o":"m 55 296 l 55 452 l 1333 452 l 1333 296 l 55 296 "},"N":{"x_min":124.796875,"x_max":1004.21875,"ha":1129,"o":"m 1004 0 l 737 0 l 305 750 l 299 750 q 312 466 312 551 l 312 0 l 124 0 l 124 992 l 389 992 l 820 249 l 825 249 q 814 522 814 442 l 814 992 l 1004 992 l 1004 0 "},"⁄":{"x_min":-266.546875,"x_max":445.59375,"ha":180,"o":"m 445 992 l -104 0 l -266 0 l 283 992 l 445 992 "},"2":{"x_min":52.921875,"x_max":748.90625,"ha":793,"o":"m 748 0 l 55 0 l 55 145 l 304 397 q 449 554 415 510 q 497 635 483 598 q 512 712 512 672 q 479 801 512 772 q 392 831 447 831 q 280 804 334 831 q 166 729 225 778 l 52 864 q 174 952 126 926 q 279 992 222 978 q 407 1006 336 1006 q 571 972 499 1006 q 681 877 642 938 q 721 737 721 816 q 697 608 721 668 q 622 485 672 548 q 444 305 571 422 l 316 185 l 316 176 l 748 176 l 748 0 "},"ü":{"x_min":104.453125,"x_max":804.484375,"ha":913,"o":"m 645 0 l 617 96 l 607 96 q 512 14 573 43 q 373 -14 451 -14 q 172 57 240 -14 q 104 263 104 129 l 104 758 l 311 758 l 311 314 q 340 191 311 232 q 433 150 369 150 q 558 208 520 150 q 597 401 597 266 l 597 758 l 804 758 l 804 0 l 645 0 m 221 953 q 246 1021 221 997 q 315 1044 272 1044 q 385 1019 360 1044 q 411 953 411 994 q 385 887 411 912 q 315 863 359 863 q 246 886 272 863 q 221 953 221 910 m 494 953 q 521 1022 494 1000 q 589 1044 549 1044 q 660 1020 633 1044 q 686 953 686 995 q 659 887 686 911 q 589 863 633 863 q 521 885 549 863 q 494 953 494 907 "},"˜":{"x_min":140.375,"x_max":702.640625,"ha":843,"o":"m 309 913 q 269 894 288 913 q 241 840 250 876 l 140 840 q 196 994 147 938 q 324 1050 244 1050 q 379 1038 352 1050 q 432 1014 406 1027 q 483 989 458 1000 q 533 978 508 978 q 573 996 554 978 q 601 1051 592 1014 l 702 1051 q 646 896 695 952 q 518 841 596 841 q 463 852 490 841 q 410 877 436 863 q 359 901 384 890 q 309 913 334 913 "},"Ó":{"x_min":80.703125,"x_max":1025.296875,"ha":1106,"o":"m 1025 496 q 903 118 1025 250 q 553 -14 781 -14 q 202 118 325 -14 q 80 498 80 250 q 203 876 80 745 q 554 1007 325 1007 q 904 875 783 1007 q 1025 496 1025 743 m 301 496 q 364 246 301 330 q 553 162 427 162 q 804 496 804 162 q 554 832 804 832 q 364 747 428 832 q 301 496 301 663 m 446 1071 l 446 1089 q 605 1293 562 1224 l 837 1293 l 837 1278 q 717 1174 802 1243 q 583 1071 631 1104 l 446 1071 "}," ":{"x_min":0,"x_max":0,"ha":695},"ˇ":{"x_min":126.140625,"x_max":715.515625,"ha":843,"o":"m 715 1064 l 715 1045 q 610 932 658 988 q 541 842 562 875 l 299 842 q 243 918 280 873 q 126 1045 206 962 l 126 1064 l 263 1064 q 419 945 363 1001 q 577 1064 476 1003 l 715 1064 "},"Ÿ":{"x_min":0.09375,"x_max":866.859375,"ha":867,"o":"m 433 583 l 640 992 l 866 992 l 537 386 l 537 0 l 329 0 l 329 379 l 0 992 l 227 992 l 433 583 m 201 1182 q 226 1250 201 1226 q 295 1273 252 1273 q 365 1248 340 1273 q 391 1182 391 1223 q 365 1116 391 1141 q 295 1092 339 1092 q 226 1115 252 1092 q 201 1182 201 1139 m 474 1182 q 501 1251 474 1229 q 569 1273 529 1273 q 640 1249 613 1273 q 666 1182 666 1224 q 639 1116 666 1140 q 569 1092 613 1092 q 501 1114 529 1092 q 474 1182 474 1136 "},"ų":{"x_min":104.453125,"x_max":804.484375,"ha":913,"o":"m 645 0 l 617 96 l 607 96 q 512 14 573 43 q 373 -14 451 -14 q 172 57 240 -14 q 104 263 104 129 l 104 758 l 311 758 l 311 314 q 340 191 311 232 q 433 150 369 150 q 558 208 520 150 q 597 401 597 266 l 597 758 l 804 758 l 804 0 l 645 0 m 664 -154 q 680 -196 664 -182 q 719 -209 695 -209 q 796 -197 756 -209 l 796 -318 q 691 -334 741 -334 q 568 -290 614 -334 q 521 -177 521 -247 q 547 -92 521 -132 q 643 0 573 -52 l 765 0 q 691 -81 717 -44 q 664 -154 664 -118 "},"Ŭ":{"x_min":118.015625,"x_max":931.984375,"ha":1050,"o":"m 931 992 l 931 349 q 882 157 931 239 q 740 30 833 74 q 520 -14 647 -14 q 223 84 329 -14 q 118 352 118 182 l 118 992 l 327 992 l 327 384 q 373 215 327 269 q 526 162 419 162 q 675 216 629 162 q 722 385 722 270 l 722 992 l 931 992 m 791 1300 q 708 1133 783 1195 q 521 1071 634 1071 q 333 1132 403 1071 q 257 1300 263 1194 l 373 1300 q 391 1249 375 1268 q 436 1223 407 1231 q 523 1215 465 1215 q 673 1300 662 1215 l 791 1300 "},"ĝ":{"x_min":4.0625,"x_max":768.71875,"ha":785,"o":"m 768 759 l 768 653 l 650 623 q 682 508 682 572 q 597 318 682 386 q 360 250 512 250 l 323 252 l 293 255 q 261 201 261 230 q 375 156 261 156 l 504 156 q 694 102 628 156 q 759 -54 759 49 q 648 -260 759 -187 q 330 -334 538 -334 q 87 -278 171 -334 q 4 -123 4 -223 q 46 -9 4 -55 q 172 56 89 36 q 116 100 140 70 q 92 166 92 131 q 118 238 92 209 q 190 295 143 267 q 95 378 130 321 q 61 512 61 435 q 141 705 61 637 q 372 773 222 773 q 448 767 404 773 q 504 759 491 761 l 768 759 m 183 -107 q 224 -174 183 -150 q 339 -199 265 -199 q 513 -168 450 -199 q 576 -85 576 -138 q 539 -26 576 -42 q 424 -10 502 -10 l 316 -10 q 221 -36 259 -10 q 183 -107 183 -63 m 258 510 q 286 412 258 448 q 372 376 314 376 q 458 412 430 376 q 485 510 485 448 q 372 647 485 647 q 258 510 258 647 m 553 842 q 395 960 447 904 q 239 842 342 906 l 102 842 l 102 860 q 275 1064 230 988 l 517 1064 q 590 968 538 1028 q 691 860 642 907 l 691 842 l 553 842 "},"ß":{"x_min":108.515625,"x_max":939.15625,"ha":988,"o":"m 847 841 q 833 765 847 798 q 797 706 819 732 q 750 661 775 680 q 703 625 725 641 q 667 594 681 609 q 653 565 653 580 q 671 529 653 547 q 734 484 689 511 q 868 389 833 423 q 921 315 904 356 q 939 220 939 273 q 860 45 939 104 q 626 -14 781 -14 q 510 -4 559 -14 q 421 28 462 5 l 421 192 q 513 151 457 168 q 612 134 569 134 q 726 218 726 134 q 716 263 726 245 q 677 300 705 280 q 599 349 649 321 q 480 439 513 398 q 447 534 447 479 q 470 613 447 577 q 542 683 494 649 q 615 747 594 720 q 636 805 636 774 q 593 874 636 846 q 482 901 550 901 q 359 865 403 901 q 315 765 315 830 l 315 0 l 108 0 l 108 772 q 207 986 108 909 q 482 1063 307 1063 q 747 1002 648 1063 q 847 841 847 942 "},"Ể":{"x_min":124.796875,"x_max":799.625,"ha":778,"o":"m 695 0 l 124 0 l 124 992 l 695 992 l 695 819 l 335 819 l 335 602 l 670 602 l 670 429 l 335 429 l 335 173 l 695 173 l 695 0 m 799 1335 q 714 1241 799 1258 l 710 1200 l 624 1200 l 617 1278 q 677 1290 655 1280 q 699 1320 699 1301 q 687 1345 699 1335 q 645 1355 674 1355 q 596 1348 621 1355 l 596 1434 q 659 1439 611 1439 q 761 1414 722 1439 q 799 1335 799 1390 m 663 1071 l 554 1071 q 411 1183 478 1121 q 267 1071 333 1115 l 158 1071 l 158 1089 q 303 1279 233 1177 l 517 1279 q 599 1168 553 1226 q 663 1089 644 1110 l 663 1071 "},"s":{"x_min":62.390625,"x_max":637.09375,"ha":690,"o":"m 637 224 q 556 47 637 108 q 313 -14 475 -14 q 172 -2 231 -14 q 63 30 114 8 l 63 201 q 193 155 121 173 q 320 137 265 137 q 432 202 432 137 q 418 242 432 226 q 366 276 403 257 q 269 322 329 296 q 140 390 181 358 q 81 461 99 421 q 62 561 62 502 q 140 717 62 662 q 362 773 218 773 q 628 713 499 773 l 566 564 q 460 604 509 588 q 359 619 410 619 q 267 570 267 619 q 297 521 267 542 q 426 461 326 501 q 556 394 515 425 q 617 322 597 362 q 637 224 637 281 "},"ẳ":{"x_min":58.328125,"x_max":734.546875,"ha":839,"o":"m 590 0 l 550 102 l 544 102 q 437 11 492 36 q 293 -14 381 -14 q 121 48 183 -14 q 58 226 58 110 q 142 404 58 347 q 397 467 227 461 l 529 472 l 529 505 q 411 620 529 620 q 197 565 320 620 l 128 705 q 419 774 259 774 q 653 707 571 774 q 734 505 734 641 l 734 0 l 590 0 m 529 351 l 449 348 q 314 315 358 345 q 270 224 270 286 q 371 137 270 137 q 485 178 442 137 q 529 288 529 220 l 529 351 m 519 1128 q 503 1071 519 1093 q 449 1036 486 1049 l 445 1009 l 372 1009 l 366 1083 q 413 1097 400 1089 q 427 1123 427 1106 q 387 1150 427 1150 q 331 1145 351 1150 l 331 1215 q 393 1220 346 1220 q 486 1197 452 1220 q 519 1128 519 1174 m 277 1071 q 321 988 282 1020 q 420 955 359 955 q 519 985 482 955 q 563 1071 557 1014 l 664 1071 q 595 899 658 957 q 421 842 532 842 q 246 902 312 842 q 172 1071 180 963 l 277 1071 "},"Ű":{"x_min":118.015625,"x_max":931.984375,"ha":1050,"o":"m 931 992 l 931 349 q 882 157 931 239 q 740 30 833 74 q 520 -14 647 -14 q 223 84 329 -14 q 118 352 118 182 l 118 992 l 327 992 l 327 384 q 373 215 327 269 q 526 162 419 162 q 675 216 629 162 q 722 385 722 270 l 722 992 l 931 992 m 298 1071 l 298 1089 q 378 1206 340 1146 q 430 1293 416 1265 l 634 1293 l 634 1278 q 535 1175 612 1242 q 408 1071 458 1107 l 298 1071 m 567 1071 l 567 1089 q 700 1293 662 1219 l 904 1293 l 904 1278 q 819 1187 887 1249 q 677 1071 750 1125 l 567 1071 "},"?":{"x_min":4.078125,"x_max":629.75,"ha":663,"o":"m 187 329 l 187 379 q 215 492 187 444 q 317 594 243 540 q 411 677 388 645 q 433 748 433 709 q 401 816 433 793 q 310 839 368 839 q 78 772 208 839 l 4 921 q 325 1006 155 1006 q 547 938 464 1006 q 629 759 629 871 q 595 630 629 685 q 466 508 561 576 q 384 435 401 460 q 367 369 367 410 l 367 329 l 187 329 m 165 97 q 196 183 165 154 q 285 212 226 212 q 372 182 341 212 q 403 97 403 152 q 371 12 403 43 q 285 -18 340 -18 q 196 12 228 -18 q 165 97 165 42 "},"ỡ":{"x_min":62.390625,"x_max":1007.171875,"ha":943,"o":"m 797 380 q 699 90 797 195 q 427 -14 602 -14 q 235 33 318 -14 q 107 171 151 81 q 62 380 62 261 q 159 669 62 566 q 432 773 256 773 q 575 749 508 773 q 691 679 643 726 q 792 873 792 709 l 997 873 l 1007 858 q 959 713 988 767 q 881 624 929 660 q 762 570 833 587 q 797 380 797 485 m 273 380 q 310 209 273 267 q 430 152 347 152 q 549 209 513 152 q 586 380 586 267 q 549 549 586 493 q 429 606 512 606 q 309 550 346 606 q 273 380 273 494 m 860 0 l 860 0 m 323 913 q 283 894 302 913 q 255 840 264 876 l 154 840 q 210 994 161 938 q 338 1050 258 1050 q 393 1038 366 1050 q 446 1014 420 1027 q 497 989 472 1000 q 547 978 522 978 q 587 996 568 978 q 615 1051 606 1014 l 716 1051 q 660 896 709 952 q 532 841 610 841 q 477 852 504 841 q 424 877 450 863 q 373 901 398 890 q 323 913 348 913 "},"Ņ":{"x_min":124.796875,"x_max":1004.21875,"ha":1129,"o":"m 1004 0 l 737 0 l 305 750 l 299 750 q 312 466 312 551 l 312 0 l 124 0 l 124 992 l 389 992 l 820 249 l 825 249 q 814 522 814 442 l 814 992 l 1004 992 l 1004 0 m 405 -288 q 428 -191 415 -255 q 447 -85 442 -128 l 638 -85 l 638 -98 q 526 -307 588 -212 l 405 -307 l 405 -288 "},"c":{"x_min":62.390625,"x_max":670.59375,"ha":714,"o":"m 416 -14 q 62 375 62 -14 q 158 670 62 568 q 434 773 254 773 q 670 721 566 773 l 609 561 q 518 593 560 581 q 434 606 476 606 q 273 376 273 606 q 434 153 273 153 q 545 169 494 153 q 646 219 596 185 l 646 42 q 545 -1 596 10 q 416 -14 494 -14 "},"¶":{"x_min":76.78125,"x_max":791.859375,"ha":910,"o":"m 791 -176 l 682 -176 l 682 919 l 570 919 l 570 -176 l 460 -176 l 460 379 q 361 367 418 367 q 145 451 214 367 q 76 706 76 536 q 150 968 76 882 q 382 1055 224 1055 l 791 1055 l 791 -176 "},"Ī":{"x_min":1.9375,"x_max":461.765625,"ha":460,"o":"m 124 0 l 124 992 l 335 992 l 335 0 l 124 0 m 1 1214 l 461 1214 l 461 1071 l 1 1071 l 1 1214 "},"•":{"x_min":66.4375,"x_max":455.734375,"ha":522,"o":"m 66 506 q 116 666 66 611 q 261 722 166 722 q 404 666 354 722 q 455 506 455 610 q 404 347 455 403 q 261 291 353 291 q 116 347 167 291 q 66 506 66 403 "},"Ὅ":{"x_min":-270.078125,"x_max":1081.296875,"ha":1161,"o":"m 1081 496 q 959 118 1081 250 q 609 -14 837 -14 q 258 118 381 -14 q 136 498 136 250 q 259 876 136 745 q 610 1007 381 1007 q 960 875 839 1007 q 1081 496 1081 743 m 357 496 q 420 246 357 330 q 609 162 483 162 q 860 496 860 162 q 610 832 860 832 q 420 747 484 832 q 357 496 357 663 m -270 858 q -218 952 -270 914 q -71 1003 -166 990 l -71 952 q -144 925 -120 937 q -167 893 -167 912 q -155 874 -167 880 q -127 862 -142 868 q -99 848 -112 857 q -86 820 -86 839 q -108 780 -86 795 q -174 765 -129 765 q -244 790 -219 765 q -270 858 -270 815 m -35 788 l -22 834 q 20 993 5 933 l 197 993 l 197 979 q 57 771 169 915 l -35 771 l -35 788 "},"(":{"x_min":55.921875,"x_max":429.625,"ha":471,"o":"m 55 380 q 108 717 55 560 q 260 992 161 873 l 429 992 q 285 704 334 861 q 236 381 236 547 q 286 60 236 215 q 428 -220 336 -94 l 260 -220 q 108 49 160 -104 q 55 380 55 203 "},"Ụ":{"x_min":118.015625,"x_max":931.984375,"ha":1050,"o":"m 931 992 l 931 349 q 882 157 931 239 q 740 30 833 74 q 520 -14 647 -14 q 223 84 329 -14 q 118 352 118 182 l 118 992 l 327 992 l 327 384 q 373 215 327 269 q 526 162 419 162 q 675 216 629 162 q 722 385 722 270 l 722 992 l 931 992 m 412 -190 q 525 -89 412 -89 q 637 -190 637 -89 q 609 -265 637 -238 q 525 -291 580 -291 q 412 -190 412 -291 "},"◊":{"x_min":59.703125,"x_max":748.9375,"ha":810,"o":"m 748 498 l 442 0 l 365 0 l 59 498 l 365 999 l 442 999 l 748 498 m 569 498 l 404 776 l 238 498 l 404 221 l 569 498 "},"Ỗ":{"x_min":80.703125,"x_max":1025.296875,"ha":1106,"o":"m 1025 496 q 903 118 1025 250 q 553 -14 781 -14 q 202 118 325 -14 q 80 498 80 250 q 203 876 80 745 q 554 1007 325 1007 q 904 875 783 1007 q 1025 496 1025 743 m 301 496 q 364 246 301 330 q 553 162 427 162 q 804 496 804 162 q 554 832 804 832 q 364 747 428 832 q 301 496 301 663 m 650 1292 q 600 1300 625 1292 q 550 1319 574 1309 q 503 1338 525 1329 q 461 1347 480 1347 q 419 1335 434 1347 q 396 1291 405 1324 l 319 1291 q 362 1410 325 1366 q 454 1455 398 1455 q 505 1446 479 1455 q 556 1426 532 1437 q 603 1407 580 1416 q 643 1398 625 1398 q 684 1410 671 1398 q 708 1456 698 1423 l 785 1456 q 740 1334 776 1377 q 650 1292 704 1292 m 804 1071 l 708 1071 q 551 1174 612 1119 q 394 1071 495 1124 l 298 1071 l 298 1089 q 458 1266 414 1200 l 644 1266 q 720 1174 677 1219 q 804 1089 764 1129 l 804 1071 "},"­":{"x_min":41.375,"x_max":405.625,"ha":447,"o":"m 41 287 l 41 457 l 405 457 l 405 287 l 41 287 "},"Ħ":{"x_min":0,"x_max":1063,"ha":1063,"o":"m 937 860 l 1063 860 l 1063 725 l 937 725 l 937 0 l 727 0 l 727 428 l 335 428 l 335 0 l 124 0 l 124 725 l 0 725 l 0 860 l 124 860 l 124 992 l 335 992 l 335 860 l 727 860 l 727 992 l 937 992 l 937 860 m 727 603 l 727 725 l 335 725 l 335 603 l 727 603 "},":":{"x_min":79.359375,"x_max":316.734375,"ha":396,"o":"m 79 97 q 109 183 79 154 q 198 212 140 212 q 285 182 255 212 q 316 97 316 152 q 285 12 316 43 q 198 -18 254 -18 q 110 12 141 -18 q 79 97 79 42 m 79 657 q 109 743 79 714 q 198 773 140 773 q 285 743 255 773 q 316 657 316 713 q 285 572 316 602 q 198 542 253 542 q 110 572 141 542 q 79 657 79 602 "},"Û":{"x_min":118.015625,"x_max":931.984375,"ha":1050,"o":"m 931 992 l 931 349 q 882 157 931 239 q 740 30 833 74 q 520 -14 647 -14 q 223 84 329 -14 q 118 352 118 182 l 118 992 l 327 992 l 327 384 q 373 215 327 269 q 526 162 419 162 q 675 216 629 162 q 722 385 722 270 l 722 992 l 931 992 m 681 1071 q 523 1189 575 1133 q 367 1071 470 1135 l 230 1071 l 230 1089 q 403 1293 358 1217 l 645 1293 q 718 1197 666 1257 q 819 1089 770 1136 l 819 1071 l 681 1071 "},"Ầ":{"x_min":0,"x_max":958,"ha":958,"o":"m 731 0 l 659 236 l 298 236 l 226 0 l 0 0 l 349 996 l 606 996 l 958 0 l 731 0 m 609 413 q 497 775 509 733 q 479 842 484 817 q 351 413 456 755 l 609 413 m 226 1089 q 372 1279 302 1177 l 586 1279 q 662 1174 619 1230 q 732 1089 705 1119 l 732 1071 l 622 1071 q 479 1183 556 1115 q 336 1071 407 1118 l 226 1071 l 226 1089 m 286 1203 l 183 1203 q 29 1342 72 1283 l 29 1357 l 193 1357 q 286 1220 229 1281 l 286 1203 "},"ś":{"x_min":62.390625,"x_max":637.09375,"ha":690,"o":"m 637 224 q 556 47 637 108 q 313 -14 475 -14 q 172 -2 231 -14 q 63 30 114 8 l 63 201 q 193 155 121 173 q 320 137 265 137 q 432 202 432 137 q 418 242 432 226 q 366 276 403 257 q 269 322 329 296 q 140 390 181 358 q 81 461 99 421 q 62 561 62 502 q 140 717 62 662 q 362 773 218 773 q 628 713 499 773 l 566 564 q 460 604 509 588 q 359 619 410 619 q 267 570 267 619 q 297 521 267 542 q 426 461 326 501 q 556 394 515 425 q 617 322 597 362 q 637 224 637 281 m 232 842 l 232 860 q 391 1064 348 995 l 623 1064 l 623 1049 q 503 945 588 1014 q 369 842 417 875 l 232 842 "},"V":{"x_min":0,"x_max":903,"ha":903,"o":"m 690 992 l 903 992 l 565 0 l 336 0 l 0 992 l 212 992 l 398 401 q 431 279 414 349 q 451 183 447 210 q 502 401 459 245 l 690 992 "},"Ŗ":{"x_min":124.796875,"x_max":917,"ha":917,"o":"m 335 552 l 402 552 q 550 585 502 552 q 597 689 597 618 q 549 789 597 760 q 398 819 500 819 l 335 819 l 335 552 m 335 381 l 335 0 l 124 0 l 124 992 l 413 992 q 712 918 615 992 q 809 695 809 844 q 761 539 809 607 q 625 432 713 471 q 917 0 849 97 l 683 0 l 446 381 l 335 381 m 359 -288 q 382 -191 369 -255 q 401 -85 396 -128 l 592 -85 l 592 -98 q 480 -307 542 -212 l 359 -307 l 359 -288 "}," ":{"x_min":0,"x_max":0,"ha":361},"Ỹ":{"x_min":0.09375,"x_max":866.859375,"ha":867,"o":"m 433 583 l 640 992 l 866 992 l 537 386 l 537 0 l 329 0 l 329 379 l 0 992 l 227 992 l 433 583 m 321 1142 q 281 1123 300 1142 q 253 1069 262 1105 l 152 1069 q 208 1223 159 1167 q 336 1279 256 1279 q 391 1267 364 1279 q 444 1243 418 1256 q 495 1218 470 1229 q 545 1207 520 1207 q 585 1225 566 1207 q 613 1280 604 1243 l 714 1280 q 658 1125 707 1181 q 530 1070 608 1070 q 475 1081 502 1070 q 422 1106 448 1092 q 371 1130 396 1119 q 321 1142 346 1142 "},"ʼ":{"x_min":16.953125,"x_max":284.859375,"ha":301,"o":"m 275 992 l 284 977 q 165 652 250 843 l 16 652 q 84 992 63 852 l 275 992 "},"@":{"x_min":69.1875,"x_max":1176.8125,"ha":1246,"o":"m 1176 509 q 1145 331 1176 412 q 1057 204 1114 250 q 925 158 1000 158 q 836 182 875 158 q 780 245 797 206 l 769 245 q 583 158 696 158 q 394 230 463 158 q 324 427 324 302 q 415 658 324 571 q 653 746 506 746 q 781 734 711 746 q 897 708 851 723 l 881 376 q 933 282 881 282 q 1002 345 976 282 q 1028 511 1028 408 q 982 704 1028 620 q 854 831 937 787 q 666 875 772 875 q 428 819 529 875 q 273 657 327 763 q 219 412 219 551 q 319 125 219 225 q 609 25 419 25 q 767 41 681 25 q 937 87 853 57 l 937 -42 q 615 -104 792 -104 q 213 31 357 -104 q 69 408 69 167 q 142 712 69 575 q 352 926 216 848 q 665 1004 488 1004 q 931 942 814 1004 q 1113 769 1049 881 q 1176 509 1176 656 m 482 425 q 598 282 482 282 q 691 325 659 282 q 730 465 723 368 l 739 615 q 661 622 704 622 q 529 569 576 622 q 482 425 482 516 "},"¾":{"x_min":61,"x_max":1160.84375,"ha":1224,"o":"m 472 846 q 357 712 472 749 l 357 703 q 456 652 420 690 q 491 562 491 615 q 431 433 491 480 q 246 386 372 386 q 61 433 149 386 l 61 562 q 244 501 161 501 q 341 573 341 501 q 311 627 341 609 q 229 645 281 645 l 153 645 l 153 754 l 215 754 q 299 771 271 754 q 326 827 326 789 q 309 870 326 853 q 258 887 292 887 q 197 874 226 887 q 130 834 169 861 l 62 930 q 155 982 104 961 q 276 1004 206 1004 q 417 960 362 1004 q 472 846 472 917 m 977 992 l 427 0 l 265 0 l 815 992 l 977 992 m 1160 103 l 1076 103 l 1076 0 l 914 0 l 914 103 l 655 103 l 655 207 l 916 599 l 1076 599 l 1076 217 l 1160 217 l 1160 103 m 914 217 l 914 328 q 918 453 914 386 q 894 398 912 435 q 866 346 876 362 l 780 217 l 914 217 "},"ŉ":{"x_min":3.953125,"x_max":978.546875,"ha":1082,"o":"m 978 0 l 771 0 l 771 443 q 742 566 771 525 q 649 607 713 607 q 524 549 562 607 q 485 357 485 491 l 485 0 l 278 0 l 278 758 l 436 758 l 464 661 l 475 661 q 571 744 510 716 q 709 773 631 773 q 910 701 841 773 q 978 494 978 629 l 978 0 m 262 992 l 271 977 q 152 652 237 843 l 3 652 q 71 992 50 852 l 262 992 "},"i":{"x_min":99.703125,"x_max":324.875,"ha":424,"o":"m 99 953 q 212 1055 99 1055 q 324 953 324 1055 q 296 879 324 905 q 212 852 268 852 q 99 953 99 852 m 315 0 l 108 0 l 108 758 l 315 758 l 315 0 "},"ẽ":{"x_min":62.390625,"x_max":761.3125,"ha":821,"o":"m 422 625 q 319 583 356 625 q 276 465 282 542 l 567 465 q 527 583 565 542 q 422 625 488 625 m 451 -14 q 165 87 268 -14 q 62 373 62 188 q 157 668 62 564 q 421 773 253 773 q 671 681 582 773 q 761 427 761 589 l 761 327 l 271 327 q 324 189 275 239 q 461 139 373 139 q 590 154 529 139 q 718 199 652 168 l 718 39 q 602 0 664 12 q 451 -14 540 -14 m 306 913 q 266 894 285 913 q 238 840 247 876 l 137 840 q 193 994 144 938 q 321 1050 241 1050 q 376 1038 349 1050 q 429 1014 403 1027 q 480 989 455 1000 q 530 978 505 978 q 570 996 551 978 q 598 1051 589 1014 l 699 1051 q 643 896 692 952 q 515 841 593 841 q 460 852 487 841 q 407 877 433 863 q 356 901 381 890 q 306 913 331 913 "},"Ģ":{"x_min":80.703125,"x_max":894.734375,"ha":1006,"o":"m 501 557 l 894 557 l 894 42 q 714 -1 799 11 q 541 -14 630 -14 q 199 117 317 -14 q 80 497 80 249 q 218 871 80 737 q 598 1006 355 1006 q 893 944 751 1006 l 823 776 q 597 831 714 831 q 379 739 461 831 q 297 492 297 647 q 363 246 297 331 q 555 160 429 160 q 689 174 621 160 l 689 382 l 501 382 l 501 557 m 426 -288 q 449 -191 436 -255 q 468 -85 463 -128 l 659 -85 l 659 -98 q 547 -307 609 -212 l 426 -307 l 426 -288 "},"m":{"x_min":108.515625,"x_max":1260.234375,"ha":1364,"o":"m 787 0 l 580 0 l 580 443 q 553 566 580 525 q 466 607 525 607 q 351 549 387 607 q 315 357 315 490 l 315 0 l 108 0 l 108 758 l 266 758 l 294 661 l 305 661 q 394 743 336 713 q 526 773 451 773 q 756 661 696 773 l 775 661 q 865 743 805 714 q 999 773 924 773 q 1194 706 1127 773 q 1260 494 1260 640 l 1260 0 l 1052 0 l 1052 443 q 1025 566 1052 525 q 938 607 997 607 q 825 553 862 607 q 787 380 787 498 l 787 0 "},"ĕ":{"x_min":62.390625,"x_max":761.3125,"ha":821,"o":"m 422 625 q 319 583 356 625 q 276 465 282 542 l 567 465 q 527 583 565 542 q 422 625 488 625 m 451 -14 q 165 87 268 -14 q 62 373 62 188 q 157 668 62 564 q 421 773 253 773 q 671 681 582 773 q 761 427 761 589 l 761 327 l 271 327 q 324 189 275 239 q 461 139 373 139 q 590 154 529 139 q 718 199 652 168 l 718 39 q 602 0 664 12 q 451 -14 540 -14 m 687 1071 q 604 904 679 966 q 417 842 530 842 q 229 903 299 842 q 153 1071 159 965 l 269 1071 q 287 1020 271 1039 q 332 994 303 1002 q 419 986 361 986 q 569 1071 558 986 l 687 1071 "},"Ỉ":{"x_min":94.671875,"x_max":403.265625,"ha":460,"o":"m 124 0 l 124 992 l 335 992 l 335 0 l 124 0 m 403 1237 q 293 1104 403 1131 l 286 1056 l 168 1056 l 153 1155 q 222 1180 203 1163 q 240 1223 240 1198 q 226 1256 240 1245 q 188 1268 212 1268 q 94 1252 144 1268 l 94 1366 q 150 1377 115 1373 q 214 1382 186 1382 q 356 1344 309 1382 q 403 1237 403 1306 "},"ż":{"x_min":37.296875,"x_max":636.625,"ha":678,"o":"m 636 0 l 37 0 l 37 122 l 389 599 l 58 599 l 58 758 l 624 758 l 624 623 l 282 158 l 636 158 l 636 0 m 222 954 q 335 1055 222 1055 q 447 954 447 1055 q 419 879 447 906 q 335 853 391 853 q 222 954 222 853 "},"Ị":{"x_min":116.671875,"x_max":341.84375,"ha":460,"o":"m 124 0 l 124 992 l 335 992 l 335 0 l 124 0 m 116 -190 q 229 -89 116 -89 q 341 -190 341 -89 q 313 -265 341 -238 q 229 -291 284 -291 q 116 -190 116 -291 "},"ő":{"x_min":62.390625,"x_max":797.609375,"ha":860,"o":"m 273 380 q 310 209 273 267 q 430 152 347 152 q 549 209 513 152 q 586 380 586 267 q 549 549 586 493 q 429 606 512 606 q 309 550 346 606 q 273 380 273 494 m 797 380 q 699 90 797 195 q 427 -14 602 -14 q 235 33 318 -14 q 107 171 151 81 q 62 380 62 261 q 159 669 62 566 q 432 773 256 773 q 624 725 541 773 q 752 588 708 677 q 797 380 797 500 m 188 842 l 188 860 q 268 977 230 917 q 320 1064 306 1036 l 524 1064 l 524 1049 q 425 946 502 1013 q 298 842 348 878 l 188 842 m 457 842 l 457 860 q 590 1064 552 990 l 794 1064 l 794 1049 q 709 958 777 1020 q 567 842 640 896 l 457 842 "},"ž":{"x_min":37.296875,"x_max":645.515625,"ha":678,"o":"m 636 0 l 37 0 l 37 122 l 389 599 l 58 599 l 58 758 l 624 758 l 624 623 l 282 158 l 636 158 l 636 0 m 645 1064 l 645 1045 q 540 932 588 988 q 471 842 492 875 l 229 842 q 173 918 210 873 q 56 1045 136 962 l 56 1064 l 193 1064 q 349 945 293 1001 q 507 1064 406 1003 l 645 1064 "},"ự":{"x_min":104.453125,"x_max":1119.875,"ha":1055,"o":"m 645 0 l 617 96 l 605 96 q 512 15 573 44 q 373 -14 451 -14 q 172 57 240 -14 q 104 263 104 129 l 104 758 l 311 758 l 311 314 q 340 191 311 232 q 433 150 369 150 q 558 208 520 150 q 597 401 597 266 l 597 758 l 804 758 l 804 679 q 879 743 852 693 q 905 872 905 793 l 1109 872 l 1119 857 q 1061 694 1098 751 q 962 602 1024 637 q 804 554 900 568 l 804 0 l 645 0 m 913 0 l 913 0 m 336 -190 q 449 -89 336 -89 q 561 -190 561 -89 q 533 -265 561 -238 q 449 -291 504 -291 q 336 -190 336 -291 "},"ớ":{"x_min":62.390625,"x_max":1007.171875,"ha":943,"o":"m 797 380 q 699 90 797 195 q 427 -14 602 -14 q 235 33 318 -14 q 107 171 151 81 q 62 380 62 261 q 159 669 62 566 q 432 773 256 773 q 575 749 508 773 q 691 679 643 726 q 792 873 792 709 l 997 873 l 1007 858 q 959 713 988 767 q 881 624 929 660 q 762 570 833 587 q 797 380 797 485 m 273 380 q 310 209 273 267 q 430 152 347 152 q 549 209 513 152 q 586 380 586 267 q 549 549 586 493 q 429 606 512 606 q 309 550 346 606 q 273 380 273 494 m 860 0 l 860 0 m 310 842 l 310 860 q 469 1064 426 995 l 701 1064 l 701 1049 q 581 945 666 1014 q 447 842 495 875 l 310 842 "},"Ŏ":{"x_min":80.703125,"x_max":1025.296875,"ha":1106,"o":"m 1025 496 q 903 118 1025 250 q 553 -14 781 -14 q 202 118 325 -14 q 80 498 80 250 q 203 876 80 745 q 554 1007 325 1007 q 904 875 783 1007 q 1025 496 1025 743 m 301 496 q 364 246 301 330 q 553 162 427 162 q 804 496 804 162 q 554 832 804 832 q 364 747 428 832 q 301 496 301 663 m 821 1300 q 738 1133 813 1195 q 551 1071 664 1071 q 363 1132 433 1071 q 287 1300 293 1194 l 403 1300 q 421 1249 405 1268 q 466 1223 437 1231 q 553 1215 495 1215 q 703 1300 692 1215 l 821 1300 "},"á":{"x_min":58.328125,"x_max":734.546875,"ha":839,"o":"m 590 0 l 550 102 l 544 102 q 437 11 492 36 q 293 -14 381 -14 q 121 48 183 -14 q 58 226 58 110 q 142 404 58 347 q 397 467 227 461 l 529 472 l 529 505 q 411 620 529 620 q 197 565 320 620 l 128 705 q 419 774 259 774 q 653 707 571 774 q 734 505 734 641 l 734 0 l 590 0 m 529 351 l 449 348 q 314 315 358 345 q 270 224 270 286 q 371 137 270 137 q 485 178 442 137 q 529 288 529 220 l 529 351 m 299 842 l 299 860 q 458 1064 415 995 l 690 1064 l 690 1049 q 570 945 655 1014 q 436 842 484 875 l 299 842 "},"×":{"x_min":87.5625,"x_max":705.4375,"ha":793,"o":"m 290 490 l 87 694 l 190 799 l 394 596 l 601 799 l 705 697 l 498 490 l 702 285 l 601 181 l 394 386 l 190 183 l 88 286 l 290 490 "},"ẩ":{"x_min":58.328125,"x_max":808.625,"ha":839,"o":"m 590 0 l 550 102 l 544 102 q 437 11 492 36 q 293 -14 381 -14 q 121 48 183 -14 q 58 226 58 110 q 142 404 58 347 q 397 467 227 461 l 529 472 l 529 505 q 411 620 529 620 q 197 565 320 620 l 128 705 q 419 774 259 774 q 653 707 571 774 q 734 505 734 641 l 734 0 l 590 0 m 529 351 l 449 348 q 314 315 358 345 q 270 224 270 286 q 371 137 270 137 q 485 178 442 137 q 529 288 529 220 l 529 351 m 808 1106 q 723 1012 808 1029 l 719 971 l 633 971 l 626 1049 q 686 1061 664 1051 q 708 1091 708 1072 q 696 1116 708 1106 q 654 1126 683 1126 q 605 1119 630 1126 l 605 1205 q 668 1210 620 1210 q 770 1185 731 1210 q 808 1106 808 1161 m 672 842 l 563 842 q 420 954 487 892 q 276 842 342 886 l 167 842 l 167 860 q 312 1050 242 948 l 526 1050 q 608 939 562 997 q 672 860 653 881 l 672 842 "},"İ":{"x_min":116.71875,"x_max":341.890625,"ha":460,"o":"m 124 0 l 124 992 l 335 992 l 335 0 l 124 0 m 116 1183 q 229 1284 116 1284 q 341 1183 341 1284 q 313 1108 341 1135 q 229 1082 285 1082 q 116 1183 116 1082 "},"Ě":{"x_min":119.140625,"x_max":708.515625,"ha":778,"o":"m 695 0 l 124 0 l 124 992 l 695 992 l 695 819 l 335 819 l 335 602 l 670 602 l 670 429 l 335 429 l 335 173 l 695 173 l 695 0 m 708 1293 l 708 1274 q 603 1161 651 1217 q 534 1071 555 1104 l 292 1071 q 236 1147 273 1102 q 119 1274 199 1191 l 119 1293 l 256 1293 q 412 1174 356 1230 q 570 1293 469 1232 l 708 1293 "},"Ố":{"x_min":80.703125,"x_max":1025.296875,"ha":1106,"o":"m 1025 496 q 903 118 1025 250 q 553 -14 781 -14 q 202 118 325 -14 q 80 498 80 250 q 203 876 80 745 q 554 1007 325 1007 q 904 875 783 1007 q 1025 496 1025 743 m 301 496 q 364 246 301 330 q 553 162 427 162 q 804 496 804 162 q 554 832 804 832 q 364 747 428 832 q 301 496 301 663 m 799 1071 l 690 1071 q 547 1183 614 1121 q 403 1071 469 1115 l 294 1071 l 294 1089 q 439 1279 369 1177 l 653 1279 q 735 1168 689 1226 q 799 1089 780 1110 l 799 1071 m 739 1220 q 833 1357 797 1282 l 996 1357 l 996 1342 q 842 1203 951 1282 l 739 1203 l 739 1220 "},"Ǻ":{"x_min":0,"x_max":958,"ha":958,"o":"m 649 991 q 617 891 649 933 l 958 0 l 732 0 l 660 223 l 298 223 l 225 0 l 0 0 l 338 891 q 309 990 309 931 q 355 1107 309 1064 q 477 1151 402 1151 q 600 1107 551 1151 q 649 991 649 1063 m 616 400 l 547 596 q 479 798 488 752 q 420 617 466 750 l 344 400 l 616 400 m 395 1188 l 395 1199 q 463 1268 427 1227 q 513 1330 499 1309 l 745 1330 l 745 1321 q 668 1265 730 1304 q 532 1188 606 1225 l 395 1188 m 543 990 q 524 1037 543 1020 q 477 1055 506 1055 q 430 1037 449 1055 q 412 990 412 1020 q 470 925 412 927 l 483 925 q 526 943 509 926 q 543 990 543 960 "},"K":{"x_min":124.796875,"x_max":922,"ha":922,"o":"m 922 0 l 683 0 l 423 418 l 335 354 l 335 0 l 124 0 l 124 992 l 335 992 l 335 538 l 417 654 l 685 992 l 919 992 l 573 553 l 922 0 "},"7":{"x_min":37.3125,"x_max":748.90625,"ha":793,"o":"m 154 0 l 526 813 l 37 813 l 37 990 l 748 990 l 748 858 l 373 0 l 154 0 "},"¨":{"x_min":189.21875,"x_max":654.15625,"ha":843,"o":"m 189 953 q 214 1021 189 997 q 283 1044 240 1044 q 353 1019 328 1044 q 379 953 379 994 q 353 887 379 912 q 283 863 327 863 q 214 886 240 863 q 189 953 189 910 m 462 953 q 489 1022 462 1000 q 557 1044 517 1044 q 628 1020 601 1044 q 654 953 654 995 q 627 887 654 911 q 557 863 601 863 q 489 885 517 863 q 462 953 462 907 "},"Y":{"x_min":0.09375,"x_max":866.859375,"ha":867,"o":"m 433 583 l 640 992 l 866 992 l 537 386 l 537 0 l 329 0 l 329 379 l 0 992 l 227 992 l 433 583 "},"E":{"x_min":124.796875,"x_max":695.9375,"ha":778,"o":"m 695 0 l 124 0 l 124 992 l 695 992 l 695 819 l 335 819 l 335 602 l 670 602 l 670 429 l 335 429 l 335 173 l 695 173 l 695 0 "},"Ô":{"x_min":80.703125,"x_max":1025.296875,"ha":1106,"o":"m 1025 496 q 903 118 1025 250 q 553 -14 781 -14 q 202 118 325 -14 q 80 498 80 250 q 203 876 80 745 q 554 1007 325 1007 q 904 875 783 1007 q 1025 496 1025 743 m 301 496 q 364 246 301 330 q 553 162 427 162 q 804 496 804 162 q 554 832 804 832 q 364 747 428 832 q 301 496 301 663 m 709 1071 q 551 1189 603 1133 q 395 1071 498 1135 l 258 1071 l 258 1089 q 431 1293 386 1217 l 673 1293 q 746 1197 694 1257 q 847 1089 798 1136 l 847 1071 l 709 1071 "},"Ț":{"x_min":27.671875,"x_max":776.421875,"ha":804,"o":"m 507 0 l 296 0 l 296 817 l 27 817 l 27 992 l 776 992 l 776 817 l 507 817 l 507 0 m 265 -288 q 288 -191 275 -255 q 307 -85 302 -128 l 498 -85 l 498 -98 q 386 -307 448 -212 l 265 -307 l 265 -288 "},"‹":{"x_min":55.234375,"x_max":455.390625,"ha":511,"o":"m 55 388 l 306 697 l 455 616 l 266 380 l 455 144 l 306 64 l 55 371 l 55 388 "},"ổ":{"x_min":62.390625,"x_max":813.625,"ha":860,"o":"m 273 380 q 310 209 273 267 q 430 152 347 152 q 549 209 513 152 q 586 380 586 267 q 549 549 586 493 q 429 606 512 606 q 309 550 346 606 q 273 380 273 494 m 797 380 q 699 90 797 195 q 427 -14 602 -14 q 235 33 318 -14 q 107 171 151 81 q 62 380 62 261 q 159 669 62 566 q 432 773 256 773 q 624 725 541 773 q 752 588 708 677 q 797 380 797 500 m 813 1106 q 728 1012 813 1029 l 724 971 l 638 971 l 631 1049 q 691 1061 669 1051 q 713 1091 713 1072 q 701 1116 713 1106 q 659 1126 688 1126 q 610 1119 635 1126 l 610 1205 q 673 1210 625 1210 q 775 1185 736 1210 q 813 1106 813 1161 m 677 842 l 568 842 q 425 954 492 892 q 281 842 347 886 l 172 842 l 172 860 q 317 1050 247 948 l 531 1050 q 613 939 567 997 q 677 860 658 881 l 677 842 "},"Ï":{"x_min":-1.78125,"x_max":463.15625,"ha":460,"o":"m 124 0 l 124 992 l 335 992 l 335 0 l 124 0 m -1 1182 q 23 1250 -1 1226 q 92 1273 49 1273 q 162 1248 137 1273 q 188 1182 188 1223 q 162 1116 188 1141 q 92 1092 136 1092 q 23 1115 49 1092 q -1 1182 -1 1139 m 271 1182 q 298 1251 271 1229 q 366 1273 326 1273 q 437 1249 410 1273 q 463 1182 463 1224 q 436 1116 463 1140 q 366 1092 410 1092 q 298 1114 326 1092 q 271 1182 271 1136 "},"ġ":{"x_min":4.0625,"x_max":768.71875,"ha":785,"o":"m 768 759 l 768 653 l 650 623 q 682 508 682 572 q 597 318 682 386 q 360 250 512 250 l 323 252 l 293 255 q 261 201 261 230 q 375 156 261 156 l 504 156 q 694 102 628 156 q 759 -54 759 49 q 648 -260 759 -187 q 330 -334 538 -334 q 87 -278 171 -334 q 4 -123 4 -223 q 46 -9 4 -55 q 172 56 89 36 q 116 100 140 70 q 92 166 92 131 q 118 238 92 209 q 190 295 143 267 q 95 378 130 321 q 61 512 61 435 q 141 705 61 637 q 372 773 222 773 q 448 767 404 773 q 504 759 491 761 l 768 759 m 183 -107 q 224 -174 183 -150 q 339 -199 265 -199 q 513 -168 450 -199 q 576 -85 576 -138 q 539 -26 576 -42 q 424 -10 502 -10 l 316 -10 q 221 -36 259 -10 q 183 -107 183 -63 m 258 510 q 286 412 258 448 q 372 376 314 376 q 458 412 430 376 q 485 510 485 448 q 372 647 485 647 q 258 510 258 647 m 278 954 q 391 1055 278 1055 q 503 954 503 1055 q 475 879 503 906 q 391 853 447 853 q 278 954 278 853 "},"Ẳ":{"x_min":0,"x_max":958,"ha":958,"o":"m 731 0 l 659 236 l 298 236 l 226 0 l 0 0 l 349 996 l 606 996 l 958 0 l 731 0 m 609 413 q 497 775 509 733 q 479 842 484 817 q 351 413 456 755 l 609 413 m 580 1357 q 564 1300 580 1322 q 510 1265 547 1278 l 506 1238 l 433 1238 l 427 1312 q 474 1326 461 1318 q 488 1352 488 1335 q 448 1379 488 1379 q 392 1374 412 1379 l 392 1444 q 454 1449 407 1449 q 547 1426 513 1449 q 580 1357 580 1403 m 338 1300 q 382 1217 343 1249 q 481 1184 420 1184 q 580 1214 543 1184 q 624 1300 618 1243 l 725 1300 q 656 1128 719 1186 q 482 1071 593 1071 q 307 1131 373 1071 q 233 1300 241 1192 l 338 1300 "},"ứ":{"x_min":104.453125,"x_max":1119.875,"ha":1055,"o":"m 645 0 l 617 96 l 605 96 q 512 15 573 44 q 373 -14 451 -14 q 172 57 240 -14 q 104 263 104 129 l 104 758 l 311 758 l 311 314 q 340 191 311 232 q 433 150 369 150 q 558 208 520 150 q 597 401 597 266 l 597 758 l 804 758 l 804 679 q 879 743 852 693 q 905 872 905 793 l 1109 872 l 1119 857 q 1061 694 1098 751 q 962 602 1024 637 q 804 554 900 568 l 804 0 l 645 0 m 913 0 l 913 0 m 340 842 l 340 860 q 499 1064 456 995 l 731 1064 l 731 1049 q 611 945 696 1014 q 477 842 525 875 l 340 842 "},"ủ":{"x_min":104.453125,"x_max":804.484375,"ha":913,"o":"m 645 0 l 617 96 l 607 96 q 512 14 573 43 q 373 -14 451 -14 q 172 57 240 -14 q 104 263 104 129 l 104 758 l 311 758 l 311 314 q 340 191 311 232 q 433 150 369 150 q 558 208 520 150 q 597 401 597 266 l 597 758 l 804 758 l 804 0 l 645 0 m 624 1008 q 514 875 624 902 l 507 827 l 389 827 l 374 926 q 443 951 424 934 q 461 994 461 969 q 447 1027 461 1016 q 409 1039 433 1039 q 315 1023 365 1039 l 315 1137 q 371 1148 336 1144 q 435 1153 407 1153 q 577 1115 530 1153 q 624 1008 624 1077 "},"Ằ":{"x_min":0,"x_max":958,"ha":958,"o":"m 731 0 l 659 236 l 298 236 l 226 0 l 0 0 l 349 996 l 606 996 l 958 0 l 731 0 m 609 413 q 497 775 509 733 q 479 842 484 817 q 351 413 456 755 l 609 413 m 547 1247 l 458 1247 q 318 1387 387 1305 l 318 1402 l 468 1402 q 547 1265 500 1336 l 547 1247 m 338 1300 q 382 1217 343 1249 q 481 1184 420 1184 q 580 1214 543 1184 q 624 1300 618 1243 l 725 1300 q 656 1128 719 1186 q 482 1071 593 1071 q 307 1131 373 1071 q 233 1300 241 1192 l 338 1300 "},"ķ":{"x_min":108.515625,"x_max":861,"ha":861,"o":"m 307 412 l 397 527 l 609 758 l 842 758 l 541 429 l 861 0 l 622 0 l 404 307 l 315 235 l 315 0 l 108 0 l 108 1055 l 315 1055 l 315 584 l 304 412 l 307 412 m 316 -288 q 339 -191 326 -255 q 358 -85 353 -128 l 549 -85 l 549 -98 q 437 -307 499 -212 l 316 -307 l 316 -288 "},"Ấ":{"x_min":0,"x_max":958,"ha":958,"o":"m 731 0 l 659 236 l 298 236 l 226 0 l 0 0 l 349 996 l 606 996 l 958 0 l 731 0 m 609 413 q 497 775 509 733 q 479 842 484 817 q 351 413 456 755 l 609 413 m 732 1071 l 623 1071 q 480 1183 547 1121 q 336 1071 402 1115 l 227 1071 l 227 1089 q 372 1279 302 1177 l 586 1279 q 668 1168 622 1226 q 732 1089 713 1110 l 732 1071 m 672 1220 q 766 1357 730 1282 l 929 1357 l 929 1342 q 775 1203 884 1282 l 672 1203 l 672 1220 "}," ":{"x_min":0,"x_max":0,"ha":463},"ể":{"x_min":62.390625,"x_max":809.625,"ha":821,"o":"m 422 625 q 319 583 356 625 q 276 465 282 542 l 567 465 q 527 583 565 542 q 422 625 488 625 m 451 -14 q 165 87 268 -14 q 62 373 62 188 q 157 668 62 564 q 421 773 253 773 q 671 681 582 773 q 761 427 761 589 l 761 327 l 271 327 q 324 189 275 239 q 461 139 373 139 q 590 154 529 139 q 718 199 652 168 l 718 39 q 602 0 664 12 q 451 -14 540 -14 m 809 1106 q 724 1012 809 1029 l 720 971 l 634 971 l 627 1049 q 687 1061 665 1051 q 709 1091 709 1072 q 697 1116 709 1106 q 655 1126 684 1126 q 606 1119 631 1126 l 606 1205 q 669 1210 621 1210 q 771 1185 732 1210 q 809 1106 809 1161 m 673 842 l 564 842 q 421 954 488 892 q 277 842 343 886 l 168 842 l 168 860 q 313 1050 243 948 l 527 1050 q 609 939 563 997 q 673 860 654 881 l 673 842 "},"±":{"x_min":59.75,"x_max":733.21875,"ha":793,"o":"m 322 457 l 59 457 l 59 606 l 322 606 l 322 869 l 470 869 l 470 606 l 733 606 l 733 457 l 470 457 l 470 196 l 322 196 l 322 457 m 59 0 l 59 148 l 733 148 l 733 0 l 59 0 "},"ì":{"x_min":-68.84375,"x_max":322.484375,"ha":424,"o":"m 315 0 l 108 0 l 108 758 l 315 758 l 315 0 m 185 842 q 60 938 142 871 q -68 1049 -22 1005 l -68 1064 l 163 1064 q 322 860 205 995 l 322 842 l 185 842 "},"|":{"x_min":308.578125,"x_max":457.109375,"ha":765,"o":"m 308 1051 l 457 1051 l 457 -315 l 308 -315 l 308 1051 "},"§":{"x_min":71.90625,"x_max":607.15625,"ha":675,"o":"m 82 546 q 106 644 82 599 q 172 715 130 688 q 82 873 82 772 q 157 1016 82 962 q 356 1070 233 1070 q 603 1013 472 1070 l 547 884 q 453 923 501 905 q 352 940 405 940 q 272 924 297 940 q 247 876 247 909 q 281 818 247 843 q 392 762 314 793 q 554 661 502 719 q 607 530 607 604 q 522 353 607 410 q 585 291 564 326 q 607 205 607 255 q 526 45 607 104 q 308 -14 445 -14 q 71 39 170 -14 l 71 179 q 194 132 126 152 q 308 113 261 113 q 440 192 440 113 q 427 235 440 219 q 384 269 415 252 q 299 309 354 286 q 128 413 175 359 q 82 546 82 466 m 233 560 q 277 480 233 515 q 400 413 321 444 q 453 512 453 452 q 418 590 453 558 q 294 656 384 622 q 251 619 269 646 q 233 560 233 592 "},"˳":{"x_min":59.84375,"x_max":399.84375,"ha":463,"o":"m 399 -244 q 351 -362 399 -317 q 227 -407 303 -407 q 105 -363 151 -407 q 59 -245 59 -320 q 105 -128 59 -172 q 227 -85 151 -85 q 351 -129 302 -85 q 399 -244 399 -174 m 292 -245 q 274 -197 292 -215 q 227 -180 256 -180 q 181 -197 199 -180 q 162 -245 162 -215 q 179 -293 162 -276 q 227 -311 195 -311 q 274 -293 256 -311 q 292 -245 292 -276 "},"q":{"x_min":62.390625,"x_max":771.15625,"ha":879,"o":"m 422 148 q 537 193 501 148 q 577 351 574 238 l 577 376 q 540 551 577 498 q 419 604 502 604 q 273 375 273 604 q 309 204 273 260 q 422 148 345 148 m 348 -14 q 138 89 214 -14 q 62 377 62 193 q 140 668 62 563 q 352 773 217 773 q 478 745 424 773 q 572 661 531 718 l 577 661 l 596 758 l 771 758 l 771 -334 l 563 -334 l 563 -15 q 572 98 563 25 l 563 98 q 475 14 530 43 q 348 -14 420 -14 "},"b":{"x_min":108.515625,"x_max":816.59375,"ha":879,"o":"m 530 773 q 740 668 664 773 q 816 380 816 563 q 738 89 816 192 q 524 -14 659 -14 q 315 83 391 -14 l 301 83 l 266 0 l 108 0 l 108 1055 l 315 1055 l 315 809 q 307 660 315 763 l 315 660 q 530 773 387 773 m 463 607 q 352 560 387 607 q 315 404 316 513 l 315 381 q 351 206 315 259 q 466 153 387 153 q 568 212 530 153 q 605 383 605 271 q 567 551 605 495 q 463 607 529 607 "},"ộ":{"x_min":62.390625,"x_max":797.609375,"ha":860,"o":"m 273 380 q 310 209 273 267 q 430 152 347 152 q 549 209 513 152 q 586 380 586 267 q 549 549 586 493 q 429 606 512 606 q 309 550 346 606 q 273 380 273 494 m 797 380 q 699 90 797 195 q 427 -14 602 -14 q 235 33 318 -14 q 107 171 151 81 q 62 380 62 261 q 159 669 62 566 q 432 773 256 773 q 624 725 541 773 q 752 588 708 677 q 797 380 797 500 m 317 -190 q 430 -89 317 -89 q 542 -190 542 -89 q 514 -265 542 -238 q 430 -291 485 -291 q 317 -190 317 -291 m 585 842 q 427 960 479 904 q 271 842 374 906 l 134 842 l 134 860 q 307 1064 262 988 l 549 1064 q 622 968 570 1028 q 723 860 674 907 l 723 842 l 585 842 "},"®":{"x_min":67.84375,"x_max":1088.15625,"ha":1156,"o":"m 784 613 q 687 455 784 498 l 848 184 l 676 184 l 555 413 l 523 413 l 523 184 l 368 184 l 368 806 l 547 806 q 727 758 670 806 q 784 613 784 710 m 523 527 l 544 527 q 608 547 589 527 q 628 611 628 566 q 609 673 628 655 q 543 692 590 692 l 523 692 l 523 527 m 67 495 q 135 750 67 631 q 322 937 203 868 q 578 1006 440 1006 q 832 938 713 1006 q 1019 751 951 870 q 1088 495 1088 632 q 1022 244 1088 361 q 837 56 956 127 q 578 -14 719 -14 q 318 56 437 -14 q 133 243 200 126 q 67 495 67 361 m 164 495 q 219 288 164 384 q 371 136 275 192 q 577 81 468 81 q 785 137 689 81 q 936 289 881 192 q 991 495 991 385 q 936 703 991 606 q 784 854 880 799 q 577 909 687 909 q 370 854 466 909 q 219 702 274 798 q 164 495 164 605 "},"Ŋ":{"x_min":124.796875,"x_max":1004.21875,"ha":1129,"o":"m 688 -292 q 555 -277 611 -292 l 555 -102 q 667 -115 618 -115 q 781 -84 741 -115 q 827 2 821 -53 l 305 750 l 299 750 q 312 466 312 551 l 312 0 l 124 0 l 124 992 l 389 992 l 820 387 l 825 387 l 819 489 q 814 661 814 563 l 814 992 l 1004 992 l 1004 0 q 922 -216 1004 -140 q 688 -292 840 -292 "},"ọ":{"x_min":62.390625,"x_max":797.609375,"ha":860,"o":"m 273 380 q 310 209 273 267 q 430 152 347 152 q 549 209 513 152 q 586 380 586 267 q 549 549 586 493 q 429 606 512 606 q 309 550 346 606 q 273 380 273 494 m 797 380 q 699 90 797 195 q 427 -14 602 -14 q 235 33 318 -14 q 107 171 151 81 q 62 380 62 261 q 159 669 62 566 q 432 773 256 773 q 624 725 541 773 q 752 588 708 677 q 797 380 797 500 m 315 -190 q 428 -89 315 -89 q 540 -190 540 -89 q 512 -265 540 -238 q 428 -291 483 -291 q 315 -190 315 -291 "},"Ũ":{"x_min":118.015625,"x_max":931.984375,"ha":1050,"o":"m 931 992 l 931 349 q 882 157 931 239 q 740 30 833 74 q 520 -14 647 -14 q 223 84 329 -14 q 118 352 118 182 l 118 992 l 327 992 l 327 384 q 373 215 327 269 q 526 162 419 162 q 675 216 629 162 q 722 385 722 270 l 722 992 l 931 992 m 415 1142 q 375 1123 394 1142 q 347 1069 356 1105 l 246 1069 q 302 1223 253 1167 q 430 1279 350 1279 q 485 1267 458 1279 q 538 1243 512 1256 q 589 1218 564 1229 q 639 1207 614 1207 q 679 1225 660 1207 q 707 1280 698 1243 l 808 1280 q 752 1125 801 1181 q 624 1070 702 1070 q 569 1081 596 1070 q 516 1106 542 1092 q 465 1130 490 1119 q 415 1142 440 1142 "},"L":{"x_min":124.796875,"x_max":737.53125,"ha":785,"o":"m 124 0 l 124 992 l 335 992 l 335 173 l 737 173 l 737 0 l 124 0 "},"ế":{"x_min":62.390625,"x_max":870.65625,"ha":821,"o":"m 422 625 q 319 583 356 625 q 276 465 282 542 l 567 465 q 527 583 565 542 q 422 625 488 625 m 451 -14 q 165 87 268 -14 q 62 373 62 188 q 157 668 62 564 q 421 773 253 773 q 671 681 582 773 q 761 427 761 589 l 761 327 l 271 327 q 324 189 275 239 q 461 139 373 139 q 590 154 529 139 q 718 199 652 168 l 718 39 q 602 0 664 12 q 451 -14 540 -14 m 673 842 l 564 842 q 421 954 488 892 q 277 842 343 886 l 168 842 l 168 860 q 313 1050 243 948 l 527 1050 q 609 939 563 997 q 673 860 654 881 l 673 842 m 613 991 q 707 1128 671 1053 l 870 1128 l 870 1113 q 716 974 825 1053 l 613 974 l 613 991 "},"ď":{"x_min":62.390625,"x_max":1066.859375,"ha":879,"o":"m 348 -14 q 138 89 215 -14 q 62 377 62 193 q 140 668 62 564 q 354 773 217 773 q 572 661 497 773 l 579 661 q 563 812 563 746 l 563 1055 l 771 1055 l 771 0 l 612 0 l 572 98 l 563 98 q 348 -14 493 -14 m 421 150 q 537 197 500 150 q 577 354 574 243 l 577 376 q 540 551 577 498 q 417 604 502 604 q 310 546 348 604 q 271 375 271 487 q 310 206 271 262 q 421 150 349 150 m 833 850 q 856 947 843 884 q 875 1055 870 1011 l 1066 1055 l 1066 1041 q 954 833 1012 922 l 833 833 l 833 850 "}," ":{"x_min":0,"x_max":0,"ha":361},"Ĭ":{"x_min":-36.046875,"x_max":497.71875,"ha":460,"o":"m 124 0 l 124 992 l 335 992 l 335 0 l 124 0 m 497 1300 q 414 1133 489 1195 q 227 1071 340 1071 q 39 1132 109 1071 q -36 1300 -30 1194 l 79 1300 q 97 1249 81 1268 q 142 1223 113 1231 q 229 1215 171 1215 q 379 1300 368 1215 l 497 1300 "},"ŧ":{"x_min":31.890625,"x_max":558.234375,"ha":603,"o":"m 427 150 q 558 174 482 150 l 558 20 q 472 -5 522 3 q 372 -14 421 -14 q 188 47 246 -14 q 130 237 130 109 l 130 337 l 44 337 l 44 472 l 130 472 l 130 602 l 31 602 l 31 690 l 145 759 l 205 919 l 337 919 l 337 758 l 550 758 l 550 602 l 337 602 l 337 472 l 526 472 l 526 337 l 337 337 l 337 237 q 362 171 337 192 q 427 150 387 150 "},"À":{"x_min":0,"x_max":958,"ha":958,"o":"m 731 0 l 659 236 l 298 236 l 226 0 l 0 0 l 349 996 l 606 996 l 958 0 l 731 0 m 609 413 q 497 775 509 733 q 479 842 484 817 q 351 413 456 755 l 609 413 m 483 1071 q 358 1167 440 1100 q 229 1278 275 1234 l 229 1293 l 461 1293 q 620 1089 503 1224 l 620 1071 l 483 1071 "},"ẃ":{"x_min":13.5625,"x_max":1175.4375,"ha":1189,"o":"m 731 0 l 673 265 l 594 600 l 590 600 l 451 0 l 229 0 l 13 758 l 219 758 l 307 422 q 349 173 328 332 l 354 173 q 377 336 356 225 l 388 394 l 482 758 l 710 758 l 799 394 q 807 350 801 379 q 818 288 813 321 q 828 224 824 255 q 833 173 832 192 l 837 173 q 859 307 843 222 q 881 422 874 392 l 972 758 l 1175 758 l 957 0 l 731 0 m 466 842 l 466 860 q 625 1064 582 995 l 857 1064 l 857 1049 q 737 945 822 1014 q 603 842 651 875 l 466 842 "},"+":{"x_min":59.75,"x_max":733.21875,"ha":793,"o":"m 322 415 l 59 415 l 59 564 l 322 564 l 322 828 l 470 828 l 470 564 l 733 564 l 733 415 l 470 415 l 470 154 l 322 154 l 322 415 "},"ḁ":{"x_min":58.328125,"x_max":734.546875,"ha":839,"o":"m 590 0 l 550 102 l 544 102 q 437 11 492 36 q 293 -14 381 -14 q 121 48 183 -14 q 58 226 58 110 q 142 404 58 347 q 397 467 227 461 l 529 472 l 529 505 q 411 620 529 620 q 197 565 320 620 l 128 705 q 419 774 259 774 q 653 707 571 774 q 734 505 734 641 l 734 0 l 590 0 m 529 351 l 449 348 q 314 315 358 345 q 270 224 270 286 q 371 137 270 137 q 485 178 442 137 q 529 288 529 220 l 529 351 m 573 -244 q 525 -362 573 -317 q 401 -407 477 -407 q 279 -363 325 -407 q 233 -245 233 -320 q 279 -128 233 -172 q 401 -85 325 -85 q 525 -129 476 -85 q 573 -244 573 -174 m 466 -245 q 448 -197 466 -215 q 401 -180 430 -180 q 355 -197 373 -180 q 336 -245 336 -215 q 353 -293 336 -276 q 401 -311 369 -311 q 448 -293 430 -311 q 466 -245 466 -276 "},"½":{"x_min":31.25,"x_max":1163.859375,"ha":1224,"o":"m 364 397 l 203 397 l 203 700 l 205 776 l 208 840 q 158 787 190 816 l 105 746 l 31 832 l 235 992 l 364 992 l 364 397 m 929 992 l 379 0 l 217 0 l 767 992 l 929 992 m 1163 0 l 725 0 l 725 113 l 877 262 q 965 360 946 330 q 984 425 984 391 q 968 464 984 450 q 925 478 952 478 q 803 418 870 478 l 719 521 q 947 609 819 609 q 1094 563 1040 609 q 1147 439 1147 518 q 1115 330 1147 381 q 996 200 1083 279 l 925 135 l 1163 135 l 1163 0 "},"Ë":{"x_min":124.796875,"x_max":695.9375,"ha":778,"o":"m 695 0 l 124 0 l 124 992 l 695 992 l 695 819 l 335 819 l 335 602 l 670 602 l 670 429 l 335 429 l 335 173 l 695 173 l 695 0 m 184 1182 q 209 1250 184 1226 q 278 1273 235 1273 q 348 1248 323 1273 q 374 1182 374 1223 q 348 1116 374 1141 q 278 1092 322 1092 q 209 1115 235 1092 q 184 1182 184 1139 m 457 1182 q 484 1251 457 1229 q 552 1273 512 1273 q 623 1249 596 1273 q 649 1182 649 1224 q 622 1116 649 1140 q 552 1092 596 1092 q 484 1114 512 1092 q 457 1182 457 1136 "},"'":{"x_min":90.203125,"x_max":279.421875,"ha":370,"o":"m 279 992 l 251 634 l 118 634 l 90 992 l 279 992 "},"Š":{"x_min":63.75,"x_max":710.0625,"ha":765,"o":"m 710 275 q 613 63 710 140 q 344 -14 516 -14 q 63 45 185 -14 l 63 241 q 233 177 164 196 q 360 159 303 159 q 466 186 429 159 q 503 264 503 212 q 487 316 503 294 q 439 360 471 339 q 311 427 408 381 q 174 509 220 470 q 102 601 129 549 q 75 723 75 653 q 164 930 75 855 q 410 1006 253 1006 q 558 987 488 1006 q 705 936 628 969 l 637 772 q 506 818 558 805 q 404 831 454 831 q 312 803 344 831 q 280 730 280 775 q 293 682 280 702 q 334 641 306 661 q 467 572 362 622 q 658 438 606 505 q 710 275 710 372 m 700 1293 l 700 1274 q 595 1161 643 1217 q 526 1071 547 1104 l 284 1071 q 228 1147 265 1102 q 111 1274 191 1191 l 111 1293 l 248 1293 q 404 1174 348 1230 q 562 1293 461 1232 l 700 1293 "},"ĳ":{"x_min":99.703125,"x_max":721.875,"ha":821,"o":"m 99 953 q 212 1055 99 1055 q 324 953 324 1055 q 296 879 324 905 q 212 852 268 852 q 99 953 99 852 m 315 0 l 108 0 l 108 758 l 315 758 l 315 0 m 444 -334 q 308 -317 365 -334 l 308 -154 q 405 -167 355 -167 q 481 -137 457 -167 q 505 -51 505 -108 l 505 758 l 712 758 l 712 -82 q 642 -268 712 -203 q 444 -334 572 -334 m 496 953 q 609 1055 496 1055 q 721 953 721 1055 q 693 879 721 905 q 609 852 665 852 q 496 953 496 852 "}," ":{"x_min":0,"x_max":0,"ha":1389},"˛":{"x_min":6.78125,"x_max":281.9375,"ha":286,"o":"m 149 -154 q 165 -196 149 -182 q 204 -209 180 -209 q 281 -197 241 -209 l 281 -318 q 176 -334 226 -334 q 53 -290 99 -334 q 6 -177 6 -247 q 32 -92 6 -132 q 128 0 58 -52 l 250 0 q 176 -81 202 -44 q 149 -154 149 -118 "},"ở":{"x_min":62.390625,"x_max":1007.171875,"ha":943,"o":"m 797 380 q 699 90 797 195 q 427 -14 602 -14 q 235 33 318 -14 q 107 171 151 81 q 62 380 62 261 q 159 669 62 566 q 432 773 256 773 q 575 749 508 773 q 691 679 643 726 q 792 873 792 709 l 997 873 l 1007 858 q 959 713 988 767 q 881 624 929 660 q 762 570 833 587 q 797 380 797 485 m 273 380 q 310 209 273 267 q 430 152 347 152 q 549 209 513 152 q 586 380 586 267 q 549 549 586 493 q 429 606 512 606 q 309 550 346 606 q 273 380 273 494 m 860 0 l 860 0 m 612 1008 q 502 875 612 902 l 495 827 l 377 827 l 362 926 q 431 951 412 934 q 449 994 449 969 q 435 1027 449 1016 q 397 1039 421 1039 q 303 1023 353 1039 l 303 1137 q 359 1148 324 1144 q 423 1153 395 1153 q 565 1115 518 1153 q 612 1008 612 1077 "},"ð":{"x_min":62.390625,"x_max":797.609375,"ha":860,"o":"m 345 883 q 242 945 291 919 l 311 1065 q 486 969 408 1020 l 638 1063 l 706 959 l 591 888 q 747 668 697 791 q 797 388 797 545 q 699 92 797 198 q 427 -14 600 -14 q 162 78 261 -14 q 62 331 62 171 q 150 581 62 488 q 388 674 238 674 q 575 607 527 674 l 580 610 q 450 801 535 720 l 294 704 l 226 810 l 345 883 m 586 360 q 544 477 586 433 q 430 521 503 521 q 310 474 348 521 q 273 329 273 428 q 314 186 273 234 q 430 138 354 138 q 550 194 514 138 q 586 360 586 249 "},"ş":{"x_min":62.390625,"x_max":637.09375,"ha":690,"o":"m 637 224 q 556 47 637 108 q 313 -14 475 -14 q 172 -2 231 -14 q 63 30 114 8 l 63 201 q 193 155 121 173 q 320 137 265 137 q 432 202 432 137 q 418 242 432 226 q 366 276 403 257 q 269 322 329 296 q 140 390 181 358 q 81 461 99 421 q 62 561 62 502 q 140 717 62 662 q 362 773 218 773 q 628 713 499 773 l 566 564 q 460 604 509 588 q 359 619 410 619 q 267 570 267 619 q 297 521 267 542 q 426 461 326 501 q 556 394 515 425 q 617 322 597 362 q 637 224 637 281 m 487 -170 q 436 -295 487 -256 q 277 -334 385 -334 q 178 -319 225 -334 l 178 -205 q 228 -215 197 -210 q 275 -220 259 -220 q 324 -177 324 -220 q 212 -104 324 -121 l 265 0 l 396 0 l 377 -42 q 457 -92 427 -58 q 487 -170 487 -126 "},"Ỡ":{"x_min":80.703125,"x_max":1188.078125,"ha":1146,"o":"m 1025 496 q 903 118 1025 250 q 553 -14 781 -14 q 202 118 325 -14 q 80 498 80 250 q 203 875 80 744 q 555 1007 326 1007 q 911 869 790 1007 q 974 1055 974 910 l 1178 1055 l 1188 1040 q 1115 851 1163 920 q 983 749 1067 783 q 1025 496 1025 642 m 301 496 q 364 246 301 330 q 553 162 427 162 q 804 496 804 162 q 554 832 804 832 q 364 747 428 832 q 301 496 301 663 m 1106 0 l 1106 0 m 447 1142 q 407 1123 426 1142 q 379 1069 388 1105 l 278 1069 q 334 1223 285 1167 q 462 1279 382 1279 q 517 1267 490 1279 q 570 1243 544 1256 q 621 1218 596 1229 q 671 1207 646 1207 q 711 1225 692 1207 q 739 1280 730 1243 l 840 1280 q 784 1125 833 1181 q 656 1070 734 1070 q 601 1081 628 1070 q 548 1106 574 1092 q 497 1130 522 1119 q 447 1142 472 1142 "}," ":{"x_min":0,"x_max":0,"ha":777},"ı":{"x_min":108.515625,"x_max":315.375,"ha":424,"o":"m 315 0 l 108 0 l 108 758 l 315 758 l 315 0 "},"Ć":{"x_min":80.703125,"x_max":836.171875,"ha":885,"o":"m 545 831 q 362 741 427 831 q 297 492 297 652 q 545 160 297 160 q 798 213 650 160 l 798 36 q 526 -14 676 -14 q 195 117 309 -14 q 80 494 80 248 q 136 765 80 649 q 298 943 193 881 q 545 1006 404 1006 q 836 936 690 1006 l 768 765 q 656 811 712 791 q 545 831 600 831 m 405 1071 l 405 1089 q 564 1293 521 1224 l 796 1293 l 796 1278 q 676 1174 761 1243 q 542 1071 590 1104 l 405 1071 "},"ä":{"x_min":58.328125,"x_max":734.546875,"ha":839,"o":"m 590 0 l 550 102 l 544 102 q 437 11 492 36 q 293 -14 381 -14 q 121 48 183 -14 q 58 226 58 110 q 142 404 58 347 q 397 467 227 461 l 529 472 l 529 505 q 411 620 529 620 q 197 565 320 620 l 128 705 q 419 774 259 774 q 653 707 571 774 q 734 505 734 641 l 734 0 l 590 0 m 529 351 l 449 348 q 314 315 358 345 q 270 224 270 286 q 371 137 270 137 q 485 178 442 137 q 529 288 529 220 l 529 351 m 193 953 q 218 1021 193 997 q 287 1044 244 1044 q 357 1019 332 1044 q 383 953 383 994 q 357 887 383 912 q 287 863 331 863 q 218 886 244 863 q 193 953 193 910 m 466 953 q 493 1022 466 1000 q 561 1044 521 1044 q 632 1020 605 1044 q 658 953 658 995 q 631 887 658 911 q 561 863 605 863 q 493 885 521 863 q 466 953 466 907 "},"¹":{"x_min":62.25,"x_max":395.9375,"ha":526,"o":"m 395 397 l 234 397 l 234 700 l 236 776 l 239 840 q 189 787 221 816 l 136 746 l 62 832 l 266 992 l 395 992 l 395 397 "},"£":{"x_min":55.625,"x_max":766.546875,"ha":793,"o":"m 474 1006 q 739 950 607 1006 l 676 794 q 491 837 569 837 q 410 807 438 837 q 381 721 381 777 l 381 590 l 636 590 l 636 441 l 381 441 l 381 344 q 279 176 381 229 l 766 176 l 766 0 l 55 0 l 55 168 q 151 236 125 198 q 177 343 177 275 l 177 441 l 56 441 l 56 590 l 177 590 l 177 722 q 255 932 177 858 q 474 1006 333 1006 "},"ẹ":{"x_min":62.390625,"x_max":761.3125,"ha":821,"o":"m 422 625 q 319 583 356 625 q 276 465 282 542 l 567 465 q 527 583 565 542 q 422 625 488 625 m 451 -14 q 165 87 268 -14 q 62 373 62 188 q 157 668 62 564 q 421 773 253 773 q 671 681 582 773 q 761 427 761 589 l 761 327 l 271 327 q 324 189 275 239 q 461 139 373 139 q 590 154 529 139 q 718 199 652 168 l 718 39 q 602 0 664 12 q 451 -14 540 -14 m 296 -190 q 409 -89 296 -89 q 521 -190 521 -89 q 493 -265 521 -238 q 409 -291 464 -291 q 296 -190 296 -291 "},"ů":{"x_min":104.453125,"x_max":804.484375,"ha":913,"o":"m 645 0 l 617 96 l 607 96 q 512 14 573 43 q 373 -14 451 -14 q 172 57 240 -14 q 104 263 104 129 l 104 758 l 311 758 l 311 314 q 340 191 311 232 q 433 150 369 150 q 558 208 520 150 q 597 401 597 266 l 597 758 l 804 758 l 804 0 l 645 0 m 624 1002 q 576 884 624 929 q 451 840 527 840 q 329 883 375 840 q 283 1001 283 926 q 329 1118 283 1074 q 451 1162 375 1162 q 575 1117 526 1162 q 624 1002 624 1072 m 517 1001 q 498 1049 517 1031 q 451 1066 480 1066 q 405 1049 423 1066 q 386 1001 386 1031 q 403 953 386 970 q 451 935 419 935 q 498 953 480 935 q 517 1001 517 970 "},"Ō":{"x_min":80.703125,"x_max":1025.296875,"ha":1106,"o":"m 1025 496 q 903 118 1025 250 q 553 -14 781 -14 q 202 118 325 -14 q 80 498 80 250 q 203 876 80 745 q 554 1007 325 1007 q 904 875 783 1007 q 1025 496 1025 743 m 301 496 q 364 246 301 330 q 553 162 427 162 q 804 496 804 162 q 554 832 804 832 q 364 747 428 832 q 301 496 301 663 m 323 1214 l 783 1214 l 783 1071 l 323 1071 l 323 1214 "},"W":{"x_min":0,"x_max":1343,"ha":1343,"o":"m 1090 0 l 851 0 l 716 521 q 691 636 709 549 q 670 753 673 723 q 650 635 666 716 q 625 519 634 554 l 491 0 l 253 0 l 0 992 l 206 992 l 333 450 q 381 190 366 300 q 400 310 385 229 q 427 436 415 391 l 572 992 l 771 992 l 915 436 q 939 322 925 398 q 961 190 953 245 q 982 322 967 243 q 1009 450 997 401 l 1136 992 l 1343 992 l 1090 0 "},"ỉ":{"x_min":79.671875,"x_max":388.265625,"ha":424,"o":"m 315 0 l 108 0 l 108 758 l 315 758 l 315 0 m 388 1008 q 278 875 388 902 l 271 827 l 153 827 l 138 926 q 207 951 188 934 q 225 994 225 969 q 211 1027 225 1016 q 173 1039 197 1039 q 79 1023 129 1039 l 79 1137 q 135 1148 100 1144 q 199 1153 171 1153 q 341 1115 294 1153 q 388 1008 388 1077 "},"Ğ":{"x_min":80.703125,"x_max":894.734375,"ha":1006,"o":"m 501 557 l 894 557 l 894 42 q 714 -1 799 11 q 541 -14 630 -14 q 199 117 317 -14 q 80 497 80 249 q 218 871 80 737 q 598 1006 355 1006 q 893 944 751 1006 l 823 776 q 597 831 714 831 q 379 739 461 831 q 297 492 297 647 q 363 246 297 331 q 555 160 429 160 q 689 174 621 160 l 689 382 l 501 382 l 501 557 m 816 1300 q 733 1133 808 1195 q 546 1071 659 1071 q 358 1132 428 1071 q 282 1300 288 1194 l 398 1300 q 416 1249 400 1268 q 461 1223 432 1231 q 548 1215 490 1215 q 698 1300 687 1215 l 816 1300 "},"v":{"x_min":0,"x_max":790,"ha":790,"o":"m 288 0 l 0 758 l 216 758 l 362 326 q 393 170 387 244 l 397 170 q 427 326 400 235 l 573 758 l 790 758 l 501 0 l 288 0 "},">":{"x_min":59.703125,"x_max":733.296875,"ha":793,"o":"m 59 299 l 523 490 l 59 705 l 59 868 l 733 531 l 733 434 l 59 137 l 59 299 "},"Ệ":{"x_min":116.140625,"x_max":705.515625,"ha":778,"o":"m 695 0 l 124 0 l 124 992 l 695 992 l 695 819 l 335 819 l 335 602 l 670 602 l 670 429 l 335 429 l 335 173 l 695 173 l 695 0 m 567 1071 q 409 1189 461 1133 q 253 1071 356 1135 l 116 1071 l 116 1089 q 289 1293 244 1217 l 531 1293 q 604 1197 552 1257 q 705 1089 656 1136 l 705 1071 l 567 1071 m 295 -190 q 408 -89 295 -89 q 520 -190 520 -89 q 492 -265 520 -238 q 408 -291 463 -291 q 295 -190 295 -291 "},"û":{"x_min":104.453125,"x_max":804.484375,"ha":913,"o":"m 645 0 l 617 96 l 607 96 q 512 14 573 43 q 373 -14 451 -14 q 172 57 240 -14 q 104 263 104 129 l 104 758 l 311 758 l 311 314 q 340 191 311 232 q 433 150 369 150 q 558 208 520 150 q 597 401 597 266 l 597 758 l 804 758 l 804 0 l 645 0 m 610 842 q 452 960 504 904 q 296 842 399 906 l 159 842 l 159 860 q 332 1064 287 988 l 574 1064 q 647 968 595 1028 q 748 860 699 907 l 748 842 l 610 842 "},"Ź":{"x_min":33.21875,"x_max":770.78125,"ha":804,"o":"m 770 0 l 33 0 l 33 136 l 508 818 l 46 818 l 46 992 l 757 992 l 757 856 l 283 173 l 770 173 l 770 0 m 278 1071 l 278 1089 q 437 1293 394 1224 l 669 1293 l 669 1278 q 549 1174 634 1243 q 415 1071 463 1104 l 278 1071 "},"Ų":{"x_min":118.015625,"x_max":931.984375,"ha":1050,"o":"m 931 992 l 931 349 q 882 157 931 239 q 740 30 833 74 q 520 -14 647 -14 q 223 84 329 -14 q 118 352 118 182 l 118 992 l 327 992 l 327 384 q 373 215 327 269 q 526 162 419 162 q 675 216 629 162 q 722 385 722 270 l 722 992 l 931 992 m 545 -154 q 561 -196 545 -182 q 600 -209 576 -209 q 677 -197 637 -209 l 677 -318 q 572 -334 622 -334 q 449 -290 495 -334 q 402 -177 402 -247 q 428 -92 402 -132 q 524 0 454 -52 l 646 0 q 572 -81 598 -44 q 545 -154 545 -118 "},"Ŵ":{"x_min":0,"x_max":1343,"ha":1343,"o":"m 1090 0 l 851 0 l 716 521 q 691 636 709 549 q 670 753 673 723 q 650 635 666 716 q 625 519 634 554 l 491 0 l 253 0 l 0 992 l 206 992 l 333 450 q 381 190 366 300 q 400 310 385 229 q 427 436 415 391 l 572 992 l 771 992 l 915 436 q 939 322 925 398 q 961 190 953 245 q 982 322 967 243 q 1009 450 997 401 l 1136 992 l 1343 992 l 1090 0 m 827 1071 q 669 1189 721 1133 q 513 1071 616 1135 l 376 1071 l 376 1089 q 549 1293 504 1217 l 791 1293 q 864 1197 812 1257 q 965 1089 916 1136 l 965 1071 l 827 1071 "},"‛":{"x_min":17.171875,"x_max":285.078125,"ha":300,"o":"m 216 992 q 285 652 241 825 l 136 652 q 63 828 96 738 q 17 977 30 919 l 26 992 l 216 992 "},"Ð":{"x_min":31.875,"x_max":947.296875,"ha":1028,"o":"m 31 577 l 124 577 l 124 992 l 436 992 q 813 863 678 992 q 947 505 947 735 q 807 130 947 260 q 405 0 668 0 l 124 0 l 124 404 l 31 404 l 31 577 m 728 500 q 658 738 728 657 q 445 819 587 819 l 335 819 l 335 577 l 495 577 l 495 404 l 335 404 l 335 173 l 423 173 q 728 500 728 173 "},"ˉ":{"x_min":191.9375,"x_max":651.765625,"ha":843,"o":"m 191 985 l 651 985 l 651 842 l 191 842 l 191 985 "},"Ĺ":{"x_min":124.796875,"x_max":737.53125,"ha":785,"o":"m 124 0 l 124 992 l 335 992 l 335 173 l 737 173 l 737 0 l 124 0 m 181 1071 l 181 1089 q 340 1293 297 1224 l 572 1293 l 572 1278 q 452 1174 537 1243 q 318 1071 366 1104 l 181 1071 "},"ỵ":{"x_min":0,"x_max":790,"ha":790,"o":"m 0 758 l 226 758 l 369 331 q 394 199 387 275 l 398 199 q 427 331 406 269 l 568 758 l 790 758 l 469 -97 q 343 -275 425 -216 q 152 -334 261 -334 q 47 -322 99 -334 l 47 -158 q 128 -167 84 -167 q 224 -133 183 -167 q 288 -32 265 -100 l 301 5 l 0 758 m 552 -190 q 665 -89 552 -89 q 777 -190 777 -89 q 749 -265 777 -238 q 665 -291 720 -291 q 552 -190 552 -291 "},"r":{"x_min":108.515625,"x_max":601.828125,"ha":631,"o":"m 531 773 q 601 766 574 773 l 586 572 q 525 579 561 579 q 370 528 426 579 q 315 386 315 477 l 315 0 l 108 0 l 108 758 l 265 758 l 295 631 l 305 631 q 401 734 341 695 q 531 773 461 773 "},"Č":{"x_min":80.703125,"x_max":836.171875,"ha":885,"o":"m 545 831 q 362 741 427 831 q 297 492 297 652 q 545 160 297 160 q 798 213 650 160 l 798 36 q 526 -14 676 -14 q 195 117 309 -14 q 80 494 80 248 q 136 765 80 649 q 298 943 193 881 q 545 1006 404 1006 q 836 936 690 1006 l 768 765 q 656 811 712 791 q 545 831 600 831 m 832 1293 l 832 1274 q 727 1161 775 1217 q 658 1071 679 1104 l 416 1071 q 360 1147 397 1102 q 243 1274 323 1191 l 243 1293 l 380 1293 q 536 1174 480 1230 q 694 1293 593 1232 l 832 1293 "},"x":{"x_min":6.78125,"x_max":796.21875,"ha":803,"o":"m 263 387 l 19 758 l 254 758 l 401 516 l 550 758 l 784 758 l 537 387 l 796 0 l 560 0 l 401 259 l 241 0 l 6 0 l 263 387 "},"è":{"x_min":62.390625,"x_max":761.3125,"ha":821,"o":"m 422 625 q 319 583 356 625 q 276 465 282 542 l 567 465 q 527 583 565 542 q 422 625 488 625 m 451 -14 q 165 87 268 -14 q 62 373 62 188 q 157 668 62 564 q 421 773 253 773 q 671 681 582 773 q 761 427 761 589 l 761 327 l 271 327 q 324 189 275 239 q 461 139 373 139 q 590 154 529 139 q 718 199 652 168 l 718 39 q 602 0 664 12 q 451 -14 540 -14 m 420 842 q 295 938 377 871 q 166 1049 212 1005 l 166 1064 l 398 1064 q 557 860 440 995 l 557 842 l 420 842 "},"Ń":{"x_min":124.796875,"x_max":1004.21875,"ha":1129,"o":"m 1004 0 l 737 0 l 305 750 l 299 750 q 312 466 312 551 l 312 0 l 124 0 l 124 992 l 389 992 l 820 249 l 825 249 q 814 522 814 442 l 814 992 l 1004 992 l 1004 0 m 445 1071 l 445 1089 q 604 1293 561 1224 l 836 1293 l 836 1278 q 716 1174 801 1243 q 582 1071 630 1104 l 445 1071 "},"Ø":{"x_min":80.75,"x_max":1025.25,"ha":1106,"o":"m 1025 496 q 903 118 1025 250 q 553 -14 780 -14 q 325 30 419 -14 l 263 -61 l 154 11 l 215 104 q 80 498 80 235 q 203 876 80 745 q 554 1007 325 1007 q 787 959 688 1007 l 844 1044 l 953 973 l 893 884 q 1025 496 1025 753 m 301 496 q 339 288 301 367 l 682 801 q 554 832 625 832 q 364 747 428 832 q 301 496 301 663 m 804 496 q 770 698 804 618 l 430 188 q 553 162 482 162 q 804 496 804 162 "},"Ỳ":{"x_min":0.09375,"x_max":866.859375,"ha":867,"o":"m 433 583 l 640 992 l 866 992 l 537 386 l 537 0 l 329 0 l 329 379 l 0 992 l 227 992 l 433 583 m 389 1071 q 264 1167 346 1100 q 135 1278 181 1234 l 135 1293 l 367 1293 q 526 1089 409 1224 l 526 1071 l 389 1071 "},"Ẽ":{"x_min":124.796875,"x_max":695.9375,"ha":778,"o":"m 695 0 l 124 0 l 124 992 l 695 992 l 695 819 l 335 819 l 335 602 l 670 602 l 670 429 l 335 429 l 335 173 l 695 173 l 695 0 m 297 1142 q 257 1123 276 1142 q 229 1069 238 1105 l 128 1069 q 184 1223 135 1167 q 312 1279 232 1279 q 367 1267 340 1279 q 420 1243 394 1256 q 471 1218 446 1229 q 521 1207 496 1207 q 561 1225 542 1207 q 589 1280 580 1243 l 690 1280 q 634 1125 683 1181 q 506 1070 584 1070 q 451 1081 478 1070 q 398 1106 424 1092 q 347 1130 372 1119 q 297 1142 322 1142 "},"ḿ":{"x_min":108.515625,"x_max":1260.234375,"ha":1364,"o":"m 787 0 l 580 0 l 580 443 q 553 566 580 525 q 466 607 525 607 q 351 549 387 607 q 315 357 315 490 l 315 0 l 108 0 l 108 758 l 266 758 l 294 661 l 305 661 q 394 743 336 713 q 526 773 451 773 q 756 661 696 773 l 775 661 q 865 743 805 714 q 999 773 924 773 q 1194 706 1127 773 q 1260 494 1260 640 l 1260 0 l 1052 0 l 1052 443 q 1025 566 1052 525 q 938 607 997 607 q 825 553 862 607 q 787 380 787 498 l 787 0 m 560 842 l 560 860 q 719 1064 676 995 l 951 1064 l 951 1049 q 831 945 916 1014 q 697 842 745 875 l 560 842 "},"÷":{"x_min":59.6875,"x_max":733.3125,"ha":793,"o":"m 59 415 l 59 564 l 733 564 l 733 415 l 59 415 m 301 253 q 326 330 301 305 q 396 356 351 356 q 465 329 440 356 q 490 253 490 303 q 465 178 490 206 q 396 150 440 150 q 326 176 352 150 q 301 253 301 203 m 301 726 q 326 803 301 777 q 396 830 351 830 q 466 802 441 830 q 490 726 490 775 q 465 651 490 679 q 396 624 440 624 q 326 650 352 624 q 301 726 301 677 "},"h":{"x_min":108.515625,"x_max":808.546875,"ha":913,"o":"m 808 0 l 601 0 l 601 443 q 479 607 601 607 q 354 548 392 607 q 315 357 315 489 l 315 0 l 108 0 l 108 1055 l 315 1055 l 315 840 q 310 722 315 815 l 305 661 l 316 661 q 536 773 385 773 q 739 701 670 773 q 808 494 808 629 l 808 0 "},".":{"x_min":79.359375,"x_max":316.734375,"ha":396,"o":"m 79 97 q 109 183 79 154 q 198 212 140 212 q 285 182 255 212 q 316 97 316 152 q 285 12 316 43 q 198 -18 254 -18 q 110 12 141 -18 q 79 97 79 42 "},"f":{"x_min":27.859375,"x_max":600.40625,"ha":538,"o":"m 527 602 l 348 602 l 348 0 l 141 0 l 141 602 l 27 602 l 27 702 l 141 758 l 141 813 q 205 1003 141 943 q 409 1063 269 1063 q 600 1031 516 1063 l 547 879 q 432 898 485 898 q 368 872 388 898 q 348 805 348 846 l 348 758 l 527 758 l 527 602 "},"“":{"x_min":16.8125,"x_max":601.71875,"ha":618,"o":"m 333 666 q 383 822 348 728 q 453 992 417 915 l 601 992 q 533 652 556 810 l 343 652 l 333 666 m 16 666 q 65 822 31 728 q 136 992 100 915 l 284 992 q 216 652 239 810 l 26 652 l 16 666 "},"A":{"x_min":0,"x_max":958,"ha":958,"o":"m 731 0 l 659 236 l 298 236 l 226 0 l 0 0 l 349 996 l 606 996 l 958 0 l 731 0 m 609 413 q 497 775 509 733 q 479 842 484 817 q 351 413 456 755 l 609 413 "},"‘":{"x_min":16.828125,"x_max":284.734375,"ha":301,"o":"m 26 652 l 16 666 q 66 822 31 728 q 136 992 100 915 l 284 992 q 216 652 239 810 l 26 652 "},"O":{"x_min":80.703125,"x_max":1025.296875,"ha":1106,"o":"m 1025 496 q 903 118 1025 250 q 553 -14 781 -14 q 202 118 325 -14 q 80 498 80 250 q 203 876 80 745 q 554 1007 325 1007 q 904 875 783 1007 q 1025 496 1025 743 m 301 496 q 364 246 301 330 q 553 162 427 162 q 804 496 804 162 q 554 832 804 832 q 364 747 428 832 q 301 496 301 663 "},"Ỏ":{"x_min":80.703125,"x_max":1025.296875,"ha":1106,"o":"m 1025 496 q 903 118 1025 250 q 553 -14 781 -14 q 202 118 325 -14 q 80 498 80 250 q 203 876 80 745 q 554 1007 325 1007 q 904 875 783 1007 q 1025 496 1025 743 m 301 496 q 364 246 301 330 q 553 162 427 162 q 804 496 804 162 q 554 832 804 832 q 364 747 428 832 q 301 496 301 663 m 727 1237 q 617 1104 727 1131 l 610 1056 l 492 1056 l 477 1155 q 546 1180 527 1163 q 564 1223 564 1198 q 550 1256 564 1245 q 512 1268 536 1268 q 418 1252 468 1268 l 418 1366 q 474 1377 439 1373 q 538 1382 510 1382 q 680 1344 633 1382 q 727 1237 727 1306 "},"Đ":{"x_min":31.875,"x_max":947.296875,"ha":1028,"o":"m 31 577 l 124 577 l 124 992 l 436 992 q 813 863 678 992 q 947 505 947 735 q 807 130 947 260 q 405 0 668 0 l 124 0 l 124 404 l 31 404 l 31 577 m 728 500 q 658 738 728 657 q 445 819 587 819 l 335 819 l 335 577 l 495 577 l 495 404 l 335 404 l 335 173 l 423 173 q 728 500 728 173 "},"Ớ":{"x_min":80.703125,"x_max":1188.078125,"ha":1146,"o":"m 1025 496 q 903 118 1025 250 q 553 -14 781 -14 q 202 118 325 -14 q 80 498 80 250 q 203 875 80 744 q 555 1007 326 1007 q 911 869 790 1007 q 974 1055 974 910 l 1178 1055 l 1188 1040 q 1115 851 1163 920 q 983 749 1067 783 q 1025 496 1025 642 m 301 496 q 364 246 301 330 q 553 162 427 162 q 804 496 804 162 q 554 832 804 832 q 364 747 428 832 q 301 496 301 663 m 1106 0 l 1106 0 m 416 1071 l 416 1089 q 575 1293 532 1224 l 807 1293 l 807 1278 q 687 1174 772 1243 q 553 1071 601 1104 l 416 1071 "},"3":{"x_min":52.90625,"x_max":739.40625,"ha":793,"o":"m 710 769 q 653 611 710 676 q 495 522 597 546 l 495 518 q 677 445 615 503 q 739 288 739 387 q 635 65 739 145 q 339 -14 531 -14 q 52 39 177 -14 l 52 217 q 179 170 110 188 q 316 152 248 152 q 470 187 420 152 q 519 300 519 222 q 462 400 519 370 q 280 429 405 429 l 205 429 l 205 590 l 282 590 q 450 620 397 590 q 504 723 504 650 q 362 836 504 836 q 263 820 314 836 q 151 763 213 803 l 54 908 q 377 1006 189 1006 q 621 943 531 1006 q 710 769 710 881 "},"9":{"x_min":44.765625,"x_max":744.84375,"ha":793,"o":"m 744 568 q 621 130 744 275 q 247 -14 497 -14 q 113 -4 159 -14 l 113 163 q 233 149 170 149 q 406 180 338 149 q 510 277 474 211 q 551 459 546 343 l 543 459 q 452 369 504 395 q 323 344 400 344 q 119 427 194 344 q 44 658 44 510 q 135 910 44 817 q 381 1003 225 1003 q 574 951 491 1003 q 700 801 656 899 q 744 568 744 703 m 385 834 q 284 789 320 834 q 247 660 247 745 q 280 546 247 588 q 381 504 314 504 q 491 546 445 504 q 536 642 536 588 q 494 779 536 723 q 385 834 451 834 "},"Ǿ":{"x_min":80.75,"x_max":1025.25,"ha":1106,"o":"m 1025 496 q 903 118 1025 250 q 553 -14 780 -14 q 325 30 419 -14 l 263 -61 l 154 11 l 215 104 q 80 498 80 235 q 203 876 80 745 q 554 1007 325 1007 q 787 959 688 1007 l 844 1044 l 953 973 l 893 884 q 1025 496 1025 753 m 301 496 q 339 288 301 367 l 682 801 q 554 832 625 832 q 364 747 428 832 q 301 496 301 663 m 804 496 q 770 698 804 618 l 430 188 q 553 162 482 162 q 804 496 804 162 m 432 1071 l 432 1089 q 591 1293 548 1224 l 823 1293 l 823 1278 q 703 1174 788 1243 q 569 1071 617 1104 l 432 1071 "},"l":{"x_min":108.515625,"x_max":315.375,"ha":424,"o":"m 315 0 l 108 0 l 108 1055 l 315 1055 l 315 0 "},"Ẫ":{"x_min":0,"x_max":958,"ha":958,"o":"m 731 0 l 659 236 l 298 236 l 226 0 l 0 0 l 349 996 l 606 996 l 958 0 l 731 0 m 609 413 q 497 775 509 733 q 479 842 484 817 q 351 413 456 755 l 609 413 m 578 1292 q 528 1300 553 1292 q 478 1319 502 1309 q 431 1338 453 1329 q 389 1347 408 1347 q 347 1335 362 1347 q 324 1291 333 1324 l 247 1291 q 290 1410 253 1366 q 382 1455 326 1455 q 433 1446 407 1455 q 484 1426 460 1437 q 531 1407 508 1416 q 571 1398 553 1398 q 612 1410 599 1398 q 636 1456 626 1423 l 713 1456 q 668 1334 704 1377 q 578 1292 632 1292 m 732 1071 l 636 1071 q 479 1174 540 1119 q 322 1071 423 1124 l 226 1071 l 226 1089 q 386 1266 342 1200 l 572 1266 q 648 1174 605 1219 q 732 1089 692 1129 l 732 1071 "},"4":{"x_min":23.734375,"x_max":771.296875,"ha":793,"o":"m 771 205 l 651 205 l 651 0 l 447 0 l 447 205 l 23 205 l 23 351 l 458 992 l 651 992 l 651 368 l 771 368 l 771 205 m 447 368 l 447 536 q 450 658 447 578 q 455 751 453 739 l 450 751 q 390 643 425 696 l 208 368 l 447 368 "},"Ẁ":{"x_min":0,"x_max":1343,"ha":1343,"o":"m 1090 0 l 851 0 l 716 521 q 691 636 709 549 q 670 753 673 723 q 650 635 666 716 q 625 519 634 554 l 491 0 l 253 0 l 0 992 l 206 992 l 333 450 q 381 190 366 300 q 400 310 385 229 q 427 436 415 391 l 572 992 l 771 992 l 915 436 q 939 322 925 398 q 961 190 953 245 q 982 322 967 243 q 1009 450 997 401 l 1136 992 l 1343 992 l 1090 0 m 650 1071 q 525 1167 607 1100 q 396 1278 442 1234 l 396 1293 l 628 1293 q 787 1089 670 1224 l 787 1071 l 650 1071 "}," ":{"x_min":0,"x_max":0,"ha":139},"Ť":{"x_min":27.671875,"x_max":776.421875,"ha":804,"o":"m 507 0 l 296 0 l 296 817 l 27 817 l 27 992 l 776 992 l 776 817 l 507 817 l 507 0 m 697 1293 l 697 1274 q 592 1161 640 1217 q 523 1071 544 1104 l 281 1071 q 225 1147 262 1102 q 108 1274 188 1191 l 108 1293 l 245 1293 q 401 1174 345 1230 q 559 1293 458 1232 l 697 1293 "},"Ś":{"x_min":63.75,"x_max":710.0625,"ha":765,"o":"m 710 275 q 613 63 710 140 q 344 -14 516 -14 q 63 45 185 -14 l 63 241 q 233 177 164 196 q 360 159 303 159 q 466 186 429 159 q 503 264 503 212 q 487 316 503 294 q 439 360 471 339 q 311 427 408 381 q 174 509 220 470 q 102 601 129 549 q 75 723 75 653 q 164 930 75 855 q 410 1006 253 1006 q 558 987 488 1006 q 705 936 628 969 l 637 772 q 506 818 558 805 q 404 831 454 831 q 312 803 344 831 q 280 730 280 775 q 293 682 280 702 q 334 641 306 661 q 467 572 362 622 q 658 438 606 505 q 710 275 710 372 m 278 1071 l 278 1089 q 437 1293 394 1224 l 669 1293 l 669 1278 q 549 1174 634 1243 q 415 1071 463 1104 l 278 1071 "}}}
